<?xml version="1.0" encoding="UTF-8"?>
<svg width="1245px" height="508px" viewBox="0 0 1245 508" version="1.1" xmlns="http://www.w3.org/2000/svg" xmlns:xlink="http://www.w3.org/1999/xlink">
    <!-- Generator: Sketch 60 (88103) - https://sketch.com -->
    <title>Group 7</title>
    <desc>Created with Sketch.</desc>
    <g id="Page-1---Layouts" stroke="none" stroke-width="1" fill="none" fill-rule="evenodd">
        <g id="Landing-Final" transform="translate(-40.000000, -2515.000000)">
            <g id="Group" transform="translate(740.000000, 1474.000000) scale(-1, 1) translate(-740.000000, -1474.000000) translate(40.000000, -75.000000)">
                <g id="Group-7" transform="translate(155.000000, 2590.000000)">
                    <path d="M1027,141 L1027,421 L1027,421 C949.680135,421 887,358.319865 887,281 C887,203.680135 949.680135,141 1027,141 Z" id="Combined-Shape" fill="#6B778D" transform="translate(957.000000, 281.000000) scale(-1, 1) rotate(180.000000) translate(-957.000000, -281.000000) "></path>
                    <path d="M1027,0 L1027,280 L1027,280 C949.680135,280 887,217.319865 887,140 C887,62.680135 949.680135,1.42034288e-14 1027,0 Z" id="Combined-Shape" fill="#6792FF" transform="translate(957.000000, 140.000000) rotate(180.000000) translate(-957.000000, -140.000000) "></path>
                    <rect id="Rectangle-7" fill="#17223B" transform="translate(1166.500000, 280.500000) rotate(180.000000) translate(-1166.500000, -280.500000) " x="1088" y="202" width="157" height="157" rx="78.5"></rect>
                    <rect id="Rectangle-7" fill="#6792FF" transform="translate(78.500000, 429.500000) scale(-1, 1) translate(-78.500000, -429.500000) " x="0" y="351" width="157" height="157" rx="78.5"></rect>
                </g>
            </g>
        </g>
    </g>
</svg>