<svg xmlns="http://www.w3.org/2000/svg" xmlns:xlink="http://www.w3.org/1999/xlink" width="75" height="75" viewBox="0 0 75 75"><defs><clipPath id="a"><path d="M0,0H7.908V7.908H0Z" transform="translate(0.004 0.008)" fill="none"/></clipPath><clipPath id="b"><path d="M0,0H21.958V8.155H0Z" transform="translate(0.038 0.095)" fill="none"/></clipPath></defs><g transform="translate(16 10)"><path d="M16.5,33A16.5,16.5,0,0,1,4.833,4.833,16.5,16.5,0,0,1,28.168,28.168,16.393,16.393,0,0,1,16.5,33Zm0-24.75A8.25,8.25,0,1,0,24.75,16.5,8.259,8.259,0,0,0,16.5,8.25Z" transform="translate(0 5)" fill="#14213a"/><g transform="translate(36)"><path d="M0,0H7.908V7.908H0Z" transform="translate(0.004 0.008)" fill="none"/><g clip-path="url(#a)"><path d="M7.908,3.954A3.954,3.954,0,1,1,3.954,0,3.954,3.954,0,0,1,7.908,3.954" transform="translate(0.004 0.008)" fill="#14213a"/></g></g><g transform="translate(5 47)"><path d="M0,0H21.958V8.155H0Z" transform="translate(0.038 0.095)" fill="none"/><g clip-path="url(#b)"><path d="M17.735,8.155H4.223A4.152,4.152,0,0,1,0,4.077,4.152,4.152,0,0,1,4.223,0H17.735a4.152,4.152,0,0,1,4.223,4.077,4.152,4.152,0,0,1-4.223,4.078" transform="translate(0.038 0.095)" fill="#14213a"/></g></g></g></svg>