<svg xmlns="http://www.w3.org/2000/svg" xmlns:xlink="http://www.w3.org/1999/xlink" viewBox="0 0 319.82 305.13"><defs><style>.cls-1{fill:none;}.cls-2{fill:#f58c92;}.cls-3{fill:#6b778d;}.cls-4{fill:#718ac6;}.cls-5{fill:#f592a3;}.cls-6{fill:#171717;}.cls-7{fill:#010101;}.cls-8{fill:#f26769;}.cls-9{opacity:0.3;}.cls-10{clip-path:url(#clip-path);}.cls-11{fill:#282828;}.cls-12,.cls-13{fill:#fff;}.cls-12{fill-rule:evenodd;}</style><clipPath id="clip-path"><path class="cls-1" d="M.1,216.27s18.55-66.79,15-67S1.2,152.6.1,140.58,7.83,103.4,7.83,103.4a9.71,9.71,0,0,1,7.73-4.31c5.52-.37,47.7,0,47.7,0S77.18,95.61,78.72,117s-15,42.52-15,42.52l17.67,56.77S46,236.53.1,216.27Z"/></clipPath></defs><title>Asset 5</title><g id="Layer_2" data-name="Layer 2"><g id="Layer_1-2" data-name="Layer 1"><polyline class="cls-2" points="24.83 294.4 38.52 301.91 38.52 304.79 9.15 305.01 9.66 293.45 12.9 220.42 29.91 224.39 24.83 294.4"/><polygon class="cls-2" points="55.75 224.17 69.44 294.4 69.44 305.01 98.82 305.01 98.82 302.36 83.8 293.52 72.98 217.77 55.75 224.17"/><path class="cls-3" d="M.1,216.27s18.55-66.79,15-67S1.2,152.6.1,140.58,7.83,103.4,7.83,103.4a9.71,9.71,0,0,1,7.73-4.31c5.52-.37,47.7,0,47.7,0S77.18,95.61,78.72,117s-15,42.52-15,42.52l17.67,56.77S46,236.53.1,216.27Z"/><polygon class="cls-4" points="88.07 117.2 52.88 117.2 45.37 161.58 81.08 161.58 88.07 117.2"/><path class="cls-5" d="M85.59,133.51l-7.32,3.31a3.47,3.47,0,0,0-2,3.17v5.76a3.48,3.48,0,0,0,3.48,3.48h4.89a3.48,3.48,0,0,0,3.48-3.48v-9.64a1.41,1.41,0,0,0-.11-.54l-.6-1.37A1.34,1.34,0,0,0,85.59,133.51Z"/><polygon class="cls-6" points="9.64 293.96 9.15 305.01 38.52 304.79 38.52 301.91 24.83 294.4 24.86 293.96 9.64 293.96"/><polygon class="cls-6" points="69.44 294.53 69.44 305.13 98.82 305.13 98.82 302.49 84.11 293.83 69.31 293.83 69.44 294.53"/><path class="cls-7" d="M15.41,99.09s-.11-12.37,11.7-17V73.47S34.37,63.2,42.35,63.35s12.11,8.8,12.11,8.8v5.08L42.5,91l-8.54,8Z"/><path class="cls-2" d="M34,98.93V82.86s-4.6-3.09,0-6.7c0,0,4.71-.66,5.23-1.51s.26-3.72,3.05-3,5.68,5.23,10.28,5.51h.11l1.83,0v12.7H45.59v9Z"/><path class="cls-8" d="M268.81,0H110.45A22.83,22.83,0,0,0,96,5.08C91.23,9,86.24,15.54,85.35,26.21c-1.77,21.2,56.24,252.07,56.24,252.07H91.83S90.94,305,118.33,305s187.58.12,187.58.12S328,296,316.51,251.78,265.27,25.91,265.27,25.91h24.45S293.25,0,268.81,0Z"/><path class="cls-9" d="M133.35,25l156.37.88S292.66,0,268.81,0H115.09S133.35,7.36,133.35,25Z"/><path class="cls-9" d="M141.59,278.28s1.77,26.85-26.5,26.85c0,0-21.5-.64-23.26-26.85Z"/><g class="cls-10"><path class="cls-11" d="M36.2,150.23H15.41a.7.7,0,0,1-.7-.7v-.61a.69.69,0,0,1,.7-.69H34.32a.69.69,0,0,0,.69-.66l.41-6.82a.69.69,0,0,0-.53-.72L13,134.83a.7.7,0,0,1-.51-.84l.14-.59a.69.69,0,0,1,.83-.52l23.5,5.6a.69.69,0,0,1,.54.71l-.63,10.38A.69.69,0,0,1,36.2,150.23Z"/></g><path class="cls-5" d="M38.45,136.74l-3.17,1.76a1.27,1.27,0,0,0-.63,1l-.52,9.39a1.22,1.22,0,0,0,1.16,1.33H46.51a1.2,1.2,0,0,0,1.15-1l2-12.46a1.22,1.22,0,0,0-1.21-1.46l-6.36.39A8.57,8.57,0,0,0,38.45,136.74Z"/><path class="cls-12" d="M175.76,172.55l.06.21h0l13.65,59.11c16.32,0,26.5-13.23,22.73-29.56a1.6,1.6,0,0,0-.05-.21h0L198.5,143C182.17,143,172,156.22,175.76,172.55Z"/><ellipse class="cls-13" cx="235.01" cy="172.65" rx="14.77" ry="18.6" transform="translate(-50.24 233.23) rotate(-48.29)"/><path class="cls-12" d="M244,83.87H184.85L198.5,143C231.15,143,251.5,116.52,244,83.87Z"/><ellipse class="cls-13" cx="162.11" cy="113.43" rx="14.77" ry="18.6" transform="translate(-30.43 158.99) rotate(-48.29)"/></g></g></svg>