<svg xmlns="http://www.w3.org/2000/svg" width="470" height="470" viewBox="0 0 470 470">
  <g opacity=".346" transform="translate(-11 125)">
    <path fill="rgb(242,242,242)" fill-rule="evenodd" d="M332.86476623 78.7563161C328.34598603 20.3138026 85.89419-92.48640545 40.88385923-37.13081163c-45.01033076 55.35559382-1.7384803 159.24356292 92.5865477 185.84662787 94.32502798 26.60306496 203.91313951-11.51698665 199.3943593-69.95950016z"/>
    <path fill="rgb(221,227,233)" fill-rule="evenodd" d="M198.09014943 216.08260603c3.85647819-49.64920163 210.77295114-145.47739138 249.18627305-98.45064878 38.41332191 47.0267426 28.69016072 145.94204686-51.80997342 168.54239131-80.50013414 22.60034446-201.23277782-20.4425409-197.37629963-70.09174253z"/>
  </g>
  <g transform="translate(26 405)">
    <path fill="rgb(242,242,242)" fill-rule="evenodd" d="M9.72733684 30.56997783c0 13.42992363 1.0598706 24.31702782 15.28581502 24.31702782 14.22594443 0 15.28581503-10.8871042 15.28581503-24.31702782"/>
    <path fill="rgb(242,242,242)" fill-rule="evenodd" d="M29.24526172 22.19085834c-.52145365.90155911-.9864134 1.82114941-1.39710925 2.75454483-.01449515-1.92229307.0918026-3.85867301.38207723-5.82153625.49618006-3.36225203 1.25401613-6.70703635 1.96613672-10.04646766.51179023-2.39983767.4794549-6.7104172 2.42180471-8.62284947.53260377-.41330851.66083008.39753122.66083008.74942101.00669007.07437863-.00148668-1.43629636-.5184803-1.1731538-3.07297134 1.58702578-4.0686765 6.5771555-5.0524882 9.0756012-1.43539132 3.64680662-2.65670045 7.37475356-3.15957058 11.16890875-.1271113.95847004-.196242 1.91665834-.21222383 2.87315621-.1044394-.2558174-.2025604-.51360696-.31108817-.76857914-1.77361143-4.15956838-4.16716919-8.21827482-7.15242631-11.96143558-.7347925-.92099898-9.97414843-10.00871487-10.69741915-8.6177782.07136073.2020056.22077226.36963924.44860625.50290095.01338013.0152138.0137518.0067617.00594672-.01577729.54263887.8764845 2.08544295 2.23023187 2.56601285 2.99824754 1.20941567 1.93271735 2.14937026 3.98376434 3.10456334 5.99564986 2.0181706 4.25169644 3.8902747 8.54621694 5.70514155 12.84975304.4225893 1.00242104.8630188 1.99920734 1.31236839 2.99289452C14.68581484 20.44352408 8.50642179 14.37828512 0 10.90615558c2.90534798 1.47799347 4.81015908 4.25873987 6.77220743 6.38782807 2.36642581 2.5680348 4.8588479 5.06704397 7.22973376 7.6322614 2.79644854 3.02613951 6.0868471 6.21286925 8.77662622 9.5615979 2.60540991 5.46964646 5.13722908 10.9452094 6.70010336 16.69490266-.6403882-1.98652916-.05017551-4.73177667-.1598183-6.81663213-.08697089-1.65943224-.28098287-3.3053411-.54672724-4.94815086.32855668.7409689.61176957 1.48250127.73999588 2.172194-.1170762-1.15681304-.25199257-2.30630092-.39694405-3.4498723.37204213-1.07060146.73739419-2.06964165.98418337-2.89259608 1.26479458-4.22155056 2.77080327-8.37041292 4.82168087-12.4141873 1.89774936-3.74062511 4.07462324-7.43363664 6.4466241-11.01395328 1.10646296-1.66929305 2.2281644-3.33238789 3.34280411-4.99830009.72958911-1.0906048 1.4242412-2.8368121 2.44001656-3.88177547-6.56593032 6.0026933-13.73954185 12.04877411-17.90522435 19.25138624"/>
  </g>
  <g transform="translate(50 68)">
    <path fill="rgb(221,227,233)" fill-rule="evenodd" d="M56 0h143c4.4153202 0 8 3.5846798 8 8v286c0 4.4153202-3.5846798 8-8 8H56c-4.4153202 0-8-3.5846798-8-8V8c0-4.4153202 3.5846798-8 8-8z"/>
    <ellipse cx="127" cy="268" fill="rgb(255,255,255)" rx="15" ry="15"/>
    <g transform="translate(112 16)">
      <ellipse cx="2" cy="2" fill="rgb(255,255,255)" rx="2" ry="2"/>
      <path fill="rgb(255,255,255)" fill-rule="evenodd" d="M11 0h17c1.10383005 0 2 .89616995 2 2s-.89616995 2-2 2H11c-1.10383005 0-2-.89616995-2-2s.89616995-2 2-2z"/>
    </g>
    <g transform="translate(62 28)">
      <g>
        <path fill="rgb(255,255,255)" fill-rule="evenodd" d="M4 0h123c2.2076601 0 4 1.7923399 4 4v46c0 2.2076601-1.7923399 4-4 4H4c-2.2076601 0-4-1.7923399-4-4V4c0-2.2076601 1.7923399-4 4-4z"/>
        <g transform="translate(9 16.2)">
          <path fill="rgb(221,227,233)" fill-rule="evenodd" d="M3 0h67c1.65574507 0 3 1.34425493 3 3v2.1c0 1.65574507-1.34425493 3-3 3H3c-1.65574507 0-3-1.34425493-3-3V3c0-1.65574507 1.34425493-3 3-3z"/>
          <path fill="rgb(221,227,233)" fill-rule="evenodd" d="M3 13.5h43c1.65574507 0 3 1.34425493 3 3v2.1c0 1.65574507-1.34425493 3-3 3H3c-1.65574507 0-3-1.34425493-3-3v-2.1c0-1.65574507 1.34425493-3 3-3z"/>
        </g>
        <g transform="translate(110 20)">
          <ellipse cx="7" cy="7" fill="rgb(221,227,233)" rx="7" ry="7"/>
          <ellipse cx="7" cy="7" fill="rgb(242,242,242)" rx="3" ry="3"/>
        </g>
      </g>
      <g transform="translate(0 62)">
        <path fill="rgb(255,255,255)" fill-rule="evenodd" d="M4 0h123c2.2076601 0 4 1.7923399 4 4v34c0 2.2076601-1.7923399 4-4 4H4c-2.2076601 0-4-1.7923399-4-4V4c0-2.2076601 1.7923399-4 4-4z"/>
        <g transform="translate(39 12.6)">
          <path fill="rgb(221,227,233)" fill-rule="evenodd" d="M3 0h67c1.65574507 0 3 1.34425493 3 3v.3c0 1.65574507-1.34425493 3-3 3H3c-1.65574507 0-3-1.34425493-3-3V3c0-1.65574507 1.34425493-3 3-3z"/>
          <path fill="rgb(221,227,233)" fill-rule="evenodd" d="M3 10.5h43c1.65574507 0 3 1.34425493 3 3v.3c0 1.65574507-1.34425493 3-3 3H3c-1.65574507 0-3-1.34425493-3-3v-.3c0-1.65574507 1.34425493-3 3-3z"/>
        </g>
        <ellipse cx="21" cy="21" fill="rgb(197,207,214)" rx="12" ry="12"/>
      </g>
      <g transform="translate(0 112)">
        <path fill="rgb(255,255,255)" fill-rule="evenodd" d="M4 0h123c2.2076601 0 4 1.7923399 4 4v34c0 2.2076601-1.7923399 4-4 4H4c-2.2076601 0-4-1.7923399-4-4V4c0-2.2076601 1.7923399-4 4-4z"/>
        <g transform="translate(9 12.6)">
          <path fill="rgb(221,227,233)" fill-rule="evenodd" d="M3 0h67c1.65574507 0 3 1.34425493 3 3v.3c0 1.65574507-1.34425493 3-3 3H3c-1.65574507 0-3-1.34425493-3-3V3c0-1.65574507 1.34425493-3 3-3z"/>
          <path fill="rgb(175,185,197)" fill-rule="evenodd" d="M3 10.5h43c1.65574507 0 3 1.34425493 3 3v.3c0 1.65574507-1.34425493 3-3 3H3c-1.65574507 0-3-1.34425493-3-3v-.3c0-1.65574507 1.34425493-3 3-3z"/>
        </g>
        <g transform="translate(110 14)">
          <ellipse cx="7" cy="7" fill="rgb(221,227,233)" rx="7" ry="7"/>
          <ellipse cx="7" cy="7" fill="rgb(242,242,242)" rx="3" ry="3"/>
        </g>
      </g>
      <g transform="translate(0 162)">
        <path fill="rgb(255,255,255)" fill-rule="evenodd" d="M4 0h123c2.2076601 0 4 1.7923399 4 4v34c0 2.2076601-1.7923399 4-4 4H4c-2.2076601 0-4-1.7923399-4-4V4c0-2.2076601 1.7923399-4 4-4z"/>
        <g transform="translate(39 12.6)">
          <path fill="rgb(221,227,233)" fill-rule="evenodd" d="M3 0h67c1.65574507 0 3 1.34425493 3 3v.3c0 1.65574507-1.34425493 3-3 3H3c-1.65574507 0-3-1.34425493-3-3V3c0-1.65574507 1.34425493-3 3-3z"/>
          <path fill="rgb(221,227,233)" fill-rule="evenodd" d="M3 10.5h43c1.65574507 0 3 1.34425493 3 3v.3c0 1.65574507-1.34425493 3-3 3H3c-1.65574507 0-3-1.34425493-3-3v-.3c0-1.65574507 1.34425493-3 3-3z"/>
        </g>
        <ellipse cx="21" cy="21" fill="rgb(197,207,214)" rx="12" ry="12"/>
      </g>
    </g>
  </g>
  <g transform="translate(222 30)">
    <path fill="rgb(242,242,242)" fill-rule="evenodd" d="M8 0h143c4.4153202 0 8 3.5846798 8 8v286c0 4.4153202-3.5846798 8-8 8H8c-4.4153202 0-8-3.5846798-8-8V8c0-4.4153202 3.5846798-8 8-8z"/>
    <ellipse cx="79" cy="268" fill="rgb(255,255,255)" rx="15" ry="15"/>
    <g transform="translate(64 16)">
      <ellipse cx="2" cy="2" fill="rgb(255,255,255)" rx="2" ry="2"/>
      <path fill="rgb(255,255,255)" fill-rule="evenodd" d="M11 0h17c1.10383005 0 2 .89616995 2 2s-.89616995 2-2 2H11c-1.10383005 0-2-.89616995-2-2s.89616995-2 2-2z"/>
    </g>
    <g transform="translate(14 28)">
      <g>
        <path fill="rgb(255,255,255)" fill-rule="evenodd" d="M4 0h123c2.2076601 0 4 1.7923399 4 4v46c0 2.2076601-1.7923399 4-4 4H4c-2.2076601 0-4-1.7923399-4-4V4c0-2.2076601 1.7923399-4 4-4z"/>
        <g transform="translate(39 16.2)">
          <path fill="rgb(221,227,233)" fill-rule="evenodd" d="M3 0h67c1.65574507 0 3 1.34425493 3 3v2.1c0 1.65574507-1.34425493 3-3 3H3c-1.65574507 0-3-1.34425493-3-3V3c0-1.65574507 1.34425493-3 3-3z"/>
          <path fill="rgb(221,227,233)" fill-rule="evenodd" d="M3 13.5h43c1.65574507 0 3 1.34425493 3 3v2.1c0 1.65574507-1.34425493 3-3 3H3c-1.65574507 0-3-1.34425493-3-3v-2.1c0-1.65574507 1.34425493-3 3-3z"/>
        </g>
        <ellipse cx="21" cy="27" fill="rgb(197,207,214)" rx="12" ry="12"/>
      </g>
      <g transform="translate(0 62)">
        <path fill="rgb(255,255,255)" fill-rule="evenodd" d="M4 0h123c2.2076601 0 4 1.7923399 4 4v34c0 2.2076601-1.7923399 4-4 4H4c-2.2076601 0-4-1.7923399-4-4V4c0-2.2076601 1.7923399-4 4-4z"/>
        <g transform="translate(39 12.6)">
          <path fill="rgb(221,227,233)" fill-rule="evenodd" d="M3 0h67c1.65574507 0 3 1.34425493 3 3v.3c0 1.65574507-1.34425493 3-3 3H3c-1.65574507 0-3-1.34425493-3-3V3c0-1.65574507 1.34425493-3 3-3z"/>
          <path fill="rgb(221,227,233)" fill-rule="evenodd" d="M3 10.5h43c1.65574507 0 3 1.34425493 3 3v.3c0 1.65574507-1.34425493 3-3 3H3c-1.65574507 0-3-1.34425493-3-3v-.3c0-1.65574507 1.34425493-3 3-3z"/>
        </g>
        <ellipse cx="21" cy="21" fill="rgb(197,207,214)" rx="12" ry="12"/>
      </g>
      <g transform="translate(0 112)">
        <path fill="rgb(255,255,255)" fill-rule="evenodd" d="M4 0h123c2.2076601 0 4 1.7923399 4 4v34c0 2.2076601-1.7923399 4-4 4H4c-2.2076601 0-4-1.7923399-4-4V4c0-2.2076601 1.7923399-4 4-4z"/>
        <g transform="translate(39 12.6)">
          <path fill="rgb(221,227,233)" fill-rule="evenodd" d="M3 0h67c1.65574507 0 3 1.34425493 3 3v.3c0 1.65574507-1.34425493 3-3 3H3c-1.65574507 0-3-1.34425493-3-3V3c0-1.65574507 1.34425493-3 3-3z"/>
          <path fill="rgb(221,227,233)" fill-rule="evenodd" d="M3 10.5h43c1.65574507 0 3 1.34425493 3 3v.3c0 1.65574507-1.34425493 3-3 3H3c-1.65574507 0-3-1.34425493-3-3v-.3c0-1.65574507 1.34425493-3 3-3z"/>
        </g>
        <ellipse cx="21" cy="21" fill="rgb(175,185,197)" rx="12" ry="12"/>
      </g>
      <g transform="translate(0 162)">
        <path fill="rgb(255,255,255)" fill-rule="evenodd" d="M4 0h123c2.2076601 0 4 1.7923399 4 4v34c0 2.2076601-1.7923399 4-4 4H4c-2.2076601 0-4-1.7923399-4-4V4c0-2.2076601 1.7923399-4 4-4z"/>
        <g transform="translate(39 12.6)">
          <path fill="rgb(221,227,233)" fill-rule="evenodd" d="M3 0h67c1.65574507 0 3 1.34425493 3 3v.3c0 1.65574507-1.34425493 3-3 3H3c-1.65574507 0-3-1.34425493-3-3V3c0-1.65574507 1.34425493-3 3-3z"/>
          <path fill="rgb(221,227,233)" fill-rule="evenodd" d="M3 10.5h43c1.65574507 0 3 1.34425493 3 3v.3c0 1.65574507-1.34425493 3-3 3H3c-1.65574507 0-3-1.34425493-3-3v-.3c0-1.65574507 1.34425493-3 3-3z"/>
        </g>
        <ellipse cx="21" cy="21" fill="rgb(197,207,214)" rx="12" ry="12"/>
      </g>
    </g>
  </g>
  <g transform="matrix(-1 0 0 1 487 107)">
    <g transform="translate(82)">
      <path fill="rgb(249,206,168)" fill-rule="evenodd" d="M92.14334106 40.13393307c5.79481125 10.8011217 5.1062355 38.1990633-2.38304138 40.12952518-2.9867134.76986695-9.34929657-1.1159935-15.82492256-5.01914596L78 104H54l8.26227379-38.50987244c-4.60790944-5.40875053-7.72663903-12.03725052-7.2054975-19.464674 1.50155377-21.40047406 31.29175353-16.69264244 37.08656477-5.8915205z"/>
      <path fill="rgb(25,24,71)" fill-rule="evenodd" d="M63 41c13.8492508.09921646 23.48535156-.48439407 29-2-.25143433-4.6937828-5.13092804-10-18-10-14.31801605 0-22 8.34550858-22 18 0 8.8205185 5.67813873 19.56280518 10 20 1.11876297-.2447586 2.07395172-1.5911789 3.02373505-3.44698715C63.24582672 62.70963669 62 60.76359177 62 58.5c0-3.0355339 2.24042511-5.5 5-5.5 1.00228119 0 1.93608093.32509995 2.71892548.88458633C71.53517914 50.95372391 73.8116989 48.76198578 77 49l-2-6-12-1v-1z"/>
    </g>
    <g transform="translate(0 187)">
      <ellipse cx="116" cy="58.5" fill="rgb(197,207,214)" rx="77" ry="73.5" transform="translate(10 42)"/>
      <path fill="rgb(249,206,168)" fill-rule="evenodd" d="M245.71102905 96.58005905c3.71936798 13.0282135 12.98545075 37.72148132 25.7982254 66.07978821l12.175354-3.5524292c-10.65173339-65.2548027-19.51651-108.45667267-24.59436034-121.60559082-3.35498047-8.6875267-28.73686981-7.66959953-25.81691742 9.81094742 1.2244873 7.33051681 6.06922912 26.95979309 12.43769836 49.2672844zm-50.04380798-46.2188301C175.81195068 54.4748764 134.64405823 69.0168228 122.8883438 73.6635437c-7.38809967 2.92030335-2.62532806 12.8244629 3.67744446 11.9579773 4.4970169-.61823273 57.04576874-6.12722779 94.11277008-11.46196747 14.88400269-2.142128 6.87742615-30.02152634-8.57647705-27.07128525-5.1992035.99255753-10.72924805 2.09086227-16.43486023 3.27296066z"/>
      <path fill="rgb(47,54,118)" fill-rule="evenodd" d="M158 0h7.56217957s92.27653503 23.51358414 94.30647277 30.13784218c.01431275.04673004.0270691.09354019.03829956.14042854.03155518.04138184.06259156.0830326.0930481.12493897 12.1914978 16.766819 19.49295044 98.62375259 21.8894043 104.75291824l-23.36166382 3.48524475c-3.5333252-13.102211-10.13923645-24.63288116-16.7887268-36.23964691-10.168396-17.74903107-20.43872071-35.67599487-19.97952271-59.67271423-.20507813-1.16423417-.25689698-2.26831437-.17236328-3.31275177L158 7.04671764V0z"/>
      <path fill="rgb(92,99,171)" fill-rule="evenodd" d="M163.2831726 58.64047623c-5.81806945-1.16465378-11.17588805-2.2040863-15.76046752-3.00821686C117.9092865 50.43808365 109.27376556 34.5862503 114.37954712 0h54.56221008c8.91282654 2.560318 55.23228455 21.98483849 79.26486206 32.31633759 15.90602112 6.83791732 10.891922 31.48816299 1.88433838 37.90315246-.04891968.39354706-.21102905.66086578-.49969482.78050995-34.1508484 14.15433502-63.27334595 13.09823608-81.97427368 12.42007446-7.83259583-.28404236-13.83700562-.50178528-17.61698914.49208832l-5.92288208-18.68374634 19.20605469-6.58794021z"/>
      <path fill="rgb(228,228,228)" fill-rule="evenodd" d="M129.0524207 72.6964136c.0236722-1.17065138-.95888987-2.11116523-2.12738774-2.03634734 0 0-4.34700895.27833512-6.77818378 1.46409712-2.43117484 1.185762-6.70029901 4.27067495-6.70029901 4.27067495l24.72490684 50.69362288s7.49642035-1.21016238 5.94084974-5.72158434c-1.55557062-4.51142196-2.50925897-7.53211638-2.50925897-7.53211638l-.98788277-28.6850562c-.01939093-.56305262-.4998584-.99895215-1.06213534-.96361214l-4.41259264.27733856s-3.7611301-3.04433227-4.96293858-5.5084073c-1.20180849-2.46407505-1.12507774-6.25860982-1.12507774-6.25860982z"/>
      <path fill="rgb(228,228,228)" fill-rule="evenodd" d="M268.4182776 156.35225237c-1.0417975-.5344558-2.31785241-.06362848-2.76284187 1.01940863 0 0-1.65543573 4.02908051-1.65543573 6.73400982C264 166.81060014 264.90124261 172 264.90124261 172h56.4018122s2.19852474-7.26823912-2.53823196-7.84777684c-4.7367567-.57953773-7.8698085-1.04655234-7.8698085-1.04655234l-26.2150217-11.68678736c-.51456887-.22939737-1.11697575.0113584-1.33169813.5322217l-1.68508143 4.08758988s-4.38499781 2.04593567-7.12653195 2.04593567c-2.74153414 0-6.11840355-1.73237834-6.11840355-1.73237834z"/>
    </g>
    <g transform="translate(22 82)">
      <path fill="rgb(249,206,168)" fill-rule="evenodd" d="M6.8242693 155.20285034c7.98829555-3.97201538 19.71695804-11.24031067 21.5401411-13.91906738 3.72934723-5.47943115 25.30272865-63.74786377 25.30272865-63.74786377l17.71178437 2.57221985s-28.51804352 61.87428284-30.57772065 65.44541931c-2.67558288 4.6389923-.30898285 12.25801086 1.295784 17.42436218.24826813.79924011.47829437 1.53979492.66860199 2.20152283-3.37097168.97343445-4.65338135-.95603943-6.00537872-2.99021912-1.5270443-2.29754638-3.14286232-4.72865295-7.95711136-3.26142883-1.85998535.56686401-3.6469841 1.29496765-5.39286804 2.00630188-6.03061104 2.45713806-11.570673 4.71440125-17.93378544-.56382751-1.00878859-.836792-1.85856843-3.5730896 1.3478241-5.16741944zM190.35887336 88.6100235l30.18663025 25.59165192c8.46754455 2.93228912 15.4753418 6.33389282 21.02340698 10.20483398 1.2806549 1.3420105 2.75727844 3.98168945-2.88482666 3.14880371-5.6421051-.832901-11.61419678-1.45523071-12.5322113.42487335-.40197754.82326508-.00076294 1.7757187.4291687 2.7963028.55187988 1.3100891 1.15103149 2.73240661.15904235 4.1376648-1.17651367 1.66664123-5.85462951-3.0458069-14.0343933-14.13737489l-30.59698487-15.27013397 8.25016785-16.8966217z"/>
      <path fill="rgb(232,118,19)" fill-rule="evenodd" d="M127.6949954 5.33202858l10.97493636-3.62939221c14.88754145 37.19023143 37.0905734 73.17368846 74.18720244 103.56755203l-9.17353002 15.82659214c-32.60266862-19.2051257-63.46507532-34.12400926-75.98861043-62.94208946-4.20322213-9.67209269-.34294615-41.25772241.00000165-52.8226625z"/>
      <path fill="rgb(50,51,55)" fill-rule="evenodd" d="M90 110s47.15748912 5 74.23623368 0c2.23658324-.41297765 2.58943343-4.15761166 1.5522207-6.69903417-16.15210168-39.5765631-27.22815252-74.10933927-27.22815252-101.5983285C134.11474082 3.94386364 123 2.37438889 123 2.37438889 103.08620167 30.70267617 93.93253778 63.20614466 90 110z"/>
      <path fill="rgb(255,155,33)" fill-rule="evenodd" d="M117.29317093 0c.51400757-.34637004.78544617-.5186758.78544617-.5186758L118.0493965 0h8.2990265c1.93234252 11.36487103 8.0270996 165.26258945 26.84217834 215.60597324H51.38531875c2.14802933-44.88418579 18.69633866-98.5592575 35.83890916-144.13565063-12.64977265 12.5854721-27.42295456 33.68260193-39.36236954 68.80236816l-19.06923676-4.89505005C48.22592163 51.63823414 105.16194534 8.45168495 116.20959854.74382352c.1078949-.24927627.21522522-.49722104.32199097-.74382352h.76158142z"/>
    </g>
  </g>
  <g opacity=".5" transform="translate(34 116)">
    <path fill="rgb(105,161,172)" fill-rule="evenodd" d="M112.44430372 70.30868833c2.65133012-3.78026938 7.57144006-13.38091259 11.30313757-14.73171632 2.4035582-.87004248 1.70276674 8.12988043 1.73244922 9.8459683.1155923 6.63927356-.53079947 13.23644898-1.32904124 19.81997986-1.43811156 11.87337104-6.1406106 22.44751047-12.59043657 32.5529708-3.31894366 5.19987433-7.21180131 10.4627994-12.60359132 13.70727179-2.4818461 1.49414518-5.4681303 1.74431462-7.91910918 3.0316422-2.85452265 1.4986175-1.29995523.28714264-2.5863914 3.26153824-1.78648888 4.1295506-2.35790989 9.45711108-3.18449021 13.8634884-3.79525164 20.22766651-12.98348474 127.15638648-11.39059745 147.73178967.14147388 1.82371334-2.4015975 2.25982588-2.52854905.03345332-.67476959-11.80485151 5.16416554-93.55326656 8.1100073-120.28734897 2.94584176-26.7340824 5.92689911-50.35230696 8.91599981-59.60146248 3.62622453-11.22119134 10.1753937-24.71554038 15.6271197-35.17978704 2.53228568-4.86145275 5.29252702-9.55543123 8.44349282-14.04778777z"/>
    <path fill="rgb(193,222,226)" fill-rule="evenodd" d="M132.1234007 201.42759206c6.89912415-5.06478866 14.3669078 4.49397797 8.12391126 9.5595453-3.45127654 2.79993827-7.05938457 1.80392383-9.09065112-.52941306-1.31861593 1.6072371-2.5527959 3.2877593-3.73868244 4.70721666-3.6130934 4.32535594-7.02801285 8.7539486-10.29168607 13.28580239-6.77977675 9.4148155-12.589923 19.36136705-18.66484442 29.12603805-5.99515298 9.63719894-11.94236832 19.32375888-17.37629438 29.20512436-4.6033067 8.37191272-10.73892972 18.22079625-12.31495854 27.3988852 2.39125366-19.46513829 11.46497775-38.1745824 22.2702005-55.33459316 10.7173001-17.01904206 23.01664716-35.60572544 39.61100392-49.03678118-1.68889936-2.48350488-1.73578345-6.028519 1.47200128-8.38182456z"/>
    <path fill="rgb(105,161,172)" fill-rule="evenodd" d="M1.2070725 153.95538103c3.86074868.75499516 10.16916848 9.48813793 13.35157666 12.8155333 3.78207822 3.95414279 7.21336181 8.16869603 10.44775037 12.58449946 6.9629763 9.5048339 13.19013478 19.61044544 18.48533773 30.14882881 8.63256725 17.17967328 15.54837616 34.81520318 20.56747457 53.52290518 3.07237216 11.45166055 5.06160595 23.32086126 6.24053298 35.10717582.22264537 2.22282841 2.55325472 19.36041381-.80501067 19.82231895-3.02040563.41591679-2.08751508-13.01292017-2.23322783-14.8395727-1.647124-20.60805822-6.58144064-40.65952576-13.44502989-60.0836527-1.49498812-4.23136208-2.88388495-9.41402472-5.2747237-13.22184207-1.72173886-2.74271034-.01234711-1.78623885-3.03807674-2.82422229-2.59807106-.89180735-5.5582033-.67388873-8.21868687-1.76553508-5.77963765-2.37006322-10.4074694-6.97106192-14.46408071-11.5991255-7.88341768-8.99423565-14.13062518-18.72459123-17.3870305-30.24937656-1.80642856-6.39011667-3.46644418-12.81740345-4.38765092-19.40511618-.23830015-1.70273024-2.32583355-10.49910513.16084553-10.01281844z"/>
    <path fill="rgb(137,197,204)" fill-rule="evenodd" d="M16.44261479 8.65324044c14.5426407 25.21924137 26.49318709 52.92191681 34.20974104 80.98053741 4.67531068 17.00041435 7.94489579 34.44533742 11.1934889 51.76424491 5.02986055 26.8161687 9.78753164 53.6302685 11.1408638 80.92277244 1.361539 27.45067114 4.05389046 59.11179531-4.93523506 85.55114454 4.49011325-26.84312307.21522064-55.41553758-.54168931-82.42525505-.3617091-12.89400156-1.40987492-25.66194244-2.78487246-38.48059808-1.3342982-12.43478508-3.51416395-24.81035807-5.54411016-37.14740572-.9888244-6.00836521-2.02731282-12.00769012-3.08463821-18.00373356-.3156479-1.78892683-.44898428-7.0972972-1.58383513-8.31939202-1.14220066-1.23014156-6.96985932-1.7316284-8.79947422-2.63423276-3.68421593-1.81795571-7.14971825-4.40022985-10.21677786-7.12873327-5.8795934-5.23047202-10.9945437-12.06471922-15.03167177-18.801733C11.12353718 79.34246633 7.38906305 60.3189544 7.57781848 42.26561546c.03626692-3.50514267 5.673629-41.24992112 3.40957371-41.76969794.13631533-.1596372.2652592-.32446742.38684246-.49591751 1.71408386 2.86976048 3.39609673 5.75896895 5.06838014 8.65324044z"/>
    <path fill="rgb(137,197,204)" fill-rule="evenodd" d="M173.40572615 99.60874072c.22438769-.32363337 1.68479687-2.57440674.94938056-2.43056155 1.49733411-.292874-2.05948848 2.48236354 1.67135569.77949046-1.77143073 1.67291223-.74908111 3.84605148-.72543725 6.0976079.03857447 3.65552746-.57308252 7.28107876-1.26160698 10.85817268-1.08797612 5.65429367-2.70876734 11.15191967-5.06131607 16.41109206-5.1274534 11.46093282-13.83413198 22.49417496-24.17057757 29.65946677-5.10281716 3.53779223-10.10380513 4.74227985-15.92357118 6.37094584-3.6760107 1.02893493-3.9675241 2.9303774-5.91875944 6.49734085-4.06232535 7.42922188-8.05230497 14.8317204-11.63491538 22.51160502-4.27787446 9.17059063-8.4306588 18.35128908-12.3479397 27.68331606-13.19661713 31.4344362-23.93743935 64.00098236-29.57819098 97.70419562-.1381093-19.86120056 4.4567035-40.3165384 10.25261543-59.24756608 4.22197319-13.79271715 9.71818932-27.08847925 15.58044066-40.24964353 1.4205421-3.18844676 3.5732448-7.28987032 4.17650292-10.81005359.42240151-2.46641501-.86900465-4.83838275-1.46028192-7.43656013-2.30512554-10.1177833-2.1401401-21.45296172-.11589711-31.62484403 2.23188317-11.21643067 8.68638608-16.42235674 19.6050114-18.01109169 3.9931598-.58114307 9.06856882-.36815029 12.73009967-2.07066729 3.98918302-1.85398541 5.63478117-7.94801175 7.90317664-11.85989777 6.09283318-10.50815192 13.3320009-20.58611141 21.644565-29.44010113 2.30167003-2.45178243 4.77690202-4.71371798 7.40284646-6.81025471 1.65591896-1.32279818 5.15400063-2.95248356 6.28249915-4.58199176z"/>
    <path fill="rgb(193,222,226)" fill-rule="evenodd" d="M48.16394703 306.03084056c-.44528209-3.01921534 1.894619-5.7295223 4.94649342-5.7295223h34.47410517c3.05187442 0 5.39177551 2.71030696 4.94649343 5.7295223l-1.75316374 11.88724862C89.33070526 327.73056122 80.91051585 335 70.99190161 335h-1.28881714c-9.91861425 0-18.33880366-7.26943878-19.7859737-17.08191082l-1.75316374-11.88724862z"/>
  </g>
</svg>
