<svg xmlns="http://www.w3.org/2000/svg" width="470" height="470" viewBox="0 0 470 470">
  <path fill="rgb(242,242,242)" fill-rule="evenodd" d="M45.78290504 228.34883798c48.83383248-64.34561495 114.67605305 26.38705896 185.19516397 38.49242654 70.51911092 12.10536758 196.98650606-48.11592633 214.24115584 27.11237234 17.25464978 75.22829867-99.48902948 165.59387656-219.29927606 132.02427154C106.10970221 392.4083034-3.05092745 292.69445292 45.78290504 228.34883798z"/>
  <g transform="translate(318.8385362 53.8685613)">
    <ellipse cx="36.714" cy="36.646" fill="rgb(242,242,242)" rx="36.714" ry="36.646"/>
    <ellipse cx="36.714" cy="7.606" fill="rgb(0,0,0)" fill-opacity=".1" rx="2.078" ry="2.074"/>
    <ellipse cx="7.62" cy="36.646" fill="rgb(0,0,0)" fill-opacity=".1" rx="2.078" ry="2.074"/>
    <ellipse cx="65.807" cy="36.646" fill="rgb(0,0,0)" fill-opacity=".1" rx="2.078" ry="2.074"/>
    <ellipse cx="36.714" cy="65.686" fill="rgb(0,0,0)" fill-opacity=".1" rx="2.078" ry="2.074"/>
    <path fill="rgb(175,185,197)" fill-rule="evenodd" d="M36.71354167 11.75428571l1.38541666 24.2H35.328125l1.38541667-24.2z"/>
    <path fill="rgb(175,185,197)" fill-rule="evenodd" d="M48.9625655 48.8829573L36.24900508 38.12865215l1.9592767-1.9592734L48.9625655 48.8829573z"/>
    <ellipse cx="36.714" cy="36.646" fill="rgb(197,207,214)" rx="2.771" ry="2.766"/>
  </g>
  <g transform="translate(332 132)">
    <path fill="none" stroke="rgb(203,203,203)" stroke-width="8" d="M60 28.41556675l1.85989493-3.43284521c3.02613068-5.58538981 11.04179054-5.58538981 14.06792122 0l12.97864674 23.9549474c1.26800011 2.34037314 1.93207878 4.9601169 1.93207878 7.6219153v222.30898719"/>
    <path fill="rgb(175,185,197)" fill-rule="evenodd" d="M63.83854167 277.86857143h53c1.65574507 0 3 1.34425493 3 3v1c0 1.65574507-1.34425493 3-3 3h-53c-1.65574508 0-3-1.34425493-3-3v-1c0-1.65574507 1.34425492-3 3-3z"/>
    <g transform="rotate(45.000016 23.18808416 59.39517696)">
      <path fill="rgb(197,207,214)" fill-rule="evenodd" d="M33.03031192 1.38390164c18.2131958 0 33 14.7868042 33 33v28h-66v-28c0-18.2131958 14.7868042-33 33-33z"/>
      <ellipse cx="33.209" cy="61.445" fill="rgb(242,242,242)" rx="33" ry="6.5"/>
    </g>
  </g>
  <g opacity=".5">
    <path fill="rgb(193,222,226)" fill-rule="evenodd" d="M229.11846433 90.85370818c-6.83052143.0990924-23.69790235 1.96436097-26.20568869 8.03072308-1.90351768 4.60488179 3.7506084 3.59382144 6.78123711 1.91825915 4.09988425-2.26587739 7.69478275-3.62190644 12.77463933-4.31131395 19.35088222-2.62780308 37.9439287 6.79551255 57.10910189 7.9872708 7.25979502.45147978 16.02097624.74557752 22.95220911-1.01953885 4.9362892-1.25693666 5.58055673-3.99760969-.05285565-4.4151755-4.78629343-.354507-10.08257247.76306442-14.98957679.73127007-20.305141-.13035684-38.35463139-9.20817386-58.3690663-8.9214948"/>
  </g>
  <g opacity=".5" transform="translate(153 154)">
    <path fill="rgb(137,197,204)" fill-rule="evenodd" d="M89.17525482 14.8777253c.0066452.43978882.01288605.8535328.0222931 1.23389817.20531463 8.30437374.08620452 17.03458881-.58860017 25.3195238-.23266601 2.8605423-2.3136444 6.4862137-4.68754577 2.54301453-1.0438385-1.7338295-.8976059-5.29435348-.79003144-7.91358184.02883912-.70216752.0548935-1.33668519.0545044-1.85022736-.00219727-2.92243576.15133667-5.87477112.3052826-8.83504677.30096435-5.78732109.60350036-11.60499096-.2529068-17.28894377-.01734162-.11504459-.03381348-.22570753-.04966737-.33215093-.37213134-2.49954653-.3978424-2.67224169-3.14642334-2.61541414-2.27285766.04721307-4.54571533.1226611-6.818573.17033672-4.628685.09720278-9.2592163.1606164-13.88603973.3300271-.58582306.02160645-1.67827987.15863085-3.05692673.33155108-2.75621414.34570598-6.65629196.83488416-9.93878173.83210754.00231933.03934383.0064888.07868815.00741577.118958.03682709 1.81196499-.42985916 3.83464527-.89870072 5.8666668-.39264297 1.70175551-.78679275 3.41006278-.8879776 5.00664233-.24075698 3.79914856-.24337005 7.6383915-.24598312 11.47766495-.00318146 4.67489052-.00636673 9.34982872-.43948746 13.95248222-.02109146.22441483-.03380584.46159363-.04666519.70158768-.00170898.03186798-.00342178.06378937-.00515365.09573364.14839935-.02262497.29301834-.03857422.43195724-.04737472 2.36546707-.15005875 4.75095749-.16341019 7.13264465-.17673874 1.31370163-.00735474 2.6262474-.01470184 3.93363572-.0449791 2.3475914-.0544014 4.72405624-.05184936 7.1100769-.04928589 5.26724243.00566102 10.58102417.01137162 15.73345184-.59549331 1.52157593-.1971817 2.05363465 1.75474548 1.37094116 2.76658249-.76611328 1.13588714-3.21787261 1.07802581-4.3529129 1.24604797-3.32308197.49203491-6.69019317.66375732-10.04293823.81233978-3.52144623.1559906-7.04567719.2726326-10.56943893.37076187-.83845139.02314377-1.95772553.13628006-3.19878388.26172638-3.27637863.33117295-7.40154266.74814225-9.44932175-.17840957-2.2002182-.99547577-2.14889907-2.10084534-1.25085449-2.95722962-.3940239-.86603546-.45591736-2.13168335-.50432205-3.12147522-.0184822-.37793731-.03499603-.71565246-.06728363-.97554779-.48849869-3.94134903-.78280258-7.83224487-.78975296-11.80738258-.01390457-7.78642082.00185394-15.87324524 2.1556015-23.41017866-.86251831-.3777032-1.3829956-.93453741-1.38068008-1.73715592C40.09713745.3351275 52.682518.5408808 58.66503143.63868654c1.0696907.01748794 1.9282837.03152472 2.46614838.01720208 4.35800934-.11386633 8.71694946-.1286782 13.07588196-.10507179.9211502.00488472 1.9461441-.05536517 3.0081787-.11779195 2.2589798-.13278427 4.68551637-.27541747 6.63664246.17796523 5.12597657 1.18998348 5.24920655 9.35361397 5.3233719 14.2667352z"/>
    <path fill="rgb(137,197,204)" fill-rule="evenodd" d="M121.23479462 1.4972961c4.75891113-.2518021 9.52106475-.30966092 14.2860031-.32725013 5.04534913-.02545786 10.097641.06526494 15.14065553.22032678l.11656189.0035236c2.2344513.0671147 14.65431213.44016313 8.9484558 3.53512727-.33288573.1805768-.70758056.3314538-1.11639404.45669413.24169922 1.43311167.27102662 2.91276598.23213196 3.62555265-.24702453 4.53521252-.35316467 9.0787592-.5547638 13.61628628-.22431945 5.06473732-.43844604 10.12901306-.61271667 15.196064-.02153015.62179565.0113678 1.43487167.04801941 2.34110641l.00003052.00088501c.1212616 2.9976387.28373718 7.01409912-1.34390259 8.49892044-1.42860412 1.30366898-2.40480041 1.04242707-3.0626068.1569786-4.0881653 1.1871605-12.48385621.80116273-16.70565797.6070633-1.01716614-.04676437-1.79205322-.08238983-2.20602417-.08219146-.7400055.00027084-2.11515808.0926361-3.85186767.20928573-7.2292099.48557282-20.7233429 1.3919487-20.75099183-2.17185974-.00266265-.3428688.10875702-.65021515.31821442-.92546844-.57268524-.58435822-1.0881195-1.44249344-1.41909027-2.5131569-1.18787384-3.84368133-1.30003357-7.99147033-1.38809967-11.97725486-.1242752-5.62818337-.12564087-11.2628994-.12700653-16.89638138-.0007019-2.89325047-.00141144-5.78617478-.01876068-8.6777215-.77272797-1.0378151-.31388092-2.22476912.65034485-3.05291367 2.05274963-1.76196801 7.14822387-1.7832545 10.83442688-1.7986536.99199676-.00414407 1.88192749-.00786185 2.58303833-.04496253zm-7.74388123 43.39781582c4.58694458-.97943878 12.31583405-.66418839 16.4565506-.49529267 1.0845337.04423523 1.9229126.07843018 2.39421081.0766945 4.22917176-.0166626 8.45973206.04212188 12.6856537.211071.43783568.0174904 1.0861206.00114823 1.8500061-.01810836 1.53416442-.0386734 3.53466796-.0891037 5.2334137.0991745-.02275086-.23031235-.03807069-.44082642-.04725648-.62266922-.19033813-3.76154709-.05285644-7.5555191.0838623-11.32843018.02905274-.80200576.05809022-1.60305977.08392335-2.40264892.1478424-4.59723854.3744812-9.19077301.55152893-13.78708554.03004455-.7790947-.0146637-1.83739662-.06497193-3.02803897-.10232544-2.42235947-.22779846-5.39229107.2059021-7.6733656-1.5644989-.02973604-3.16778564-.14062023-4.6382904-.24232053-1.41694641-.09799672-2.71060181-.18746663-3.72743225-.18758822-1.28993225-.00012255-2.57965088-.0040865-3.86924744-.00804996-3.57322693-.01098252-7.14556885-.02196217-10.71940613.04878282-5.25297546.104146-10.56249237.16570807-15.77838898.85862637-.28590393.03803396-.62943267.11137819-1.00951385.20030689.53455353 2.23562956.27259827 5.38641596.04316711 8.1459155-.11143493 1.34030057-.2151947 2.588295-.2162857 3.59428407-.0070572 6.25578117.1581192 12.48695373.323143 18.71219635.06242371 2.35482406.12482453 4.70875549.1778717 7.06278991.0063324.28100586-.00022887.54206085-.01844024.78375626z"/>
    <path fill="rgb(193,222,226)" fill-rule="evenodd" d="M61.28407785 48.12343168c-3.12749771 1.82695297-1.44092922 9.13522773-.35733561 11.66296782 1.78111644 4.1561213 5.39525799 7.40825496 9.29489726 9.56569802 7.88223972 4.36024753 19.24421461 3.20214357 25.20536986 10.76175743.06164155.07822525 2.1222306 2.11809901 2.59126256-.52350743.38514383-2.1680891-3.46165982-5.47900742-4.95218037-6.5658292-4.23889954-3.09012872-9.67540639-4.0866906-14.5784589-5.63036634-5.22887215-1.64643317-10.96709818-4.6814802-13.15931279-10.0720792-.77631278-1.90934407.70354795-11.98558912-4.044242-9.1986411"/>
    <path fill="rgb(193,222,226)" fill-rule="evenodd" d="M132.77956553 51.63699505c-2.86610046.79012129-.97050685 4.73378465-.97514156 6.70839356-.00556164 2.463401-.79299771 5.04159406-2.31132648 7.00740842-3.85004795 4.98558663-11.38885617 5.7326609-17.04087671 7.16200743-4.10402968 1.03868316-13.92311188 3.26555693-14.30732877 8.81584653-.42917352 6.1983094 8.23957534-1.34464109 8.97185845-1.6538391 8.10238812-2.97209654 18.58469634-3.54605694 24.83830137-10.08827971 2.58152968-2.7003911 4.10727397-6.3047698 4.34966895-10.02486634.13672374-2.09449257.15989726-8.93341584-3.52515525-7.92667079"/>
    <path fill="rgb(137,197,204)" fill-rule="evenodd" d="M73.56103516 106.61569214c-.06674195-11.4681015 10.90823364-18.40515137 20.83252716-21.01482391 11.92879486-3.14243317 23.04003143 5.2156372 24.44620514 17.23918151 1.48403167 12.68869019-8.079216 22.90380097-20.69116974 23.46387482-11.09409333.49249268-24.51665497-7.45084381-24.58756256-19.68823242zm26.64630127-15.50063324c.64514923.87714386 1.2272644 2.2768631-.07276917 3.03921509-1.25006103.72859192-1.87460327-.14743042-2.50306702-1.02894593-.39722442-.5571823-.7960205-1.11655426-1.35532379-1.27430725-1.45019531-.4082489-3.7805252 1.11691284-4.98832702 2.00608826-.49027253.3610611-1.18801117 1.1381836-2.00362397 2.04659271-2.59618377 2.89156342-6.38668823 7.11334229-8.48193359 3.48055268-8.35590363 14.42908477 12.47615814 25.22740936 24.3219986 19.76691436 13.01007843-5.99695587 10.47766876-27.92178344-4.91695404-28.03610992z"/>
    <path fill="rgb(137,197,204)" fill-rule="evenodd" d="M89.28894749 102.77658861c0 2.63234901 4.1568653 2.63234901 4.1568653 0 0-2.60226237-4.1568653-2.71381435-4.1568653 0"/>
    <path fill="rgb(137,197,204)" fill-rule="evenodd" d="M96.60264817 102.28256609c0 3.22436139 5.09446576 3.22436139 5.09446576 0 0-3.18779456-5.09446576-3.32387871-5.09446576 0"/>
    <path fill="rgb(137,197,204)" fill-rule="evenodd" d="M91.36890959 109.79607797c-4.1661347 2.4504406 7.74783333 7.31938366 8.2182557 2.3439802.203-2.14679703-1.87612785-1.56774505-3.2619041-1.72558416-1.32598859-.15135891-3.69849315-1.35065842-4.9563516-.61839604"/>
    <path fill="rgb(193,222,226)" fill-rule="evenodd" d="M89.56188516 127.18129208c.1812169 6.25894554.09408447 12.51418812 1.28103196 18.68611386.22571005 1.1719901.38236302 5.42392574 1.30884019 6.29458663 2.27888356 2.14216832 2.31642465-1.9635 2.40494748-3.5367995.31608676-5.63545792-.27530137-11.44634406-.406-17.09337376-.02827168-1.2155.29384019-3.73305693-.27993607-4.90967575-.9102557-1.86768564-4.3974064-2.42220544-4.30888356.55914852"/>
    <path fill="rgb(193,222,226)" fill-rule="evenodd" d="M85.1061742 122.10646386c-9.13314612 10.25074753-21.70987671 9.49580446-34.38022831 10.39331188-6.6943653.47444307-13.46334931 1.44832426-18.85026484 5.77848515-2.50552055 2.01441584-4.6657557 4.53752723-6.11734475 7.41288366-.63449087 1.25715842-3.64426712 8.51035149.8759589 6.78939604 1.60314384-.61006435 3.18126028-5.4067995 4.21804338-6.8255 1.97484704-2.70224257 4.50168722-4.9328193 7.5327831-6.38299505 5.84714156-2.79713118 12.82885846-2.74945544 19.16866896-3.10447772 6.6271621-.3707599 13.74050457-.7174505 19.83235845-3.59928713 2.86563698-1.35575 5.5542283-3.0466188 7.86045662-5.22535396.82405023-.77901237 2.59126255-2.10189851 2.72288813-3.29286633.15062785-1.36130446-1.15774886-3.85340347-2.86331964-1.94359654"/>
    <path fill="rgb(137,197,204)" fill-rule="evenodd" d="M38.99996142 153.56949158c-8.5792991.28651733-17.14747489.6336708-25.71472375 1.17615594-1.75562557.11108911-7.6092557-.2434703-6.11827169 3.35396535 1.19482649 2.88368812 8.33365982.97619555 10.6950411.83640842 8.9273653-.52998763 17.89134475-.7142104 26.79970776-1.51729208 2.00126484-.18005693 11.04681507-.10831188 7.31170776-3.65483169-1.7769452-1.68809158-10.5184589-.27818564-12.97346118-.19440594"/>
    <path fill="rgb(137,197,204)" fill-rule="evenodd" d="M1.71956758 157.70732946C-.98478174 161.25894084.25778219 169.89102748.4621726 174.16055223c.19790183 4.13760643-.6057557 11.70277475 4.79506393 12.34431435-1.71484018-.22495544 1.30188813.10414604 1.7927032.1305297 1.09657077.05878466 2.19823972.07776238 3.2962009.08979704 2.53657307.02777227 5.07453654-.00601733 7.61064613-.05693317 5.74517808-.11479208 11.50518721-.28188862 17.24294977-.59941832 2.41189954-.1337698 15.49613014-.02221782 16.01428995-2.5277401.66183562-3.20168069-11.883379-1.39046534-14.12889269-1.28817079-5.46941324.25087624-10.94716895.30364356-16.4212169.37538861-2.71315525.0356411-5.42909132.06248763-8.14224657.00925743-1.12020776-.02175495-5.55700913.4383391-6.23784703-.30919802-.58072831-.63644802-.12745434-6.48621535-.13996804-7.38094554-.03985845-2.91701486-.03661415-5.84097278.0672032-8.75659901.06998402-1.96303713 1.13133105-5.69794555.26649543-7.54202476-.84119863-1.7927005-3.29295662-2.40461633-4.7579863-.9414802"/>
    <path fill="rgb(137,197,204)" fill-rule="evenodd" d="M45.89496301 157.87322252c.15665297 6.49732426.20531736 13.12610397 1.73986758 19.480401.5107443 2.1148589 1.22634247 6.4755693 3.35089041 7.5702599 2.22975571 1.1493094 4.15501142-.49110644 4.3005411-2.7003911.18353425-2.77769059-1.303742-6.42419059-1.60870548-9.2740891-.35640867-3.32526733-.5635799-6.65377475-.6854726-9.99524258-.0922306-2.51292821.6715685-6.2807005-1.7241096-7.90121287-2.15189268-1.4557302-5.44299542.01018317-5.3730114 2.82027475"/>
    <path fill="rgb(137,197,204)" fill-rule="evenodd" d="M62.96805091 156.28677748c-2.66819863 2.65780693-1.4756895 11.07280693-1.14199086 14.48787128.24424885 2.50135644 2.98196803 14.80586386 7.08414383 8.38954208 1.8144863-2.83832673-.49081507-10.34332178-.4745936-13.65285148.01065981-2.10791585.75684703-4.77312872.39673059-6.7981906-.47598402-2.67632178-3.44404795-4.84348515-5.86428996-2.42637128"/>
    <path fill="rgb(137,197,204)" fill-rule="evenodd" d="M81.44276428 154.09295654c8.014328-.82669067 16.03839112-1.44694519 24.09675598-1.52377319.38693238-.00302124.79343415-.00817871 1.21620942-.0135498 5.52331542-.07006836 13.82331085-.17536927 17.5399704 3.97201538 2.40309142 2.68095398 3.24613952 7.0976715 4.18374633 10.44284057.12594605.4493103.28961182.96173096.46652222 1.51564026.83476257 2.6135559 1.9644928 6.1506958.81913757 8.34028626-.62799072 1.20068359-1.63929748 2.22454834-3.17384338 1.79917907-.35855866-.09934997-.63962555-.22644043-.85980225-.37643432.58805084.63626098.84838867 1.5423584.46659851 2.42913818-.73834991 1.71398926-3.06965637 1.75038147-4.9072647 1.77908325-.44515992.00694275-.8613434.013443-1.21889497.04322815-6.11872863.51008606-12.26573944.85029602-18.40625763.9039917-2.92351532.0257721-5.84747314.00187683-8.77138519-.0220337-3.00978851-.02459716-6.01951599-.04920959-9.028656-.0196228-2.18442536.02148438-4.40905.22912598-6.63437653.43684388-2.80966187.26226807-5.62044525.52462768-8.3528595.41252136-2.04437256-.08424377-4.2273178-.7535553-3.70915222-3.39561462.45929718-2.34397888 2.81789398-2.36250305 4.7408371-2.55828858 5.79244995-.58970642 11.58815002-.79846191 17.41026306-.77763366 12.23097992.04258728 24.45222473-.02082825 36.68274689-.08470154.5027008.04141235.97628784.23358154 1.36629486.52641296-.44043732-.53451538-.43190766-1.24617004-.42281342-2.00396728.00411225-.34291077.00833893-.69526673-.02886963-1.0449524-.32164764-3.0258026-.52881622-5.9997406-1.10259246-9.02507019-.45883942-2.41989135-.80458832-6.53018188-3.04639435-8.05256652-1.92781067-1.3089447-5.70772553-1.24610901-8.6540451-1.1971283-.79508973.01322937-1.52947236.0254364-2.15037537.00939941-7.86138153-.20274353-15.76772309.35548401-23.59341431 1.0669098-3.56872559.32447814-7.18147278.57165527-10.70987701 1.212265-.5367508.09762574-1.35713196.3838501-2.29810334.71215821-2.50325012.87336731-5.85993194 2.04449463-7.00050354.75468445-3.77867126-4.2736969 12.82608032-6.02844238 15.08039856-6.26126099z"/>
    <path fill="rgb(193,222,226)" fill-rule="evenodd" d="M118.90892029 130.441391c-2.29464722-1.29835511-11.30358124-9.69345857-6.43621826-12.55446626 2.42697906-1.41991424 3.50286102.68534089 4.41947174 2.47895813.22361755.43756104.43774414.85657502.65970611 1.2013321 1.8158722 2.82073974 4.05490113 4.29452514 7.20510865 5.20822906 5.72895813 1.66170502 11.72950744 2.36249542 17.60353088 3.30536652 6.3170929 1.01322937 13.3011322 1.74409485 19.2094574 4.35423278 2.59913635 1.1479187 14.39445495 11.82589722 10.01698303 14.3703003-1.68943787.98191833-3.50759888-2.0219574-4.6994629-3.99111939-.34196471-.56497192-.63235473-1.04475403-.85337829-1.32080078-1.95677185-2.44395447-3.85562134-4.03392029-6.8445282-5.05316162-7.01322937-2.39164734-14.95573425-2.77444458-22.25352478-3.81498718-5.76651-.82159424-12.86270141-1.26223755-18.02714538-4.18388367z"/>
    <path fill="rgb(137,197,204)" fill-rule="evenodd" d="M187.09106445 150.68139648c-8.7600708.19441224-17.4946289 1.13728333-26.2384491 1.65986634-3.7457733.22402954-7.51193237.36427307-11.24658202.74151611-2.27267457.22947693-6.5018158.38676453-9.00132752 1.43338013-1.8690033-1.41366577-4.75341797-.21182251-4.7985382 2.30792236-.07693482 4.59030151-.03475953 9.09866333.5251007 13.66072083.1298523 1.05889892.79911804 6.4205017 2.25483704 9.21122741-.51780701 2.63560486 1.7288971 3.37438965 3.8201599 3.57632447 8.09925843.78175354 16.59274293.1749115 24.97119142-.42372132 4.26168823-.30448913 8.49362182-.6068573 12.62876892-.7232666 1.37509155-.03886413 2.76774597-.05448913 4.16871643-.07019043 4.57174682-.05126953 9.23188781-.10353088 13.65820312-.96803284 1.73893738-.33927917 4.71116638-.63182067 4.91557312-2.77722168.11050415-1.15576171-.54161072-2.21380615-1.63301086-2.36245727.07499695-.96342468-.04606629-2.01399231-.13508606-2.78656006-.02070618-.17971802-.03967285-.34437561-.05404663-.4894104-.32489014-3.28083801-1.25276184-6.53482056-2.02954102-9.73280334-.71513367-2.94477845-1.19065857-8.41036988-3.5775299-10.6136322-1.9505005-1.80026246-5.12564087-1.72067261-7.66946412-1.65690613-.19010925.004776-.37669372.00944519-.55897522.01324462zm9.87467957 25.5532074c-1.08265686-2.83485412-.9188385-7.29740906-1.4960785-10.23309326-.57330322-2.91468811-.79113769-6.37141418-1.96325683-9.10884094-1.11218262-2.59655762-2.10212707-2.4972992-4.4442749-2.26246643-.43560791.04368591-.91798401.09204101-1.45663452.12863159-3.5321045.23977661-7.05957031.57673645-10.58796692.86695862-7.75617981.63783264-15.5188446 1.04145813-23.28057861 1.58209228-4.02583313.28025818-7.87786866 1.42959595-11.81521607 1.8802948-.0251007.59501648-.0750885 1.19233704-.12269592 1.7611847-.0648346.77464294-.12524414 1.49649047-.11236572 2.0878601.06581115 3.02487183.3638153 6.02844238.62660217 9.040802.0419464.48112488.14544678 1.09942627.26023865 1.78526307.17750549 1.06048584.3820343 2.28240966.42784118 3.40821838.211792-.0016632.42243958-.00090027.629776-.00015259.26828003.00097656.53097535.00193787.78335572-.00242615 6.16877746-.10784912 12.33294677-.29484558 18.49755859-.53182983 6.28697205-.24116516 12.5739441-.51054382 18.8655548-.58276367 2.18719483-.02487183 4.40286256.04368591 6.6250763.11242676 2.85910035.0884552 5.72901917.17723083 8.56306458.06784057z"/>
  </g>
  <g transform="translate(-30 44)">
    <g transform="translate(82)">
      <path fill="rgb(178,139,103)" fill-rule="evenodd" d="M92.14334106 40.13393307c5.79481125 10.8011217 5.1062355 38.1990633-2.38304138 40.12952518-2.9867134.76986695-9.34929657-1.1159935-15.82492256-5.01914596L78 104H54l8.26227379-38.50987244c-4.60790944-5.40875053-7.72663903-12.03725052-7.2054975-19.464674 1.50155377-21.40047406 31.29175353-16.69264244 37.08656477-5.8915205z"/>
      <path fill="rgb(25,24,71)" fill-rule="evenodd" d="M82.66349505 28.36997631c-3.27944161-1-8.04003857-1.33913202-10.04268019-1.10971207 1.1391938-2.7294203 1.5912427-5.77032292 1.22271376-8.73117845-.3581942-2.87701972-1.64375844-5.32671857-2.83271207-7.89370696-.54804707-1.18321365-1.16912626-2.3599784-2.09511835-3.26500222-.9432932-.92203283-2.13737592-1.53064865-3.38948625-1.8210108-1.2813538-.29721411-2.62119454-.27246642-3.90453873-.00274079-.56772134.11930483-1.07710886.37887343-1.63388304.52316778-.57017105.14784125-.84675913-.20902528-1.26060778-.56766525-.99734002-.86415386-2.45943682-1.29074922-3.72119291-1.44342715-1.41562878-.17121854-2.88453885.04232097-4.23463776.5076904-1.31411874.45303588-2.5765638 1.18869522-3.52667027 2.26042335-.42303508.47705808-.80702783 1.02005625-1.0565925 1.619563-.10235213.24602589-.11927047.39177124-.3647778.48189475-.22705791.08343276-.49262228.0858511-.72695278.1652533-2.26583283.76742022-4.2030977 2.5181379-5.25792945 4.7659859-.61541422 1.31138572-.90693025 3.6202725-.82708487 6.20815522.07984538 2.58788272 2.41656682 9.3404072 4.60209494 11.80340693 1.95081485 2.19843321 4.81828225 3.649196 7.58561757 4.28425235-1.83682657 2.09952307-3.05954033 4.72310064-3.96371465 7.39133691-.98210586 2.89838173-1.58994128 5.90994181-1.81439637 8.97841352-.21320172 2.91539072-.23295254 5.9984531.45051781 8.85161184.6393755 2.66815566 2.00669896 4.85699612 4.28929702 6.24560754 1.04556878.6361043 2.17052362 1.11396849 3.30198552 1.55072088 1.11507942.4303841 2.23352721.8488377 3.40158172 1.09034936 2.21063769.45690523 4.75780492.37847037 6.46066272-1.38111456.61373004-.63433086 1.28870295-1.43141606 1.73646483-2.20633314.16099218-.2786735.25806212-.4609358.06246772-.7333216-.2343305-.32623421-.61334727-.57621006-.91435594-.83142565-1.7165609-1.4551158-2.77912457-3.39768854-3.04698555-5.70623689-.2717652-2.3423245.35742866-5.36565385 2.63474452-6.3878866 2.81112397-1.26189035 5.9069507.1865347 8.4055064 1.5366945 1.0618747-3.7477837 3.24219717-7.12225617 6.66054412-8.8413742 3.78182335-1.901864 8.12141607-2.12443198 12.0078116-3.7562479 1.0127273-.42522496 2.04421022-.90792583 2.78984208-1.7743368.31157306-.36210627.6771164-.8318287.80151597-1.31074084.16344189-.62909112-.24229208-1.1565313-.55570243-1.64697086-1.66182509-2.6004421-7.963907-7.8540948-11.24334861-8.8540948z"/>
    </g>
    <g transform="translate(0 187)">
      <path fill="rgb(153,118,89)" fill-rule="evenodd" d="M128 0l37.63083767 123.02417087 18.22931645 104.6241329h14.2930427L178.89097407 0H128z"/>
      <path fill="rgb(178,139,103)" fill-rule="evenodd" d="M114.53772732 0c2.55597766 67.54688213-.4520627 102.38878715-1.02412107 108.52571506-.57205838 6.13692792-8.40540998 45.92909719-26.9499189 121.18275436l15.230305-5.23077018c29.30786722-69.01874063 39.29494344-104.888999 42.65633396-113.95198418C147.81171682 101.4627299 156.7394031 64.62082486 171.2333852 0h-56.69565788z"/>
      <path fill="rgb(228,228,228)" fill-rule="evenodd" d="M89.4182776 223.35225237c-1.0417975-.5344558-2.31785241-.06362848-2.76284187 1.01940863 0 0-1.65543573 4.02908051-1.65543573 6.73400982C85 233.81060014 85.90124261 239 85.90124261 239h56.4018122s2.19852474-7.26823912-2.53823196-7.84777684c-4.7367567-.57953773-7.8698085-1.04655234-7.8698085-1.04655234l-26.2150217-11.68678736c-.51456887-.22939737-1.11697575.0113584-1.33169813.5322217l-1.68508143 4.08758988s-4.38499781 2.04593567-7.12653195 2.04593567c-2.74153414 0-6.11840355-1.73237834-6.11840355-1.73237834z"/>
      <path fill="rgb(228,228,228)" fill-rule="evenodd" d="M183.4182776 223.35225237c-1.0417975-.5344558-2.31785241-.06362848-2.76284187 1.01940863 0 0-1.65543573 4.02908051-1.65543573 6.73400982C179 233.81060014 179.90124261 239 179.90124261 239h56.4018122s2.19852474-7.26823912-2.53823196-7.84777684c-4.7367567-.57953773-7.8698085-1.04655234-7.8698085-1.04655234l-26.2150217-11.68678736c-.51456887-.22939737-1.11697575.0113584-1.33169813.5322217l-1.68508143 4.08758988s-4.38499781 2.04593567-7.12653195 2.04593567c-2.74153414 0-6.11840355-1.73237834-6.11840355-1.73237834z"/>
      <path fill="rgb(105,161,172)" fill-rule="evenodd" d="M123 0l16 62.67952012h48.87031788L180.58355445 0H123z"/>
      <path fill="rgb(137,197,204)" fill-rule="evenodd" d="M114 0c-7.89684125 23.67081912-3 62.67952012-3 62.67952012h49.87031788L174.58355445 0H114z"/>
    </g>
    <g transform="translate(22 82)">
      <path fill="rgb(178,139,103)" fill-rule="evenodd" d="M194.0444107 89.12251282l28.32791138 27.63502502c8.2423706 3.51581574 14.9958191 7.39797974 20.26037598 11.64649964 1.18389892 1.42807006 2.47277832 4.1643219-3.09747315 2.93989563-5.57025146-1.22444153-11.48440551-2.26185608-12.53131103-.45036316-.45843506.79321289-.12463379 1.77130127.23303223 2.81944275.45916748 1.34538269.95761108 2.80601501-.12997437 4.13867187-1.28988647 1.58050537-5.62786865-3.44680786-13.01400757-15.08193207l-29.45727539-17.36727905 9.40872193-16.27996063zM36.00457765 173.68966675c7.35775375-5.04512024 17.96072387-13.875 19.3933525-16.78141785C58.32839585 150.96310425 68.30793 93.01988983 68.30793 93.01988983l20.89739228.08217621s-19.35476685 62.48051453-20.89739228 66.3035431c-2.00391388 4.96620177 1.40000153 12.18167113 3.70814514 17.07437133.35709382.756958.68795777 1.45829773.9685135 2.08712768-3.20269013 1.43310547-4.7411499-.29911804-6.36309052-2.12533569-1.8319397-2.06266785-3.77037811-4.24523926-8.3335762-2.12228393-1.76298905.82020568-3.43126297 1.78991699-5.0611496 2.73731994-5.62997055 3.27252197-10.8019638 6.27885437-17.83773422 1.9375763-1.11543274-.68826294-2.33776093-3.27966309.61553955-5.30471802z"/>
      <path fill="rgb(92,99,171)" fill-rule="evenodd" d="M127.69499574 5.33202859l8.6471231-1.48316788c14.88754146 37.19023143 40.8796267 70.98227894 77.97625574 101.3761425l-28.03207703 34.05636428c-37.09229814-43.2767844-59.95606541-87.92656414-58.5913018-133.9493389z"/>
      <path fill="rgb(221,227,233)" fill-rule="evenodd" d="M90 114h77S140.24130426 48.93772022 140.24130426 3.4607303L117.01420804 0C98.7598929 29.35840682 93.6048263 65.50454992 90 114z"/>
      <path fill="rgb(137,145,220)" fill-rule="evenodd" d="M55 147C63.42087555 51.99594498 116.50396729 0 116.50396729 0l.01847076.01641892C116.5254898.010945 116.52853394.00547202 116.53158569 0h1.51616669c2.721344.0937097 8.28990936.33767328 8.28990936.33767328l5.61250305 16.03920737c.89050293 29.33331298 10.40097046 118.22909164 10.40097046 118.22909164H91.94989777c.0857544 4.075943.27558136 8.20930481.58071136 12.39402771H55z"/>
      <path fill="rgb(0,0,0)" fill-opacity=".1" fill-rule="evenodd" d="M91.95851135 135c-.4023056-17.7496872 1.17235565-34.41596222 3.79920197-49.49813843C97.13162994 103.39854431 100.0030365 124.93349457 106 135H91.95851135z"/>
      <path fill="rgb(255,255,255)" fill-opacity=".2" fill-rule="evenodd" d="M103.11089892 104L128 92.42927179V104h-24.88910108z"/>
    </g>
  </g>
</svg>
