<svg xmlns="http://www.w3.org/2000/svg" width="470" height="470" viewBox="0 0 470 470">
  <path fill="rgb(242,242,242)" fill-rule="evenodd" d="M19.54631922 362.63422975C30.52706576 306.1198537 141.63918616 338.3152871 214.4830482 320.8437566c72.84386202-17.4715305 159.02421923-98.83996978 216.0598962-58.98162679 57.03567696 39.858343-3.64962839 136.20750755-134.46502067 157.95031104-130.81539229 21.7428035-287.51235104-.66383506-276.5316045-57.17821111z"/>
  <g transform="translate(131 41)">
    <path fill="rgb(242,242,242)" fill-rule="evenodd" d="M8 0h273c4.4153202 0 8 3.5846798 8 8v283c0 4.4153202-3.5846798 8-8 8H8c-4.4153202 0-8-3.5846798-8-8V8c0-4.4153202 3.5846798-8 8-8z"/>
    <path fill="rgb(255,255,255)" fill-rule="evenodd" d="M222.80895522 37.15895954h44.3880597c4.4153202 0 8 3.5846798 8 8v53.99710982c0 4.4153202-3.5846798 8-8 8h-44.3880597c-4.4153202 0-8-3.5846798-8-8V45.15895954c0-4.4153202 3.5846798-8 8-8z"/>
    <g transform="translate(223.4358209 50.12138728)">
      <ellipse cx="21.567" cy="13.827" fill="rgb(221,227,233)" rx="13.803" ry="13.827"/>
      <path fill="rgb(221,227,233)" fill-rule="evenodd" d="M2.59248555 31.10982659H40.5418428c1.43083172 0 2.59248555 1.16165382 2.59248555 2.59248555 3e-8 1.43083167-1.16165377 2.59248552-2.5924855 2.59248555H2.59248555C1.16165382 36.29479769 0 35.13314386 0 33.70231214c-3e-8-1.43083167 1.16165377-2.59248552 2.5924855-2.59248555z"/>
      <path fill="rgb(221,227,233)" fill-rule="evenodd" d="M9.49397809 39.75144509h24.14637218c1.43083173 0 2.59248555 1.16165382 2.59248555 2.59248555 0 1.43083172-1.16165382 2.59248554-2.59248555 2.59248554H9.4939781c-1.43083173 0-2.59248555-1.16165382-2.59248555-2.59248554-3e-8-1.43083167 1.16165377-2.59248552 2.5924855-2.59248555z"/>
    </g>
    <path fill="rgb(197,207,214)" fill-rule="evenodd" d="M8 0h273c4.4153202 0 8 3.5846798 8 8v15.33236994H0V8c0-4.4153202 3.5846798-8 8-8z"/>
    <g transform="translate(9 10)">
      <ellipse cx="4" cy="4" fill="rgb(242,242,242)" rx="4" ry="4"/>
      <ellipse cx="16" cy="4" fill="rgb(242,242,242)" rx="4" ry="4"/>
      <ellipse cx="28" cy="4" fill="rgb(242,242,242)" rx="4" ry="4"/>
    </g>
    <g transform="translate(214.80895522 114.06936416)">
      <path fill="rgb(255,255,255)" fill-rule="evenodd" d="M8 0h44.3880597c4.4153202 0 8 3.5846798 8 8v151.64739884c0 4.4153202-3.5846798 8-8 8H8c-4.4153202 0-8-3.5846798-8-8V8c0-4.4153202 3.5846798-8 8-8z"/>
      <g transform="translate(15.5283582 15.5549133)">
        <path fill="rgb(221,227,233)" fill-rule="evenodd" d="M4 0h21.33134328c2.2076601 0 4 1.7923399 4 4v14.4682081c0 2.20766009-1.7923399 4-4 4H4c-2.2076601 0-4-1.79233991-4-4V4c0-2.2076601 1.7923399-4 4-4z"/>
        <path fill="rgb(175,185,197)" fill-rule="evenodd" d="M4 29.38150289h21.33134328c2.2076601 0 4 1.7923399 4 4v13.60404624c0 2.2076601-1.7923399 4-4 4H4c-2.2076601 0-4-1.7923399-4-4V33.3815029c0-2.2076601 1.7923399-4 4-4z"/>
        <path fill="rgb(221,227,233)" fill-rule="evenodd" d="M4 57.89884393h21.33134328c2.2076601 0 4 1.7923399 4 4v13.60404624c0 2.2076601-1.7923399 4-4 4H4c-2.2076601 0-4-1.7923399-4-4V61.89884393c0-2.2076601 1.7923399-4 4-4z"/>
        <path fill="rgb(221,227,233)" fill-rule="evenodd" d="M4 114.93352601h21.33134328c2.2076601 0 4 1.7923399 4 4v13.60404624c0 2.2076601-1.7923399 4-4 4H4c-2.2076601 0-4-1.7923399-4-4v-13.60404624c0-2.2076601 1.7923399-4 4-4z"/>
        <path fill="rgb(197,207,214)" fill-rule="evenodd" d="M4 86.41618497h21.33134328c2.2076601 0 4 1.7923399 4 4v13.60404624c0 2.2076601-1.7923399 4-4 4H4c-2.2076601 0-4-1.7923399-4-4V90.41618497c0-2.2076601 1.7923399-4 4-4z"/>
      </g>
    </g>
    <g transform="translate(13.80298507 38.02312139)">
      <g>
        <path fill="rgb(255,255,255)" fill-rule="evenodd" d="M4 0h186.10447761c2.2076601 0 4 1.7923399 4 4v32.61560694c0 2.2076601-1.7923399 4-4 4H4c-2.2076601 0-4-1.7923399-4-4V4c0-2.2076601 1.7923399-4 4-4z"/>
        <g transform="translate(9 12.18468208)">
          <path fill="rgb(221,227,233)" fill-rule="evenodd" d="M3 0h130.10447761c1.65574508 0 3 1.34425493 3 3v.09234104c0 1.65574507-1.34425492 3-3 3H3c-1.65574507 0-3-1.34425493-3-3V3c0-1.65574507 1.34425493-3 3-3z"/>
          <path fill="rgb(221,227,233)" fill-rule="evenodd" d="M3 10.15390173h85.35780004c1.65574507 0 3 1.34425493 3 3v.09234104c0 1.65574508-1.34425493 3-3 3H3c-1.65574507 0-3-1.34425492-3-3v-.09234104c0-1.65574507 1.34425493-3 3-3z"/>
        </g>
        <g transform="translate(166.36048764 13.30780347)">
          <ellipse cx="7" cy="7" fill="rgb(221,227,233)" rx="7" ry="7"/>
          <ellipse cx="7" cy="7" fill="rgb(242,242,242)" rx="3" ry="3"/>
        </g>
      </g>
      <g transform="translate(0 47.52890173)">
        <path fill="rgb(255,255,255)" fill-rule="evenodd" d="M4 0h186.10447761c2.2076601 0 4 1.7923399 4 4v25.70231214c0 2.2076601-1.7923399 4-4 4H4c-2.2076601 0-4-1.7923399-4-4V4c0-2.2076601 1.7923399-4 4-4z"/>
        <g transform="translate(9 10.11069364)">
          <path fill="rgb(221,227,233)" fill-rule="evenodd" d="M2.52767341 0h131.0491308c1.39506092 0 2.5276734 1.13261248 2.5276734 2.52767341 0 1.39506093-1.13261248 2.52767341-2.5276734 2.52767341H2.5276734C1.13261248 5.05534682 0 3.92273434 0 2.52767341 0 1.13261248 1.13261248 0 2.52767341 0z"/>
          <path fill="rgb(221,227,233)" fill-rule="evenodd" d="M2.52767341 8.42557803h86.30245322c1.39506093 0 2.52767341 1.13261248 2.52767341 2.52767342 0 1.39506093-1.13261248 2.5276734-2.52767341 2.5276734H2.52767341C1.13261248 13.48092486 0 12.34831239 0 10.95325146 0 9.5581905 1.13261248 8.42557803 2.52767341 8.42557803z"/>
        </g>
        <g transform="translate(166.36048764 9.85115607)">
          <ellipse cx="7" cy="7" fill="rgb(221,227,233)" rx="7" ry="7"/>
          <ellipse cx="7" cy="7" fill="rgb(242,242,242)" rx="3" ry="3"/>
        </g>
      </g>
      <g transform="translate(0 88.14450867)">
        <path fill="rgb(255,255,255)" fill-rule="evenodd" d="M4 0h186.10447761c2.2076601 0 4 1.7923399 4 4v25.70231214c0 2.2076601-1.7923399 4-4 4H4c-2.2076601 0-4-1.7923399-4-4V4c0-2.2076601 1.7923399-4 4-4z"/>
        <g transform="translate(9 10.11069364)">
          <path fill="rgb(221,227,233)" fill-rule="evenodd" d="M2.52767341 0h131.0491308c1.39506092 0 2.5276734 1.13261248 2.5276734 2.52767341 0 1.39506093-1.13261248 2.52767341-2.5276734 2.52767341H2.5276734C1.13261248 5.05534682 0 3.92273434 0 2.52767341 0 1.13261248 1.13261248 0 2.52767341 0z"/>
          <path fill="rgb(221,227,233)" fill-rule="evenodd" d="M2.52767341 8.42557803h86.30245322c1.39506093 0 2.52767341 1.13261248 2.52767341 2.52767342 0 1.39506093-1.13261248 2.5276734-2.52767341 2.5276734H2.52767341C1.13261248 13.48092486 0 12.34831239 0 10.95325146 0 9.5581905 1.13261248 8.42557803 2.52767341 8.42557803z"/>
        </g>
        <g transform="translate(166.36048764 9.85115607)">
          <ellipse cx="7" cy="7" fill="rgb(221,227,233)" rx="7" ry="7"/>
          <ellipse cx="7" cy="7" fill="rgb(175,185,197)" rx="3" ry="3"/>
        </g>
      </g>
      <g transform="translate(0 209.99132948)">
        <path fill="rgb(255,255,255)" fill-rule="evenodd" d="M4 0h186.10447761c2.2076601 0 4 1.7923399 4 4v25.70231214c0 2.2076601-1.7923399 4-4 4H4c-2.2076601 0-4-1.7923399-4-4V4c0-2.2076601 1.7923399-4 4-4z"/>
        <g transform="translate(9 10.11069364)">
          <path fill="rgb(221,227,233)" fill-rule="evenodd" d="M2.52767341 0h131.0491308c1.39506092 0 2.5276734 1.13261248 2.5276734 2.52767341 0 1.39506093-1.13261248 2.52767341-2.5276734 2.52767341H2.5276734C1.13261248 5.05534682 0 3.92273434 0 2.52767341 0 1.13261248 1.13261248 0 2.52767341 0z"/>
          <path fill="rgb(221,227,233)" fill-rule="evenodd" d="M2.52767341 8.42557803h86.30245322c1.39506093 0 2.52767341 1.13261248 2.52767341 2.52767342 0 1.39506093-1.13261248 2.5276734-2.52767341 2.5276734H2.52767341C1.13261248 13.48092486 0 12.34831239 0 10.95325146 0 9.5581905 1.13261248 8.42557803 2.52767341 8.42557803z"/>
        </g>
        <g transform="translate(166.36048764 9.85115607)">
          <ellipse cx="7" cy="7" fill="rgb(221,227,233)" rx="7" ry="7"/>
          <ellipse cx="7" cy="7" fill="rgb(242,242,242)" rx="3" ry="3"/>
        </g>
      </g>
      <g transform="translate(0 169.37572254)">
        <path fill="rgb(255,255,255)" fill-rule="evenodd" d="M4 0h186.10447761c2.2076601 0 4 1.7923399 4 4v25.70231214c0 2.2076601-1.7923399 4-4 4H4c-2.2076601 0-4-1.7923399-4-4V4c0-2.2076601 1.7923399-4 4-4z"/>
        <g transform="translate(9 10.11069364)">
          <path fill="rgb(221,227,233)" fill-rule="evenodd" d="M2.52767341 0h131.0491308c1.39506092 0 2.5276734 1.13261248 2.5276734 2.52767341 0 1.39506093-1.13261248 2.52767341-2.5276734 2.52767341H2.5276734C1.13261248 5.05534682 0 3.92273434 0 2.52767341 0 1.13261248 1.13261248 0 2.52767341 0z"/>
          <path fill="rgb(221,227,233)" fill-rule="evenodd" d="M2.52767341 8.42557803h86.30245322c1.39506093 0 2.52767341 1.13261248 2.52767341 2.52767342 0 1.39506093-1.13261248 2.5276734-2.52767341 2.5276734H2.52767341C1.13261248 13.48092486 0 12.34831239 0 10.95325146 0 9.5581905 1.13261248 8.42557803 2.52767341 8.42557803z"/>
        </g>
        <g transform="translate(166.36048764 9.85115607)">
          <ellipse cx="7" cy="7" fill="rgb(221,227,233)" rx="7" ry="7"/>
          <ellipse cx="7" cy="7" fill="rgb(242,242,242)" rx="3" ry="3"/>
        </g>
      </g>
      <g transform="translate(0 128.7601156)">
        <path fill="rgb(255,255,255)" fill-rule="evenodd" d="M4 0h186.10447761c2.2076601 0 4 1.7923399 4 4v25.70231214c0 2.2076601-1.7923399 4-4 4H4c-2.2076601 0-4-1.7923399-4-4V4c0-2.2076601 1.7923399-4 4-4z"/>
        <g transform="translate(9 10.11069364)">
          <path fill="rgb(221,227,233)" fill-rule="evenodd" d="M2.52767341 0h131.0491308c1.39506092 0 2.5276734 1.13261248 2.5276734 2.52767341 0 1.39506093-1.13261248 2.52767341-2.5276734 2.52767341H2.5276734C1.13261248 5.05534682 0 3.92273434 0 2.52767341 0 1.13261248 1.13261248 0 2.52767341 0z"/>
          <path fill="rgb(221,227,233)" fill-rule="evenodd" d="M2.52767341 8.42557803h86.30245322c1.39506093 0 2.52767341 1.13261248 2.52767341 2.52767342 0 1.39506093-1.13261248 2.5276734-2.52767341 2.5276734H2.52767341C1.13261248 13.48092486 0 12.34831239 0 10.95325146 0 9.5581905 1.13261248 8.42557803 2.52767341 8.42557803z"/>
        </g>
        <g transform="translate(166.36048764 9.85115607)">
          <ellipse cx="7" cy="7" fill="rgb(221,227,233)" rx="7" ry="7"/>
          <ellipse cx="7" cy="7" fill="rgb(242,242,242)" rx="3" ry="3"/>
        </g>
      </g>
    </g>
  </g>
  <g transform="translate(0 117)">
    <g transform="translate(82)">
      <path fill="rgb(249,206,168)" fill-rule="evenodd" d="M92.14334106 40.13393307c5.79481125 10.8011217 5.1062355 38.1990633-2.38304138 40.12952518-2.9867134.76986695-9.34929657-1.1159935-15.82492256-5.01914596L78 104H54l8.26227379-38.50987244c-4.60790944-5.40875053-7.72663903-12.03725052-7.2054975-19.464674 1.50155377-21.40047406 31.29175353-16.69264244 37.08656477-5.8915205z"/>
      <path fill="rgb(25,24,71)" fill-rule="evenodd" d="M78.46395003 27.68525676c-3.16313052-.51871894-11.67999893-.8753526-13.2506616-.87512237-1.00372758 0-2.09146254.22931383-2.68594103-.69231595-.48682968-.75470958-.30848614-2.03113115-.4537776-2.90694422-.16870335-1.01740745-.40833098-2.02169152-.65071294-3.02344301-.68973276-2.8505367-1.7327097-5.56247207-3.1920511-8.1086384-2.7382735-4.77691102-6.7497409-8.51868652-11.81405495-10.69601675-5.59245884-2.40411148-11.92078565-2.95460281-17.93626528-2.46696557-6.43735279.521712-12.26461915 2.64677893-18.3425305 4.64659815-5.791919 1.9056532-11.85835393 2.65575808-17.91606678 1.72514913-6.103389-.93751598-10.7150731-4.24552917-15.863165-7.38524074-5.270201-3.21430764-11.29302555-5.31658133-17.52334374-4.83331855-5.81578995.45126015-11.17596607 2.85260882-15.98504457 6.06046988-4.49944472 3.00134047-8.21206618 6.61234262-10.30811929 11.69454495-2.25488675 5.46692463-2.252821 11.4677637 1.4552099 16.29924037 5.3746364 7.00328126 15.35246436 8.81430797 23.65358755 8.63426438 4.80150406-.10383588 9.5171645-.98033966 14.0503499-2.57471544 6.04554785-2.12644835 11.26984318-5.73054345 16.92565185-8.65475528 2.65426612-1.37219923 5.39781877-2.49919844 8.27357978-3.31100624 2.79060597-.78809362 5.53920825-1.1495622 8.0658566.53621678 2.67285791 1.78339854 5.0679865 3.53525491 8.1257635 4.65166332 2.93337263 1.07105215 6.04049823 1.67012302 9.16575657 1.64594837 6.0806657-.0469679 12.07479919-1.94156982 17.98056426-3.21062388 4.81596435-1.03467506 9.96887635-2.0658966 14.8787178-1.07128239 2.04877027.4151133 5.04136122 1.27204711 5.7813607 3.40125827-12.45443912 2.2572217-17.34590686 17.65992787-13.83481132 28.9669877 1.89498626 6.10283307 13.28600897 13.2369804 17.71498848 10.0286289 2.80588595-2.03258299 1.10242478-4.7009963 0-6.46252253-2.11120199-3.37339986-2.83352778-7.70664849 1.07304515-10.05527339 3.36970606-2.0256055 6.91271984 2.78467002 6.97974212 2.77937462.926147-.07298442 8.92886177-4.5988712 14.44258658-11.20328786 5.43931001.32243658 6.26453207-3.26410448 4.96573136-6.19722101-1.2988007-2.93311654-9.40549662-6.62446993-13.7759464-7.34165124z"/>
    </g>
    <g transform="translate(0 187)">
      <g transform="translate(65 42)">
        <path fill="rgb(197,207,214)" fill-rule="evenodd" d="M27.6226415 0h77.25455148L115 124H0L27.6226415 0z"/>
        <path fill="rgb(0,0,0)" fill-opacity=".1" fill-rule="evenodd" d="M27.6226415 0h23.7601596l14.22097248 124H0L27.6226415 0z"/>
      </g>
      <path fill="rgb(178,139,103)" fill-rule="evenodd" d="M212.32341003 66.56646729c-8.68144226 18.41159439-22.24684143 63.1057167-22.24684143 63.1057167l11.51657105 5.26159668s29.22111511-46.98135376 47.0792694-79.09739304c-.83213805 7.22999955-1.67939758 15.36973572-2.464859 23.92626572-1.8607483 20.27046204-.00100708 64.06414795 1 76.71472168.62910461 7.95050049 11.43222046 6.28494263 12.44067383-.0206604C260.65667725 150.1511116 279.97161865 50.40290833 280 29.23841476c.00949097-7.07369613-13.80987549-13.42826175-22.0466919-8.48229408-5.6578369-6.03693008-16.36566162-9.5164051-22.51725768.45588875-3.91073609 6.33966255-13.20281983 24.3377037-23.11264039 45.35445786z"/>
      <path fill="rgb(71,79,94)" fill-rule="evenodd" d="M190.89992237 113.12535469l39.52746167-93.63805378c9.46932164-15.23246624 36.01877245 3.09968393 32.78952956 11.93441739-7.33138107 20.05757995-44.61720191 84.99251957-46.80146526 90.96834273l-25.51552597-9.26470634z"/>
      <path fill="rgb(221,227,233)" fill-rule="evenodd" d="M191.60246668 124.22829544c-.634995-.98375116-1.9755046-1.21403046-2.90239546-.4985877 0 0-3.44819015 2.66156756-4.80065525 5.0041048-1.35246509 2.34253726-3.16666695 7.28731033-3.16666695 7.28731033l48.8453969 28.20091525s5.53809882-5.19521632 1.72571658-8.06548977c-3.81238224-2.87027346-6.29217702-4.84124634-6.29217702-4.84124634l-16.85947672-23.22856875c-.33093094-.45594844-.97300847-.54865139-1.41939522-.20493182l-3.50311877 2.69741531s-4.82048726-.42066754-7.19472521-1.79143505c-2.37423796-1.37076752-4.43250288-4.55948626-4.43250288-4.55948626z"/>
      <path fill="rgb(228,228,228)" fill-rule="evenodd" d="M247.4182776 150.35225237c-1.0417975-.5344558-2.31785241-.06362848-2.76284187 1.01940863 0 0-1.65543573 4.02908051-1.65543573 6.73400982C243 160.81060014 243.90124261 166 243.90124261 166h56.4018122s2.19852474-7.26823912-2.53823196-7.84777684c-4.7367567-.57953773-7.8698085-1.04655234-7.8698085-1.04655234l-26.2150217-11.68678736c-.51456887-.22939737-1.11697575.0113584-1.33169813.5322217l-1.68508143 4.08758988s-4.38499781 2.04593567-7.12653195 2.04593567c-2.74153414 0-6.11840355-1.73237834-6.11840355-1.73237834z"/>
      <path fill="rgb(107,119,141)" fill-rule="evenodd" d="M282.77037312 36.4330278c0 26.5669722-12.6167735 88.53726557-12.62475727 94.38708375L243 130.84096261s5.95991587-82.94322234 4.22668288-83.8367647c-1.73323298-.89354235-71.05084528 6.92083266-91.84032504 6.92083266C125.40782515 53.92503057 113.00630654 35.02039713 112 0h59.38635784c12.09159567 1.29386693 75.16246762 14.01525676 98.58573876 18.38841285C280 20.26063585 282.77037312 29.1145109 282.77037312 36.4330278z"/>
    </g>
    <g transform="translate(22 82)">
      <path fill="rgb(249,206,168)" fill-rule="evenodd" d="M191.4562378 2.34082222l37.90377807-11.37841797q10.60647583-8.25667 20.008667-12.07377815c1.82299804-.34313011 4.84106444-.14385224 1.06962585 4.13438988-3.7714386 4.27823734-7.54600525 8.94791698-6.4691925 10.74180126 1.07679748 1.79388141 5.00015258.44158172 6.13566588 3.28320026.75698853 1.89441109-5.74308776 3.25123215-19.50027465 4.07045555l-29.47093201 17.3440876-9.67733765-16.12173843zm-3.3493805 66.82730865l31.89826965 23.42359162c8.651474 2.33448791 15.87950135 5.2389679 21.68408203 8.71346283 1.37112427 1.24939728 3.0282898 3.77965545-2.6581726 3.34236145-5.68644715-.43728638-11.6874237-.64151764-12.4720459 1.29804992-.3435669.84929657.12312317 1.7714615.6231842 2.75954438.641922 1.2684021 1.33882141 2.64546203.44728089 4.11650085q-.09751892.16090393-.23970032.2524109-2.17030335 1.39669799-14.74667358-13.37635804l-31.58764649-13.0986023 7.05142212-17.4309616z"/>
      <path fill="rgb(87,123,215)" fill-rule="evenodd" d="M138.56072852 6.08677722c17.37071801 32.389551 42.48943587 57.21845568 78.9049352 83.02909531l-13.78837608 15.5469118c-40.65937664-15.10998425-62.11835306-24.2265257-72.65635056-54.82803339-2.64482372-7.68035799-4.49330856-32.16389817-6.07908477-45.04593529l13.6188762 1.29796157z"/>
      <path fill="rgb(242,242,242)" fill-rule="evenodd" d="M90 114h77S140.83731614 34.2080716 140.2702156 4.47156148c-.01927423-1.01066401-1.88583708-2.79159676-2.71164535-2.55836776C128.5 4.47156148 118.1718001 0 118.1718001 0 99.91748497 29.35840682 93.6048263 65.50454992 90 114z"/>
      <path fill="rgb(103,146,255)" fill-rule="evenodd" d="M137.48625183 44.79075623c12.02619934 51.58634185 11.47174072 93.81521606-15.07878113 93.81521606H81.35112762C74.83043671 94.78395081 91.96809387 34.02361679 107.85595703 3.37659454 108.46266174 2.2062769 109.7544098 0 112.79699707 0h11.9297638c.00524902.01579857.01049041.03159714.01573944.04739666 3.58997344.0293951 7.54340362.1606388 11.8247757.30276966C158.6084137 1.0818758 189.3412628 2.10212898 223.92266082-9l4.07733154 20.37347984c-31.21312714 20.07474709-62.8190689 35.62558556-90.51374054 33.41727639z"/>
    </g>
  </g>
</svg>
