<svg xmlns="http://www.w3.org/2000/svg" width="470" height="470" viewBox="0 0 470 470">
  <path fill="rgb(250,250,250)" fill-rule="evenodd" d="M130.67279073 325.74498874c21.15647699-50.99519395 94.0547022-.76334655 150.8625762-3.995559 56.80787399-3.23221244 138.20277112-63.95490973 170.1694678-16.298655 31.96669668 47.65625473-34.4761889 127.02288112-134.24215879 123.79724414-99.76596989-3.22563697-207.9463622-52.50783618-186.78988521-103.50303014z"/>
  <path fill="rgb(242,242,242)" fill-rule="evenodd" d="M26.40753143 279.85001857c8.19118044-54.59863449 91.07620328-23.4945717 145.4146962-40.37384693 54.33849292-16.87927523 118.62545684-95.48946233 161.17170086-56.9822496 42.54624402 38.50721271-2.72247106 131.5903039-100.30531565 152.5960632-97.58284459 21.0057593-214.47226185-.64133218-206.28108141-55.23996667z"/>
  <g opacity=".5" transform="translate(289 22)">
    <path fill="rgb(193,222,226)" fill-rule="evenodd" d="M2.5861249 9.26801463c-.00279184 5.67821952-.28988572 11.47414635.75658775 17.0842439.31687347 1.69841464.56674286 4.95158537 2.35863674 5.833 1.79980408.88512196 3.54470204-.10936585 3.99186122-1.9542195.52160817-2.1465366-.62257959-5.35892683-.73844081-7.6125122-.1591347-3.07846342-.16983674-6.16063415-.17123266-9.24280488-.0009306-2.22578049.73146123-5.80658536-1.89612245-6.95168293-1.9538204-.8517561-4.3012898.73173171-4.3012898 2.84397561"/>
    <path fill="rgb(193,222,226)" fill-rule="evenodd" d="M92.35340082.28708537C73.54060898 2.1755 54.45700898 2.5680122 35.57628245 3.55276829c-8.72774694.45507317-19.27530612-.12558536-27.49773061 3.25270732-1.52620408.62746341-6.99494694 4.11929268-2.55546123 5.54104878 1.38382041.4434878 2.7895102-1.04731707 3.92578776-1.54687805 1.8924-.83090244 4.08306122-1.08809756 6.10109387-1.4124878 17.15630205-2.755 35.10129796-2.27536586 52.43395103-3.56273171 4.44134693-.32995122 8.8845551-.66963415 13.31659591-1.10570732 3.16640817-.31141463 9.82168164-2.5937317 12.74380409-1.42639024 4.9932 1.99453658 4.87640816 14.95439024 4.97505306 19.4115122.05118367 2.30502438-2.18600817 10.57929268 2.26138775 9.74051219 3.55959184-.6714878 2.27069388-9.26736586 1.99337143-11.6187317-.72773878-6.16341464-1.96964082-21.44543903-10.9207347-20.5385366"/>
    <path fill="rgb(137,197,204)" fill-rule="evenodd" d="M99.29116163 32.14549756c-16.34108571 1.4755122-33.05860408.02780488-49.46669387.608-8.60071837.30492683-17.19259592.78919512-25.7942449 1.0732683-3.72012245.12326829-7.44396735.12836585-11.16595102.15478048-1.78026123.01204878-9.88170613 1.09134146-4.86989388 4.62070732 2.2190449 1.56263414 9.29076735.304 11.83692245.27341463 3.82435102-.04495122 7.64684081-.20390244 11.4684-.35358536 8.85244898-.34617073 17.69931428-.82580488 26.55641632-1.06539025 8.47229388-.22939024 16.94877551-.2785122 25.42060409-.50790244 4.21567347-.11446341 8.48857959-.2437561 12.66656326-.85917073.9427102-.13902439 4.0048898-.24931707 4.65957551-1.30080488.61885714-.99402439.18426123-2.78743902-1.31169796-2.64331707"/>
    <path fill="rgb(193,222,226)" fill-rule="evenodd" d="M25.46266747 29.09919548C13.1944065 31.6294384 8.5436716 14.12302398 21.67926407 11.78556061c.73851585-.13320065 1.23310852.10908127 1.7240696.34958458.33062744.1619606.65960502.3231144 1.0603218.36824512.44777489.05047798.88185883-.01324558 1.3181038-.07728672.58101653-.08529281 1.16586494-.17114925 1.79200172.01148224 2.19857216.64182854 3.77689075 2.87687779 4.50137424 4.91312218 1.85377884 5.21202469-1.22654724 10.63814544-6.61246776 11.74848747zm.26103782-11.43290329c3.81364823 3.8871212-2.05106926 8.52683067-5.62322426 4.73331642-3.79178047-4.02614593 3.1682682-4.72034073 5.62322426-4.73331642z"/>
    <path fill="rgb(193,222,226)" fill-rule="evenodd" d="M71.95033224 16.71300244c-7.92090612.02502439-15.84367346.36146341-23.76318367.51160976-2.42936326.04587804-8.67284081-1.04129269-8.68261224 2.78836585-.01070204 4.09195122 6.94422857 2.5807561 9.25866122 2.52560975 7.85576327-.18768292 15.7315347-.532 23.55612245-1.27995121 1.9761551-.18907318 8.81848163.13717073 8.81150204-2.55063415-.0074449-2.84768293-7.5844898-1.995-9.1804898-1.995"/>
    <path fill="rgb(137,197,204)" fill-rule="evenodd" d="M90.86884163 43.42134878c-19.59031836.5255122-39.15085714.70856098-58.7253551 1.71139024-7.32159184.37490244-14.63341224.65387805-21.96570612.65387805-1.41220408 0-4.2556898-.54682927-5.58460408.34246342-3.60705306 2.41207317.50020408 4.48260975 2.8509306 4.61282927 16.0805143.89253658 32.39368164-1.32860976 48.4648898-1.8300244 9.4084898-.29334146 18.81930613-.38 28.22221225-.85870731 2.56523265-.13068293 5.13093061-.28221951 7.69197551-.4810244 1.47269388-.114 5.36777143.19880489 6.55802449-.66268292 5.19746939-3.762-5.76002449-3.53539024-7.51236735-3.48812195"/>
    <path fill="rgb(137,197,204)" fill-rule="evenodd" d="M.98570449 53.00008293c-.18426122 5.07902439-.20333878 10.06953658.46111837 15.1207561.26150204 1.98758536.38155102 4.24302438 2.71133877 4.74814634 2.11574694.45831707 3.18874286-1.14185366 3.62706123-2.9162683 1.06973877-4.33292683.12842449-10.56909756.11586122-15.0702439-.00558367-2.22531707-.0079102-4.71617073-2.75786939-5.21943902-2.0980653-.38417074-4.07747755 1.13212195-4.1575102 3.33704878"/>
    <path fill="rgb(137,197,204)" fill-rule="evenodd" d="M111.63359265 65.24479512c-31.71154285 1.67107317-63.38167347 3.12990244-95.11601632 4.4714878-2.47496327.10473171-21.70094694-.1047317-14.9796 6.59995123 2.07619591 2.07053658 7.4248898.6682439 10.10970612.53663414 4.03466939-.19834146 8.0712-.34987805 12.10586939-.55517073 15.99675918-.81421951 32.0349306-1.03387805 48.01959183-1.9477317 8.79661225-.50280488 17.57321633-1.28968293 26.32376327-2.31429269 4.16216326-.48704878 9.32892245-.43653658 13.22725714-2.0677561 2.00546939-.8392439 4.16960816-4.92795122.30942857-4.72312195"/>
    <path fill="rgb(137,197,204)" fill-rule="evenodd" d="M93.39987429 39.47959024c-2.41168164 2.40187805-1.17164082 7.14029269-.98970613 10.10892683.2498694 4.08546342.55371429 8.1732439 1.0636898 12.236.33176326 2.63914634.15634286 6.74685366 1.56435918 9.02639025 1.6485796 2.6697317 5.27889796 2.37453658 6.76973878-.20482927 1.31867755-2.28092683.65142857-7.0805122.61699592-9.60843903-.04699592-3.49553658-.26475919-6.99663414-.47228572-10.4852195-.17355918-2.91580489.48717551-7.58841464-1.1167347-10.08390245-1.62950203-2.53580487-5.1760653-3.2364878-7.43605713-.98892683"/>
    <path fill="rgb(137,197,204)" fill-rule="evenodd" d="M15.52665997 56.47791672c1.7760744-3.59702301 6.70971393-3.81853485 10.29768848-4.10260773 4.03653336-.32763672 8.09958649 3.02146149 7.80644226 7.2932167-.36340332 5.29821778-7.14617157 7.81455994-11.6889553 7.10692597-4.72052956-.7349701-8.80126572-5.4664383-6.41517544-10.29753494zm11.02263736.93516922c5.25563431 1.0570488-3.24271774 7.19312286-5.92846489 2.98161316-.41924095-.65805054-.63746833-1.46670914.03582955-2.03856278.3388443-.28790664.6082592-.13615036.8791027.01641083.22047234.12418747.44189072.24890518.7024727.13744354.99994277-.42819595 3.24411391-1.1367569 4.31105994-1.09690475z"/>
    <path fill="rgb(137,197,204)" fill-rule="evenodd" d="M55.78094449 54.93020488c-3.71453878.05978049-11.01565714-1.0385122-14.25186122.77204878-3.20223674 1.79156097-1.77421225 4.98170732 1.14697959 5.74495122 1.9310204.50419512 5.08672653-.30956098 7.09731428-.39158537 2.6443347-.1075122 5.29099592-.13068292 7.93719184-.16729268 4.45018775-.05978049 8.89851429-.0092683 13.34916735-.0092683 4.5455755 0 9.16885714.12419513 13.70652245-.20992682 5.74141224-.42263415 5.5869306-4.72173171-.02791837-5.25929269-9.53877551-.91292682-19.3879102-.6302439-28.95739592-.47963414"/>
    <path fill="rgb(137,197,204)" fill-rule="evenodd" d="M46.29260816 103.07963415c0 2.0427317 1.81236735 0 1.79933878 0 .01302857 0-1.79933878-2.04273171-1.79933878 0"/>
    <path fill="rgb(137,197,204)" fill-rule="evenodd" d="M5.2970449 86.6369878c.11679183 5.9372683.19356734 11.88009757.44715918 17.81273171.08049796 1.87590244-.45693061 5.53919512 1.81702041 6.49568293 2.5308 1.06446341 3.31763265-1.58904878 3.6093796-3.38709756.92316734-5.69629268.01814693-12.20031708-.07072654-17.9642683-.0297796-1.9352195.38899592-4.62951219-1.8091102-5.59434146-1.7928245-.78734146-4.03001633.6742683-3.99372245 2.63729268"/>
    <path fill="rgb(137,197,204)" fill-rule="evenodd" d="M27.83921719 82.51222992c9.1088333-.39019775 18.22930145-.49863434 27.34418106-.64136505 9.34428024-.14505005 18.69600296-.13578034 28.04074478-.05004883 5.50643158.05097198 10.97517395.31975555 16.46346283.76324463 4.69773102.37953186 6.69156647.5727768 8.12750244 5.42936706 1.0180893 3.44223786 2.05757904 7.76636506 1.40196228 11.36755372-.47507477 2.60624694-3.58099365 5.64161682-5.7172165 2.0668335-.85725402-1.43488313-.48015594-4.00047303-.12837981-6.39378358.21321106-1.45058441.41712188-2.837883.33125305-3.8717804-.1712265-2.05941009-.07817078-3.832901-1.72441864-4.55443572-1.14076233-.49954224-3.03904724-.30760956-4.6886673-.14082337-.72694397.07350159-1.40559387.14212036-1.94985962.14453125-18.37819672.08294678-36.76616287.02687836-55.14063644.39668274-6.77578736.13624573-13.5459938.32717133-20.31340409.6839981-3.11894703.16451264-6.23510265.38370515-9.2879753 1.06816865-1.6774292.3758316-9.4657228 1.63817596-5.79306126-2.99040985 1.77979564-2.24246216 8.59652996-2.35044098 11.34044075-2.60995484 3.87413692-.36656189 7.8064413-.50094604 11.69407177-.66777801z"/>
    <path fill="rgb(137,197,204)" fill-rule="evenodd" d="M91.2337347 106.41404146c-19.76946123 2.2957561-40.10147756.94304878-59.97656327 1.02414634-4.8331347.01992683-9.67045714.05839025-14.49893878.29287805-2.55034285.1232683-8.5956-.5797317-10.34282449 1.38746342-3.68289796 4.14756097 2.95143674 4.75092683 5.3733551 4.579 4.89688164-.3480244 9.80539592-.50697561 14.71484082-.54497561 17.29263674-.13346342 34.68298776.67334146 51.9616653-.17980488 7.23876735-.35729268 14.31607348-1.59553658 21.42083266-2.97929268 1.57413061-.30678049 12.3492245-2.35507317 6.20485714-4.8102439-3.63124898-1.45095122-11.0426449.7854878-14.85722449 1.23082926"/>
    <path fill="rgb(137,197,204)" fill-rule="evenodd" d="M23.5624981 102.99830627c-3.30506898-3.77080535-1.11673547-7.6180725 1.53411292-10.91944122 1.1341114-1.40699768 3.28289414-.9067154 4.98714066-.50993347.48152351.11210632.9275608.21595001 1.30519485.26618195 2.51777268.33504486 3.9243927.27804565 5.6595192 2.3300476 2.6950531 3.18689728 3.02867508 8.06943512-.83475876 10.38882447-3.75036621 2.25080871-9.69605064 1.81565857-12.65120888-1.55567933zm8.26290511-5.9826889c.00069619.0004654.14505768.06128693.21706581.09158325.02393723.0100708.03987885.01676941.03988648.01675415.00001526-.00003051-.06421661-.02713012-.25695229-.1083374zm1.22049904 2.05664063c-.16471863-.69929505-.48531723-1.33324433-.96132278-1.90139008-4.71308708-.3026123-3.13476753 3.01080322.96132278 1.90139008zm.24393463-.0679474c.01814652-.03921508.06618882-.14939117.08968735-.21288299-.0960846.22035218-.10783386.25209809-.08968735.212883z"/>
    <path fill="rgb(137,197,204)" fill-rule="evenodd" d="M52.50016408 98.18889512c0 4.39595122 18.98123265 2.50382927 22.35795919 2.49919512 2.82859591-.00417073 19.93231836 1.55614635 18.70484081-2.96770731-1.00878367-3.71704878-17.85612245-1.86941464-21.44409796-1.87497561-3.1012653-.00417073-19.61870204-2.13356098-19.61870204 2.3434878"/>
  </g>
  <g transform="matrix(-1 0 0 1 454 99)">
    <g transform="translate(82)">
      <path fill="rgb(178,139,103)" fill-rule="evenodd" d="M92.14334106 40.13393307c5.79481125 10.8011217 5.1062355 38.1990633-2.38304138 40.12952518-2.9867134.76986695-9.34929657-1.1159935-15.82492256-5.01914596L78 104H54l8.26227379-38.50987244c-4.60790944-5.40875053-7.72663903-12.03725052-7.2054975-19.464674 1.50155377-21.40047406 31.29175353-16.69264244 37.08656477-5.8915205z"/>
      <path fill="rgb(25,24,71)" fill-rule="evenodd" d="M44.59338187 38.90170106c-.77517789-.76818375-1.19801892-1.8646367-1.5637939-2.90576449-.37985741-1.0815271-.7489459-2.17419882-1.00114104-3.29990643-.50393005-2.2492261-.50871623-4.8358759 1.09585228-6.58239937 1.28683946-1.40054226 3.21769692-2.02872154 4.99972245-2.16524331 1.18725-.09104769 2.40662266.07522628 3.54472222.44936759 1.12917148.37115614 2.10251583 1.11088126 3.19717155 1.57000041.04178708-2.42385854.45698863-4.96005898 1.68667-7.02967734 1.18329219-1.9913074 3.06987744-3.10875605 5.21841428-3.40438738 2.20523473-.30339278 4.38285684.2126436 6.3570661 1.2802399.49426564.26737173.98392918.54748019 1.4525151.86450524.39237512.26548112.80030535.58519283 1.26069952.69315648.5132263.12050136.76763044-.17592602 1.10119072-.55036585.39108653-.439019.83169168-.82569802 1.29797654-1.16849504 2.06174122-1.51547131 4.76685614-2.1385758 7.15543857-1.23018856 1.10054642.41852083 2.17071897 1.12928981 2.91736382 2.10872409.66555584.87306272 1.14030857 2.2579826 2.05888791 2.86626073.38979795.25821721.66509563-.08388327 1.02000966-.33672717.53310737-.37991264 1.04154748-.79913001 1.5810978-1.16869406.75787397-.51922057 1.57842857-.90759119 2.45715372-1.11088127 1.28637925-.29762144 3.0640788-.22786797 3.4318787 1.45696198.13806303.63285604.03221471 1.30969359-.01242567 1.9473259-.06120794.87555036-.1250851 1.75080221-.2011118 2.625059-.05771035.6638023-.13069968 1.30491731-.25596886 1.95677894-.0668225.34747379-.27594197.99525568-.12692595 1.343227.186201.43493927 1.04559734.18766768 1.41275295.20279254.72519906.02995121 1.45343551.15711945 2.12396162.4669801.51966924.24020668 1.06603066.5934518 1.28536679 1.18909272.13484156.36588234.09931334.74171524.03562026 1.11814518-.07639488.45175573.010953.69136537.06801905 1.14720083.97398864-.47961731 4.34916946-1.5452235 4.77385134.2003049.14137654.5812126-.18058644 1.23795001-.42624659 1.72811493-.43084869.85972896-.99571056 1.6455252-1.57318218 2.39490239-1.2045539 1.56333353-2.6426184 2.91173482-4.18984473 4.064906 1.81276756.8058964 2.28595557 3.18298727.71645507 4.59925142-.69298436.62529362-1.62472571.76450204-2.49884876.72450077-.31993806-.01462734-.78116061-.13761634-1.03289553-.08189317-.13548585.0299512-.28054408.14478075-.46821775.15761698-1.23363918.0844803-2.62623492-.21274312-3.83216945-.4864832-2.14881296-.48777679-4.18312566-1.50581926-5.84439205-3.05631657-.42615455-.39772415-.77821527-.62668669-1.35182113-.62081585-.50264146.00507479-.9958026.14289014-1.49798385.15562686-1.32871858.03393143-2.5267375-.61564156-3.76056076-1.04799368-.0755665 1.66681942-.55022718 3.50259947-1.23207446 5.00214987-.55602583 1.22282514-1.7171359 1.40054226-2.85808876 1.50780937-3.64854561.34329455-7.30997711-.03980226-10.96312483-.03472748 3.5363464.79932903 7.19059862 1.12879229 10.69555868 2.06941936 1.58431927.4250882.37451898 1.49288352-.30291028 2.23310618-1.11545722 1.21894442-1.94484785 2.72924143-2.52011047 4.32033704-1.72992974-2.25499742-4.78765764-3.74081604-7.49663833-3.04805759-2.99320644.76529809-5.10087663 4.81308911-3.18686285 7.72313234 1.11122329 1.6893077 3.11792338 2.34146785 4.78765764 3.06726218-1.30257865 1.35427213-1.61763848 3.35443554-2.4016524 5.03926549-.38666851.83087232-.9294403 1.77030532-1.79417506 2.05986681-.31993806.1071676-.69510133.11632212-.94748054.37712648-.31266674.32289589-.38712873.68390245-.786407.96142375-1.59324735 1.10769708-4.08197149 1.02232122-5.49417218-.4231976-1.27708301-1.30730545-.94481132-3.37602827.12177159-4.70144375-1.69780708-.7076843-4.79097115-1.61786264-4.11621111-4.26292228-3.67891949-.2442864-12.61122923-6.2108452-7.6735431-10.5707855-2.70980907-1.53149173-5.19936158-5.27429788-3.45875497-8.57360728 1.34031587-2.54057868 4.45741088-3.67623686 7.0148904-3.81096753"/>
    </g>
    <g transform="translate(0 187)">
      <path fill="rgb(178,139,103)" fill-rule="evenodd" d="M246.20755005 74.67166042c-1.8607483 20.34105683-.00100708 64.06417847 1 76.67678833.62910461 7.92663575 11.43222046 5.85128785 12.44067383-.49258423C260.65667725 144.51200772 279.97161865 44.03112698 280 22.86555481c.01083374-8.06127548-17.93634033-14.50748634-25.1162262-4.7698288-5.90316772-4.14626598-14.28192138-5.25794983-19.44772338 3.11628342-3.91073609 6.33966255-13.20281983 24.33770275-23.11264039 45.3544569-8.68144226 18.41159058-22.24684143 63.1057129-22.24684143 63.1057129l11.51657105 5.26159667s28.44795227-45.73827362 46.35980224-77.80644226c-.59461975 5.5180626-1.18569946 11.42597199-1.74539184 17.54432678z"/>
      <path fill="rgb(105,161,172)" fill-rule="evenodd" d="M190.89992237 113.12535469l39.52746167-93.63805378c9.46932164-15.23246624 36.01877245 3.09968393 32.78952956 11.93441739-7.33138107 20.05757995-44.61720191 84.99251957-46.80146526 90.96834273l-25.51552597-9.26470634z"/>
      <path fill="rgb(137,197,204)" fill-rule="evenodd" d="M281 30.1765514c0 26.54117895-11.63373869 88.9294429-11.64173319 94.7738842L241.17614953 124s7.3894087-81.36422037 6.2323663-81.91554753c-1.73556358-.82699075-71.146384 9.6067173-91.9638184 10.3945733C125.42585403 53.61511802 113.00765967 35.19881727 112 .25055648h58.14764577s74.58210115 8.90267169 98.03686847 12.38391356C278.22590169 14.1248493 281 22.86513988 281 30.17655141z"/>
      <path fill="rgb(228,228,228)" fill-rule="evenodd" d="M191.43062903 126.38061861c-.88155503-.77061387-2.23360911-.62247788-2.92739095.32073564 0 0-2.58098532 3.50891323-3.23536717 6.13349453-.65438186 2.6245813-1.03533991 7.87786409-1.03533991 7.87786409l54.72643613 13.6448381s3.89156592-6.52046974-.56428585-8.22871827c-4.45585178-1.70824853-7.38285739-2.9193449-7.38285739-2.9193449l-22.60903221-17.68162954c-.4437877-.3470688-1.08654462-.25919997-1.4208971.19424537l-2.62390511 3.55851268s-4.74970136.92433524-7.40980016.26109787c-2.6600988-.66323737-5.51756028-3.16109557-5.51756028-3.16109557z"/>
      <path fill="rgb(228,228,228)" fill-rule="evenodd" d="M248.4182776 135.35225237c-1.0417975-.5344558-2.31785241-.06362848-2.76284187 1.01940863 0 0-1.65543573 4.02908051-1.65543573 6.73400982C244 145.81060014 244.90124261 151 244.90124261 151h56.4018122s2.19852474-7.26823912-2.53823196-7.84777684c-4.7367567-.57953773-7.8698085-1.04655234-7.8698085-1.04655234l-26.2150217-11.68678736c-.51456887-.22939737-1.11697575.0113584-1.33169813.5322217l-1.68508143 4.08758988s-4.38499781 2.04593567-7.12653195 2.04593567c-2.74153414 0-6.11840355-1.73237834-6.11840355-1.73237834z"/>
      <path fill="rgb(175,185,197)" fill-rule="evenodd" d="M248.5 151h46c1.93170259 0 3.5 1.56829741 3.5 3.5s-1.56829741 3.5-3.5 3.5h-46c-1.93170259 0-3.5-1.56829741-3.5-3.5s1.56829741-3.5 3.5-3.5z"/>
      <path fill="rgb(175,185,197)" fill-rule="evenodd" d="M109 6h107c5.51915024 0 10 4.48084976 10 10v49H103c-2.2076601 0-4-1.7923399-4-4V16c0-5.51915024 4.48084976-10 10-10z"/>
      <path fill="rgb(197,207,214)" fill-rule="evenodd" d="M216 6h2.19367793c4.89752733 0 9.07440404 3.54701889 9.86788144 8.3798408L250 148h-10.68571429"/>
      <ellipse cx="245" cy="150" fill="rgb(197,207,214)" rx="18" ry="18"/>
      <g transform="translate(36 14)">
        <path fill="rgb(25,24,71)" fill-rule="evenodd" d="M152 76c0-41.94554138-34.05445862-76-76-76S0 34.05445862 0 76s34.05445862 76 76 76 76-34.05445862 76-76zm-14 0c0-34.21873093-27.78126526-62-62-62-34.21873093 0-62 27.78126907-62 62 0 34.21873474 27.78126907 62 62 62 34.21873474 0 62-27.78126526 62-62z"/>
        <rect width="8" height="132" x="72" y="10" fill="rgb(25,24,71)" rx="0" ry="0"/>
        <path fill="rgb(25,24,71)" fill-rule="evenodd" d="M121.2548475 27.91675159l2.82842633 2.82842792c.7805255.78052593.78052514 2.04790163-8e-7 2.82842712l-90.5096934 90.50964258c-.78052594.78052549-2.04790164.78052513-2.82842713-8e-7l-2.82842633-2.82842792c-.7805255-.78052593-.78052514-2.04790163 8e-7-2.82842712l90.5096934-90.50964258c.78052594-.78052549 2.04790164-.78052513 2.82842713 8e-7z"/>
        <path fill="rgb(25,24,71)" fill-rule="evenodd" d="M142.00000112 74.00003707l-.00000224 4c-6.2e-7 1.10383005-.89617108 1.9999995-2.00000113 1.99999888l-128-.0000719c-1.10383005-6.2e-7-1.9999995-.89617107-1.99999887-2.00000112l.00000224-4c6.2e-7-1.10383005.89617108-1.9999995 2.00000113-1.99999888l128 .0000719c1.10383005 6.2e-7 1.9999995.89617107 1.99999887 2.00000112z"/>
        <path fill="rgb(25,24,71)" fill-rule="evenodd" d="M124.083223 121.2548745l-2.82842951 2.82842475c-.78052637.78052505-2.04790207.78052399-2.82842713-.00000239L27.91677462 33.57355262c-.78052505-.78052637-.78052398-2.04790207.00000239-2.82842713l2.8284295-2.82842474c.78052637-.78052505 2.04790207-.78052399 2.82842713.00000239l90.50959174 90.50974424c.78052505.78052637.78052398 2.04790207-.00000239 2.82842713z"/>
      </g>
    </g>
    <g transform="translate(22 82)">
      <path fill="rgb(178,139,103)" fill-rule="evenodd" d="M198 77.61708832l36.2345581-15.91291428q9.5211792-9.48772812 18.38812256-14.42222214c1.76757813-.56274414 4.78741455-.73275375 1.56549073 3.97321701-3.22193909 4.70596695-6.39927674 9.8008461-5.11187744 11.45012665.56373596.72219849 1.59568786.77910996 2.70143127.8400917 1.4194336.07828141 2.96043396.16326905 3.78862 1.67089082.98223876 1.78804016-5.3040619 3.92690277-18.8588562 6.41659546l-27.13754273 20.80641174L198 77.61708832zM51.5082817 82L72 86.06584167q-30.91187286 57.60780335-33.15496826 61.06436158c-2.91384506 4.49014282-.94981003 12.21832275.38196945 17.45866394.2060318.81071472.3969345 1.56188965.55230331 2.23231506-3.41628265.79524231-4.59560394-1.19761658-5.83892059-3.29859924-1.40429306-2.37301636-2.89022636-4.88398743-7.7732277-3.67138672-1.88654899.46847534-3.70866775 1.10171509-5.48886489 1.72036743-6.1491251 2.13697815-11.79805756 4.10011292-17.87441301-1.50082397-.9633267-.88795472-1.66852749-3.66345215 1.61594152-5.08699036 8.18281079-3.54655457 20.27222347-10.18740845 22.23252201-12.76565552Q30.66217041 136.94424438 51.50828171 82z"/>
      <path fill="rgb(31,40,207)" fill-rule="evenodd" d="M127.6949953 5.33202834l8.6471231-1.48316788c18.8342622 18.27010313 26.52016873 62.16359952 39.07185676 67.97363505 11.86711317 5.49315351 28.68962585.17750532 48.68584888-6.99999848l6.12371776 13.68209256c-18.16849575 19.6559894-56.87433042 36.26226451-72.56344882 26.78205635-25.08363908-15.15688224-30.87434134-69.29295872-29.96509768-99.9546176z"/>
      <path fill="rgb(221,227,233)" fill-rule="evenodd" d="M90 114h76.5114507c3.4961831 0 2.83739407-5.0483629 2.33199964-7.59579448-5.8328626-29.40043923-28.60214608-61.09269004-28.60214608-102.94347522L118.1718001 0C99.91748497 29.35840682 93.6048263 65.50454992 90 114z"/>
      <path fill="rgb(43,68,255)" fill-rule="evenodd" d="M27 141.85882568Q42.49589157 45.75659943 116.7480545 0h8.73834229s29.71878815 101.30541992 16.38588715 135H73c1.08963013-16.43654633 4.58339691-33.81879425 9.36875916-50.76683044Q58.97270584 126.43515015 43.03744506 145L27 141.85882568z"/>
    </g>
  </g>
  <g opacity=".5" transform="translate(26 170)">
    <path fill="rgb(105,161,172)" fill-rule="evenodd" d="M81.76538164 51.2099103c1.9279502-2.75339023 5.50567406-9.74609752 8.21922789-10.7299665 1.74777954-.6337026 1.23818964 5.92146514 1.25977366 7.17139183.08405449 4.8357694-.38597795 9.64087627-.96643015 14.43604503-1.04574208 8.64806726-4.46522724 16.34982852-9.1553046 23.71022351-2.41341433 3.78737115-5.24415792 7.62066583-9.16487025 9.98380393-1.80470764 1.0882729-3.9762242 1.27048588-5.75848632 2.20812148-2.07570438 1.09153037-.94527986.2091427-1.88072915 2.37556815-1.29906932 3.00779208-1.71458576 6.88816449-2.31564471 10.09758558-2.75976807 14.73298696-9.44111484 92.61539792-8.28282551 107.60166173.10287463 1.32831659-1.74635379 1.64596273-1.83866832.024366-.49066774-8.5981605 3.75519215-68.14028967 5.89730045-87.61227805 2.1421083-19.47198838 4.30982408-36.67451611 6.4833887-43.41121446 2.63685773-8.17304683 7.39917381-18.00176673 11.3634694-25.62348668 1.84138545-3.54087902 3.84853192-6.95977678 6.1397989-10.23182155z"/>
    <path fill="rgb(193,222,226)" fill-rule="evenodd" d="M96.0753006 146.71144019c5.01679055-3.6889804 10.44708946 3.27322574 5.9074109 6.9627733-2.50964196 2.03935801-5.13332605 1.31390272-6.61038873-.38560235-.95884924 1.17064432-1.85629974 2.39466647-2.71863302 3.42853989-2.62730926 3.1504085-5.11051368 6.37601033-7.48373738 9.67682323-4.93000547 6.85735816-9.15493115 14.10201063-13.57239163 21.21418891-4.3594558 7.01933296-8.6840531 14.0746184-12.63540521 21.27179207-3.34735614 6.09775136-7.8089566 13.27126652-8.95498707 19.95620295 1.73883213-14.17759326 8.33691214-27.80477046 16.1940746-40.30340517 7.79322832-12.395959 16.7368633-25.9337224 28.8036721-35.71634211-1.2281058-1.80888117-1.2621982-4.3909213 1.07038544-6.10497072z"/>
    <path fill="rgb(105,161,172)" fill-rule="evenodd" d="M.87773894 112.13466558c2.80739511.54990693 7.39464708 6.91076315 9.7087778 9.33429889 2.75018885 2.88003235 5.24529267 5.9497368 7.59722164 9.16602349 5.06322148 6.9229238 9.59138318 14.28342891 13.44186094 21.95914695 6.27728691 12.51295606 11.30621 25.35793903 14.95591464 38.98384735 2.23411656 8.34091097 3.68061456 16.98594075 4.53788714 25.5705997.16189957 1.61901533 1.85663337 14.10131633-.5853743 14.43774874-2.1963284.3029364-1.51796454-9.47806724-1.62392152-10.8085246-1.19772828-15.01004837-4.78578272-29.61469936-9.77673358-43.76242167-1.08710064-3.0819473-2.09705558-6.85678218-3.835586-9.6302372-1.25198547-1.9976756-.00897836-1.30102174-2.20917819-2.0570455-1.88922218-.6495552-4.04172198-.49083239-5.97632825-1.28594197-4.20274093-1.726255-7.56793079-5.07743017-10.51775003-8.44831827-5.73253276-6.55102537-10.27527338-13.63820973-12.64321213-22.03238173-1.31356872-4.65429393-2.52067132-9.33566102-3.19053914-14.13387567-.17328314-1.24019754-1.69126102-7.6471094.11696098-7.2929185z"/>
    <path fill="rgb(137,197,204)" fill-rule="evenodd" d="M11.95646759 6.30265871C22.53134358 24.6713002 31.22134346 44.84877125 36.83253903 65.2854979c3.39971479 12.38239134 5.7772374 25.08854427 8.1394954 37.70291271 3.65753047 19.5317766 7.11713472 39.06204631 8.10122834 58.9407656.99006132 19.99392166 2.94784074 43.05456136-3.58872229 62.3118784 3.265046-19.55140904.15650057-40.3623617-.39389664-60.03511113-.26302161-9.39145189-1.02520943-18.69108644-2.0250573-28.0276595-.97025282-9.0569778-2.5553714-18.07082797-4.03147398-27.0566179-.7190369-4.37624213-1.47418767-8.74589967-2.243036-13.11316713-.22952759-1.30297954-.32648492-5.16937467-1.15170692-6.05949747-.83056651-.8959837-5.06822656-1.26124576-6.39865555-1.91866506-2.67902696-1.32412296-5.1990134-3.20494353-7.42926687-5.1922714-4.2754251-3.80965722-7.99482973-8.78743728-10.93048147-13.69439656-6.79233669-11.3539318-9.50790958-25.20986286-9.37065354-38.3591605C5.53668419 28.23150854 9.63596753.73978932 7.9896294.3612056 8.08875292.24493252 8.18251619.12487708 8.27092708 0c1.24641904 2.0902136 2.46951723 4.1945923 3.68554051 6.30265871z"/>
    <path fill="rgb(137,197,204)" fill-rule="evenodd" d="M126.09429653 72.55084399c.16316652-.23572102 1.22512262-1.87509029.6903548-1.77031946 1.08880655-.21331718-1.49758464 1.80804986 1.21534867.56774827-1.28811958 1.21847936-.54470436 2.80130317-.5275114 4.44124278.02804993 2.66253343-.41672464 5.30323348-.91739443 7.9086392-.7911364 4.11835121-1.96971645 8.12259224-3.68040377 11.95315362-3.72849642 8.3476645-10.05967438 16.38381699-17.57595925 21.6027161-3.71058185 2.57678-7.34711724 3.45407845-11.57903807 4.6403307-2.67306043.7494332-2.8850383 2.13436442-4.30390521 4.73239154-2.9539743 5.41113474-5.85534142 10.8028053-8.46048457 16.39651231-3.11071372 6.67947497-6.13046647 13.36631205-8.97896976 20.1633705-9.5960969 22.89552965-17.40642966 46.61564089-21.50817777 71.16365294-.10042803-14.46606847 3.24075165-29.3648817 7.45532665-43.15345112 3.07006436-10.04603876 7.06671154-19.73011623 11.32952612-29.31615827 1.03296623-2.32233137 2.59833283-5.3096369 3.03700005-7.87359127.30715491-1.79643362-.63190837-3.5240758-1.06186356-5.41647962-1.67620292-7.36937052-1.55623154-15.62544078-.08427614-23.03421476 1.62294374-8.16957935 6.316422-11.96135834 14.25604665-13.11852648 2.90367964-.42328032 6.59433129-.26814528 9.2568625-1.50818752 2.90078786-1.3503655 4.0974066-5.7889996 5.74690075-8.6382539 4.43048526-7.6536987 9.69454304-14.99406324 15.73913536-21.44293933 1.6736902-1.78577586 3.4735883-3.43327519 5.38307897-4.96030492 1.20412366-.96347092 3.7478006-2.15046564 4.56840341-3.33733131z"/>
    <path fill="rgb(193,222,226)" fill-rule="evenodd" d="M35.25204904 224.4552813c-.44449761-3.01884844 1.89526897-5.72835098 4.94666604-5.72835098h21.91081357c3.05139707 0 5.39116365 2.70950254 4.94666603 5.72835099l-.98052836 6.65935302C64.98587942 238.51602724 58.63531512 244 51.15412186 244c-7.48119325 0-13.83175756-5.48397276-14.92154445-12.88536567l-.98052837-6.65935302z"/>
  </g>
  <g transform="translate(25.5853564 -74.99999757)">
    <g transform="translate(-3.62195122 137.67346939)">
      <ellipse cx="49.5" cy="34.5" fill="rgb(242,242,242)" rx="42.5" ry="22.5"/>
      <path fill="rgb(221,227,233)" fill-rule="evenodd" d="M99 50C99 22.38576251 76.83809512 0 49.5 0S0 22.38576251 0 50"/>
    </g>
    <rect width="5" height="145" x="43.378" y="0" fill="rgb(221,227,233)" rx="0" ry="0"/>
  </g>
  <g opacity=".7" transform="translate(109 -75)">
    <g transform="translate(-2.70731707 101.64285714)">
      <ellipse cx="37" cy="27.842" fill="rgb(242,242,242)" rx="31.768" ry="18.158"/>
      <path fill="rgb(221,227,233)" fill-rule="evenodd" d="M74 40.3508772C74 18.06570307 57.43453574 0 37 0S0 18.06570308 0 40.3508772"/>
    </g>
    <rect width="5" height="124.643" x="32.256" y="0" fill="rgb(221,227,233)" rx="0" ry="0"/>
  </g>
</svg>
