<svg xmlns="http://www.w3.org/2000/svg" width="470" height="470" viewBox="0 0 470 470">
  <path fill="rgb(250,250,250)" fill-rule="evenodd" d="M88.15938332 219.4613749c51.35992084-62.02583823 92.05873405 20.49656829 149.3323968 29.24288443 57.27366275 8.74631613 173.16560756-52.26529327 175.55524815 17.5247424 2.3896406 69.79003567-110.18521785 158.66377-205.40024664 131.63173432-95.21502879-27.03203568-170.84731915-116.3735229-119.4873983-178.39936114z"/>
  <path fill="rgb(242,242,242)" fill-rule="evenodd" d="M200.02072214 112.13950147c48.35742336 64.15252635-24.29990917 66.81815946-36.04202187 109.85391773-11.7421127 43.03575826 30.83608076 158.91216792-28.16678204 135.30978126-59.0028628-23.60238665-125.31696695-146.99388058-95.2679726-213.96914194 30.04899434-66.97526136 111.11935315-95.3470834 159.47677651-31.19455705z"/>
  <g transform="translate(36 57)">
    <path fill="rgb(221,227,233)" fill-rule="evenodd" d="M8 0h100.47228916c4.4153202 0 8 3.5846798 8 8v205.68085106c0 4.4153202-3.5846798 8-8 8H8c-4.4153202 0-8-3.5846798-8-8V8c0-4.4153202 3.5846798-8 8-8z"/>
    <ellipse cx="57.87" cy="196.723" fill="rgb(255,255,255)" rx="15" ry="15"/>
    <g transform="translate(42.86987952 11.21276596)">
      <ellipse cx="2" cy="2" fill="rgb(255,255,255)" rx="2" ry="2"/>
      <path fill="rgb(255,255,255)" fill-rule="evenodd" d="M11 0h17c1.10383005 0 2 .89616995 2 2s-.89616995 2-2 2H11c-1.10383005 0-2-.89616995-2-2s.89616995-2 2-2z"/>
    </g>
    <g transform="translate(10.25542169 20.55319149)">
      <g>
        <path fill="rgb(255,255,255)" fill-rule="evenodd" d="M4 0h87.96144578c2.2076601 0 4 1.7923399 4 4v31.63829787c0 2.2076601-1.7923399 4-4 4H4c-2.2076601 0-4-1.7923399-4-4V4c0-2.2076601 1.7923399-4 4-4z"/>
        <g transform="translate(39 11.89148936)">
          <path fill="rgb(221,227,233)" fill-rule="evenodd" d="M2.97287234 0h32.0157011c1.64077291 0 2.97287234 1.33209943 2.97287234 2.97287234s-1.33209943 2.97287234-2.97287234 2.97287234H2.97287234C1.33209943 5.94574468 0 4.61364525 0 2.97287234S1.33209943 0 2.97287234 0z"/>
          <path fill="rgb(221,227,233)" fill-rule="evenodd" d="M2.97287234 9.90957447h19.53522578c1.6407729 0 2.97287234 1.33209943 2.97287234 2.97287234 0 1.6407729-1.33209943 2.97287234-2.97287234 2.97287234H2.97287234C1.33209943 15.85531915 0 14.52321972 0 12.8824468s1.33209943-2.97287234 2.97287234-2.97287234z"/>
        </g>
        <ellipse cx="21" cy="19.819" fill="rgb(197,207,214)" rx="12" ry="12"/>
      </g>
      <g transform="translate(0 45.5106383)">
        <path fill="rgb(255,255,255)" fill-rule="evenodd" d="M4 0h87.96144578c2.2076601 0 4 1.7923399 4 4v22.82978723c0 2.2076601-1.7923399 4-4 4H4c-2.2076601 0-4-1.7923399-4-4V4c0-2.2076601 1.7923399-4 4-4z"/>
        <g transform="translate(39 9.24893617)">
          <path fill="rgb(221,227,233)" fill-rule="evenodd" d="M2.31223404 0h33.3369777c1.2761567 0 2.31223404 1.03607733 2.31223404 2.31223404S36.92536845 4.6244681 35.64921174 4.6244681H2.31223404C1.03607734 4.62446809 0 3.58839075 0 2.31223404 0 1.03607734 1.03607733 0 2.31223404 0z"/>
          <path fill="rgb(221,227,233)" fill-rule="evenodd" d="M2.31223404 7.7074468h20.85650237c1.27615671 0 2.31223405 1.03607734 2.31223405 2.31223405 0 1.2761567-1.03607734 2.31223404-2.31223405 2.31223404H2.31223404C1.03607734 12.3319149 0 11.29583756 0 10.01968085c0-1.2761567 1.03607733-2.31223404 2.31223404-2.31223404z"/>
        </g>
        <ellipse cx="21" cy="15.415" fill="rgb(197,207,214)" rx="12" ry="12"/>
      </g>
      <g transform="translate(0 82.21276596)">
        <path fill="rgb(255,255,255)" fill-rule="evenodd" d="M4 0h87.96144578c2.2076601 0 4 1.7923399 4 4v22.82978723c0 2.2076601-1.7923399 4-4 4H4c-2.2076601 0-4-1.7923399-4-4V4c0-2.2076601 1.7923399-4 4-4z"/>
        <g transform="translate(39 9.24893617)">
          <path fill="rgb(221,227,233)" fill-rule="evenodd" d="M2.31223404 0h33.3369777c1.2761567 0 2.31223404 1.03607733 2.31223404 2.31223404S36.92536845 4.6244681 35.64921174 4.6244681H2.31223404C1.03607734 4.62446809 0 3.58839075 0 2.31223404 0 1.03607734 1.03607733 0 2.31223404 0z"/>
          <path fill="rgb(221,227,233)" fill-rule="evenodd" d="M2.31223404 7.7074468h20.85650237c1.27615671 0 2.31223405 1.03607734 2.31223405 2.31223405 0 1.2761567-1.03607734 2.31223404-2.31223405 2.31223404H2.31223404C1.03607734 12.3319149 0 11.29583756 0 10.01968085c0-1.2761567 1.03607733-2.31223404 2.31223404-2.31223404z"/>
        </g>
        <ellipse cx="21" cy="15.415" fill="rgb(175,185,197)" rx="12" ry="12"/>
      </g>
      <g transform="translate(0 118.91489362)">
        <path fill="rgb(255,255,255)" fill-rule="evenodd" d="M4 0h87.96144578c2.2076601 0 4 1.7923399 4 4v22.82978723c0 2.2076601-1.7923399 4-4 4H4c-2.2076601 0-4-1.7923399-4-4V4c0-2.2076601 1.7923399-4 4-4z"/>
        <g transform="translate(39 9.24893617)">
          <path fill="rgb(221,227,233)" fill-rule="evenodd" d="M2.31223404 0h33.3369777c1.2761567 0 2.31223404 1.03607733 2.31223404 2.31223404S36.92536845 4.6244681 35.64921174 4.6244681H2.31223404C1.03607734 4.62446809 0 3.58839075 0 2.31223404 0 1.03607734 1.03607733 0 2.31223404 0z"/>
          <path fill="rgb(221,227,233)" fill-rule="evenodd" d="M2.31223404 7.7074468h20.85650237c1.27615671 0 2.31223405 1.03607734 2.31223405 2.31223405 0 1.2761567-1.03607734 2.31223404-2.31223405 2.31223404H2.31223404C1.03607734 12.3319149 0 11.29583756 0 10.01968085c0-1.2761567 1.03607733-2.31223404 2.31223404-2.31223404z"/>
        </g>
        <ellipse cx="21" cy="15.415" fill="rgb(197,207,214)" rx="12" ry="12"/>
      </g>
    </g>
  </g>
  <g transform="translate(212 103)">
    <path fill="rgb(242,242,242)" fill-rule="evenodd" d="M8 0h229.39759036c4.4153202 0 8 3.5846798 8 8v237.9787234c0 4.4153202-3.5846798 8-8 8H8c-4.4153202 0-8-3.5846798-8-8V8c0-4.4153202 3.5846798-8 8-8z"/>
    <path fill="rgb(255,255,255)" fill-rule="evenodd" d="M190.4 31.56382979h35.27710843c4.4153202 0 8 3.5846798 8 8v43.4574468c0 4.4153202-3.5846798 8-8 8H190.4c-4.4153202 0-8-3.5846798-8-8V39.5638298c0-4.4153202 3.5846798-8 8-8z"/>
    <g transform="translate(189.7253012 42.57446809)">
      <ellipse cx="18.313" cy="11.745" fill="rgb(221,227,233)" rx="11.72" ry="11.745"/>
      <path fill="rgb(221,227,233)" fill-rule="evenodd" d="M2.20212766 26.42553191h32.2222507c1.21538735 0 2.20212766.98674032 2.20212766 2.20212766 0 1.21538735-.98674031 2.20212766-2.20212766 2.20212766H2.20212766C.98674032 30.82978723 0 29.84304692 0 28.62765957c0-1.21538734.98674032-2.20212766 2.20212766-2.20212766z"/>
      <path fill="rgb(221,227,233)" fill-rule="evenodd" d="M8.06236862 33.76595745H28.5641374c1.21538734 0 2.20212766.98674032 2.20212766 2.20212766s-.98674032 2.20212766-2.20212766 2.20212766H8.06236862c-1.21538734 0-2.20212766-.98674032-2.20212766-2.20212766s.98674032-2.20212766 2.20212766-2.20212766z"/>
    </g>
    <path fill="rgb(197,207,214)" fill-rule="evenodd" d="M8 0h229.39759036c4.4153202 0 8 3.5846798 8 8v11.81914894H0V8c0-4.4153202 3.5846798-8 8-8z"/>
    <g transform="translate(9 10)">
      <ellipse cx="4" cy="4" fill="rgb(242,242,242)" rx="4" ry="4"/>
      <ellipse cx="16" cy="4" fill="rgb(242,242,242)" rx="4" ry="4"/>
      <ellipse cx="28" cy="4" fill="rgb(242,242,242)" rx="4" ry="4"/>
    </g>
    <g transform="translate(182.4 96.89361702)">
      <path fill="rgb(255,255,255)" fill-rule="evenodd" d="M8 0h35.27710843c4.4153202 0 8 3.5846798 8 8v126.40425532c0 4.4153202-3.5846798 8-8 8H8c-4.4153202 0-8-3.5846798-8-8V8c0-4.4153202 3.5846798-8 8-8z"/>
      <g transform="translate(13.18554217 13.21276596)">
        <path fill="rgb(221,227,233)" fill-rule="evenodd" d="M4 0h16.9060241c2.2076601 0 4 1.7923399 4 4v11.08510638c0 2.2076601-1.7923399 4-4 4H4c-2.2076601 0-4-1.7923399-4-4V4c0-2.2076601 1.7923399-4 4-4z"/>
        <path fill="rgb(175,185,197)" fill-rule="evenodd" d="M4 24.9574468h16.9060241c2.2076601 0 4 1.79233991 4 4v10.35106384c0 2.2076601-1.7923399 4-4 4H4c-2.2076601 0-4-1.7923399-4-4V28.9574468c0-2.2076601 1.7923399-4 4-4z"/>
        <path fill="rgb(221,227,233)" fill-rule="evenodd" d="M4 49.18085106h16.9060241c2.2076601 0 4 1.7923399 4 4V63.5319149c0 2.2076601-1.7923399 4-4 4H4c-2.2076601 0-4-1.7923399-4-4V53.18085106c0-2.2076601 1.7923399-4 4-4z"/>
        <path fill="rgb(221,227,233)" fill-rule="evenodd" d="M4 97.62765957h16.9060241c2.2076601 0 4 1.7923399 4 4v10.35106383c0 2.2076601-1.7923399 4-4 4H4c-2.2076601 0-4-1.7923399-4-4v-10.35106383c0-2.2076601 1.7923399-4 4-4z"/>
        <path fill="rgb(197,207,214)" fill-rule="evenodd" d="M4 73.40425532h16.9060241c2.2076601 0 4 1.7923399 4 4v10.35106383c0 2.2076601-1.7923399 4-4 4H4c-2.2076601 0-4-1.7923399-4-4V77.40425532c0-2.2076601 1.7923399-4 4-4z"/>
      </g>
    </g>
    <g transform="translate(11.72048193 32.29787234)">
      <g>
        <path fill="rgb(255,255,255)" fill-rule="evenodd" d="M4 0h156.8192771c2.2076601 0 4 1.7923399 4 4v26.5c0 2.2076601-1.7923399 4-4 4H4c-2.2076601 0-4-1.7923399-4-4V4c0-2.2076601 1.7923399-4 4-4z"/>
        <g transform="translate(9 10.35)">
          <path fill="rgb(221,227,233)" fill-rule="evenodd" d="M2.5875 0h101.6442771c1.42808013 0 2.5875 1.15941987 2.5875 2.5875s-1.15941987 2.5875-2.5875 2.5875H2.5875C1.15941987 5.175 0 4.01558013 0 2.5875S1.15941987 0 2.5875 0z"/>
          <path fill="rgb(221,227,233)" fill-rule="evenodd" d="M2.5875 8.625h66.52561066c1.42808013 0 2.5875 1.15941987 2.5875 2.5875s-1.15941987 2.5875-2.5875 2.5875H2.5875C1.15941987 13.8 0 12.64058013 0 11.2125S1.15941987 8.625 2.5875 8.625z"/>
        </g>
        <g transform="translate(140.20500322 10.25)">
          <ellipse cx="7" cy="7" fill="rgb(221,227,233)" rx="7" ry="7"/>
          <ellipse cx="7" cy="7" fill="rgb(242,242,242)" rx="3" ry="3"/>
        </g>
      </g>
      <g transform="translate(0 40.37234043)">
        <path fill="rgb(255,255,255)" fill-rule="evenodd" d="M4 0h156.8192771c2.2076601 0 4 1.7923399 4 4v20.62765957c0 2.2076601-1.7923399 4-4 4H4c-2.2076601 0-4-1.7923399-4-4V4c0-2.2076601 1.7923399-4 4-4z"/>
        <g transform="translate(9 8.58829787)">
          <path fill="rgb(221,227,233)" fill-rule="evenodd" d="M2.14707447 0h102.52512817c1.18500266 0 2.14707447.96207181 2.14707447 2.14707447 0 1.18500266-.96207181 2.14707447-2.14707447 2.14707447H2.14707447C.9620718 4.29414894 0 3.33207713 0 2.14707447 0 .9620718.96207181 0 2.14707447 0z"/>
          <path fill="rgb(221,227,233)" fill-rule="evenodd" d="M2.14707447 7.1569149h67.40646172c1.18500266 0 2.14707447.9620718 2.14707447 2.14707446 0 1.18500266-.9620718 2.14707447-2.14707447 2.14707447H2.14707447C.9620718 11.45106383 0 10.48899202 0 9.30398936 0 8.1189867.96207181 7.1569149 2.14707447 7.1569149z"/>
        </g>
        <g transform="translate(140.20500322 7.31382979)">
          <ellipse cx="7" cy="7" fill="rgb(221,227,233)" rx="7" ry="7"/>
          <ellipse cx="7" cy="7" fill="rgb(242,242,242)" rx="3" ry="3"/>
        </g>
      </g>
      <g transform="translate(0 74.87234043)">
        <path fill="rgb(255,255,255)" fill-rule="evenodd" d="M4 0h156.8192771c2.2076601 0 4 1.7923399 4 4v20.62765957c0 2.2076601-1.7923399 4-4 4H4c-2.2076601 0-4-1.7923399-4-4V4c0-2.2076601 1.7923399-4 4-4z"/>
        <g transform="translate(9 8.58829787)">
          <path fill="rgb(221,227,233)" fill-rule="evenodd" d="M2.14707447 0h102.52512817c1.18500266 0 2.14707447.96207181 2.14707447 2.14707447 0 1.18500266-.96207181 2.14707447-2.14707447 2.14707447H2.14707447C.9620718 4.29414894 0 3.33207713 0 2.14707447 0 .9620718.96207181 0 2.14707447 0z"/>
          <path fill="rgb(221,227,233)" fill-rule="evenodd" d="M2.14707447 7.1569149h67.40646172c1.18500266 0 2.14707447.9620718 2.14707447 2.14707446 0 1.18500266-.9620718 2.14707447-2.14707447 2.14707447H2.14707447C.9620718 11.45106383 0 10.48899202 0 9.30398936 0 8.1189867.96207181 7.1569149 2.14707447 7.1569149z"/>
        </g>
        <g transform="translate(140.20500322 7.31382979)">
          <ellipse cx="7" cy="7" fill="rgb(221,227,233)" rx="7" ry="7"/>
          <ellipse cx="7" cy="7" fill="rgb(175,185,197)" rx="3" ry="3"/>
        </g>
      </g>
      <g transform="translate(0 178.37234043)">
        <path fill="rgb(255,255,255)" fill-rule="evenodd" d="M4 0h156.8192771c2.2076601 0 4 1.7923399 4 4v20.62765957c0 2.2076601-1.7923399 4-4 4H4c-2.2076601 0-4-1.7923399-4-4V4c0-2.2076601 1.7923399-4 4-4z"/>
        <g transform="translate(9 8.58829787)">
          <path fill="rgb(221,227,233)" fill-rule="evenodd" d="M2.14707447 0h102.52512817c1.18500266 0 2.14707447.96207181 2.14707447 2.14707447 0 1.18500266-.96207181 2.14707447-2.14707447 2.14707447H2.14707447C.9620718 4.29414894 0 3.33207713 0 2.14707447 0 .9620718.96207181 0 2.14707447 0z"/>
          <path fill="rgb(221,227,233)" fill-rule="evenodd" d="M2.14707447 7.1569149h67.40646172c1.18500266 0 2.14707447.9620718 2.14707447 2.14707446 0 1.18500266-.9620718 2.14707447-2.14707447 2.14707447H2.14707447C.9620718 11.45106383 0 10.48899202 0 9.30398936 0 8.1189867.96207181 7.1569149 2.14707447 7.1569149z"/>
        </g>
        <g transform="translate(140.20500322 7.31382979)">
          <ellipse cx="7" cy="7" fill="rgb(221,227,233)" rx="7" ry="7"/>
          <ellipse cx="7" cy="7" fill="rgb(242,242,242)" rx="3" ry="3"/>
        </g>
      </g>
      <g transform="translate(0 143.87234043)">
        <path fill="rgb(255,255,255)" fill-rule="evenodd" d="M4 0h156.8192771c2.2076601 0 4 1.7923399 4 4v20.62765957c0 2.2076601-1.7923399 4-4 4H4c-2.2076601 0-4-1.7923399-4-4V4c0-2.2076601 1.7923399-4 4-4z"/>
        <g transform="translate(9 8.58829787)">
          <path fill="rgb(221,227,233)" fill-rule="evenodd" d="M2.14707447 0h102.52512817c1.18500266 0 2.14707447.96207181 2.14707447 2.14707447 0 1.18500266-.96207181 2.14707447-2.14707447 2.14707447H2.14707447C.9620718 4.29414894 0 3.33207713 0 2.14707447 0 .9620718.96207181 0 2.14707447 0z"/>
          <path fill="rgb(221,227,233)" fill-rule="evenodd" d="M2.14707447 7.1569149h67.40646172c1.18500266 0 2.14707447.9620718 2.14707447 2.14707446 0 1.18500266-.9620718 2.14707447-2.14707447 2.14707447H2.14707447C.9620718 11.45106383 0 10.48899202 0 9.30398936 0 8.1189867.96207181 7.1569149 2.14707447 7.1569149z"/>
        </g>
        <g transform="translate(140.20500322 7.31382979)">
          <ellipse cx="7" cy="7" fill="rgb(221,227,233)" rx="7" ry="7"/>
          <ellipse cx="7" cy="7" fill="rgb(242,242,242)" rx="3" ry="3"/>
        </g>
      </g>
      <g transform="translate(0 109.37234043)">
        <path fill="rgb(255,255,255)" fill-rule="evenodd" d="M4 0h156.8192771c2.2076601 0 4 1.7923399 4 4v20.62765957c0 2.2076601-1.7923399 4-4 4H4c-2.2076601 0-4-1.7923399-4-4V4c0-2.2076601 1.7923399-4 4-4z"/>
        <g transform="translate(9 8.58829787)">
          <path fill="rgb(221,227,233)" fill-rule="evenodd" d="M2.14707447 0h102.52512817c1.18500266 0 2.14707447.96207181 2.14707447 2.14707447 0 1.18500266-.96207181 2.14707447-2.14707447 2.14707447H2.14707447C.9620718 4.29414894 0 3.33207713 0 2.14707447 0 .9620718.96207181 0 2.14707447 0z"/>
          <path fill="rgb(221,227,233)" fill-rule="evenodd" d="M2.14707447 7.1569149h67.40646172c1.18500266 0 2.14707447.9620718 2.14707447 2.14707446 0 1.18500266-.9620718 2.14707447-2.14707447 2.14707447H2.14707447C.9620718 11.45106383 0 10.48899202 0 9.30398936 0 8.1189867.96207181 7.1569149 2.14707447 7.1569149z"/>
        </g>
        <g transform="translate(140.20500322 7.31382979)">
          <ellipse cx="7" cy="7" fill="rgb(221,227,233)" rx="7" ry="7"/>
          <ellipse cx="7" cy="7" fill="rgb(242,242,242)" rx="3" ry="3"/>
        </g>
      </g>
    </g>
  </g>
  <g transform="translate(139 22)">
    <g transform="translate(82)">
      <path fill="rgb(249,206,168)" fill-rule="evenodd" d="M92.14334106 40.13393307c5.79481125 10.8011217 5.1062355 38.1990633-2.38304138 40.12952518-2.9867134.76986695-9.34929657-1.1159935-15.82492256-5.01914596L78 104H54l8.26227379-38.50987244c-4.60790944-5.40875053-7.72663903-12.03725052-7.2054975-19.464674 1.50155377-21.40047406 31.29175353-16.69264244 37.08656477-5.8915205z"/>
      <path fill="rgb(25,24,71)" fill-rule="evenodd" d="M88.16444397 28.273386c5.06624603.6117611 9.23757172 1.11545944 11.06256103-.04660797 1.30244446 8.16370583-2.89855957 14.74627876-17.66831207 13.4736309-3.25699615 1.82188035-5.57485962 5.23580933-8.36508178 9.71387482C72.51403045 51.14688873 71.77403259 51 71 51c-3.31149292 0-6 2.6885109-6 6 0 1.68101501.69280243 3.20149231 1.80820465 4.2912445-1.3884964 1.9598999-2.94462204 4.0072937-4.72781753 6.11994935-6.65335083-3.99173737-11.60194779-15.62579346-5.2492714-26.85695648 3.7917366-15.60656739 19.8581543-13.66650773 31.33332825-12.28085137z"/>
    </g>
    <g transform="translate(0 187)">
      <path fill="rgb(178,139,103)" fill-rule="evenodd" d="M116.6440448.00001877c1.80311795 24.60963525 117.96264032 97.06346987 118.64036268 99.09636852.45181491 1.35526576-36.15608996 85.68169546-36.15608996 85.68169546l10.15412933 3.94580576s56.1502841-89.30783775 53.26620908-98.82392247C258.4194865 76.27565816 172.4219552.26170116 172.4219552.26170116L116.6440448.00001877z"/>
      <path fill="rgb(208,85,85)" fill-rule="evenodd" d="M201.80045735 172.08194519l16.5781789 6.03478664c34.95746453-39.44241511 48.65983917-71.98613223 46.16139463-88.56758073C262.04158635 72.9677026 174.7242558.06027698 174.7242558.06027698l-59.26908743.00002034c2.02231013 56.99223172 109.687696 99.25303383 111.12776428 101.681646 1.4400683 2.42861216-12.73194774 26.21496538-24.7824753 70.34000187z"/>
      <path fill="rgb(228,228,228)" fill-rule="evenodd" d="M198.32624817 182.79044318c-.79617466-.85853999-2.15630648-.8525437-2.9448804.01298283 0 0-2.93362784 3.2199045-3.85876847 5.7617065-.92514062 2.541802-1.85312952 7.72648576-1.85312952 7.72648576l53.0003643 19.2905625s4.55182243-6.07797035.29894096-8.2426244c-4.25288148-2.16465406-7.03725855-3.67507142-7.03725855-3.67507142l-20.63694326-19.9480559c-.405078-.39155598-1.05349862-.37135493-1.43341745.04465703l-2.98149707 3.2647459s-4.82030135.42279247-7.39650063-.51486775c-2.57619929-.93766022-5.15690991-3.72052105-5.15690991-3.72052105z"/>
      <path fill="rgb(153,118,89)" fill-rule="evenodd" d="M130 0L78.25403763 124.22690916l-50.858227 105.02338058h11.99910181L170.67368775 0H130z"/>
      <path fill="rgb(228,228,228)" fill-rule="evenodd" d="M29.4182776 223.35225237c-1.0417975-.5344558-2.31785241-.06362848-2.76284187 1.01940863 0 0-1.65543573 4.02908051-1.65543573 6.73400982C25 233.81060014 25.90124261 239 25.90124261 239h56.4018122s2.19852474-7.26823912-2.53823196-7.84777684c-4.7367567-.57953773-7.8698085-1.04655234-7.8698085-1.04655234l-26.2150217-11.68678736c-.51456887-.22939737-1.11697575.0113584-1.33169813.5322217l-1.68508143 4.08758988s-4.38499781 2.04593567-7.12653195 2.04593567c-2.74153414 0-6.11840355-1.73237834-6.11840355-1.73237834z"/>
      <path fill="rgb(255,103,104)" fill-rule="evenodd" d="M31.98854881 207.43288902l26.6621371 5C79.2657755 182.12487453 165.5407671 57.85183904 175 0h-59.3559269C84.05488056 41.82102199 51.6389867 176.62352186 31.9885488 207.43288902z"/>
    </g>
    <g transform="translate(22 82)">
      <path fill="rgb(249,206,168)" fill-rule="evenodd" d="M192.00000763 65.31079102l39.48287964-5.38562775c7.89816284-4.39313507 15.16409302-7.3672142 21.79782104-8.92223358 1.86679077-.0545044 4.83648682.62412262.41244507 4.3122673s-8.9128418 7.76800156-8.12463379 9.73630142c.78823853 1.96829224 4.90255738 1.23595429 5.58410645 4.2633667.45440674 2.0182724-6.22286988 2.34622193-20.0317688.98384094L199.08386994 83l-7.08386231-17.68920898zm-171.99543 108.37887573c7.35775567-5.04510498 17.96072007-13.87498474 19.3933487-16.78140259 2.93046951-5.94514465 28.5718689-82.45858002 28.5718689-82.45858002l21.8973999.08218384s-36.01663971 81.05071259-37.55926895 84.87374115c-2.00392151 4.96621704 1.40001297 12.18170166 3.70816421 17.07441712.35708618.75692749.6879425 1.4582672.96849442 2.0870819-3.20269013 1.43310547-4.74114609-.29910278-6.3630867-2.12532043-1.8319397-2.06266785-3.77038193-4.24525452-8.33358002-2.1222992-1.76298141.8202057-3.4312439 1.789917-5.0611267 2.73731995-5.6299801 3.27252197-10.80197907 6.27885437-17.83775521 1.9375763-1.11543083-.68826294-2.33776093-3.27966309.61554146-5.30471802z"/>
      <path fill="rgb(71,79,94)" fill-rule="evenodd" d="M127.94941292 4.9999984l17.14494231 1.14216086c4.22245072 38.20121238 27.22204535 62.3306289 78.71667241 54.1618535l6.84132093 49.19464762c-48.1295487 6.22018129-90.33932977-13.04885292-98.98994041-65.22021118-2.23936981-13.5055165-4.0075807-27.56063118-3.71299524-39.2784508z"/>
      <path fill="rgb(107,119,141)" fill-rule="evenodd" d="M42.40163422 147Q60.25723648 51.99594498 117.77587128 0h1.70127868l.01366425.01593845 25.97679138 5.94933827C145.4676056 50.64442444 159.70002747 79.15045929 167 112H96.84365082c-.98827362 11.35089874-1.59516907 23.01756287-1.9114151 35h-52.5306015z"/>
      <path fill="rgb(0,0,0)" fill-opacity=".1" fill-rule="evenodd" d="M96.84365082 112c2.01204681-23.10946655 5.60490417-44.91008759 11.54432678-65.4018631C107.08617401 68.51229858 106.72484589 95.69792175 111.10244751 112h-14.2587967z"/>
    </g>
  </g>
</svg>
