<svg xmlns="http://www.w3.org/2000/svg" width="470" height="470" viewBox="0 0 470 470">
  <defs>
    <rect id="rect-8" width="170" height="160" x="0" y="0"/>
  </defs>
  <g opacity=".346" transform="scale(-1 1) rotate(32.000011 -212.4633206 -693.82810866)">
    <path fill="rgb(242,242,242)" fill-rule="evenodd" d="M332.86476623 78.7563161C328.34598603 20.3138026 85.89419-92.48640545 40.88385923-37.13081163c-45.01033076 55.35559382-1.7384803 159.24356292 92.5865477 185.84662787 94.32502798 26.60306496 203.91313951-11.51698665 199.3943593-69.95950016z"/>
    <path fill="rgb(221,227,233)" fill-rule="evenodd" d="M198.09014943 216.08260603c3.85647819-49.64920163 210.77295114-145.47739138 249.18627305-98.45064878 38.41332191 47.0267426 28.69016072 145.94204686-51.80997342 168.54239131-80.50013414 22.60034446-201.23277782-20.4425409-197.37629963-70.09174253z"/>
  </g>
  <g transform="translate(281 326)">
    <path fill="rgb(221,227,233)" fill-rule="evenodd" d="M4.89585554 17.61108888c9.19599207 15.43244802 19.90639963 30.3753006 26.33837935 47.24841644-.25919273-1.98882666-.534023-3.97559322-.84163898-5.9595326-1.63202676-10.51685097-3.66037054-20.95696096-5.79181463-31.38427239-1.085458-5.30908056-2.23346007-10.59892099-3.41090573-15.8883091-.63326684-2.84093216-1.25876922-5.6835953-1.90508477-8.52182215C19.12823904 2.41765778 18.99372904 1.21694898 18.7977339 0c6.2508631 20.51879455 12.27880276 41.0530611 16.68802664 62.06513487.57843144 2.75761044 1.07100925 5.5103213 1.47449788 8.25824275.13802837-.6268675.27379177-1.25384125.42239068-1.87899083 1.78405388-7.49424678 4.4601923-14.92884555 7.6466037-21.93611184 1.52329359-3.35104293 3.27301109-6.62869975 5.33314516-9.68280833 1.28466109-1.90376076 4.31429148-4.16679397 5.48622082-6.11652241C49.4393877 42.46801758 47.12513342 57.18105678 43.42444087 69.965276c-.90326732 3.11971507-1.81214579 6.23436562-2.70268623 9.35450299C46.30255568 68.124115 54.96129014 58.92551656 67 54.93925039c-14.57239414 9.63158099-23.31305896 26.49888714-29.20306652 43.74991025-.01940816.20458734-.0424833.40917728-.06243055.61408853 1.7332089-3.2904781 3.91644627-6.26670557 6.87542395-8.35121238 6.33302673-4.46241965 13.35842274-3.16244083 19.50168663.66540906-4.82142814-3.0658187-13.53515423-.27409606-17.5919352 2.841932-2.9042154 2.2305918-5.38619634 5.2231001-7.5415312 8.1425836-.5164439.69982134-1.22102656 1.5163522-1.96537668 2.38758654-1.0436094 6.77647233-2.7442845 13.50650163-5.15207293 20.18311388.3973481-1.91639368.1100573-4.9813412.22024743-6.40976771.01199393-.15465189.0217229-.30941.03360922-.46363045-.36599876 1.46182345-.71960364 2.90703064-1.06006336 4.32893491.6767854-2.71331853 1.04461406-5.54579668 1.33175254-8.40755004.07395357-1.22986627.14607365-2.45973124.22229219-3.68949128-.02415652-2.33397584-.12025605-4.67717478-.28279504-7.02410085-.57633414-2.2809567-1.22162251-4.43245566-1.75378838-6.22169088-1.92033519-6.45612555-4.73548395-12.64125803-8.2004326-18.411389-3.16138698-5.2655454-6.9455658-10.03512023-11.31416293-14.34865284-2.35506873-2.32466035-4.81976267-4.53870612-7.249745-6.78351116C2.9289161 56.93029072 1.3583361 54.93495632 0 53.89483032c9.89259308 5.45562294 20.0748027 11.35782316 27.2914689 20.14805483-.84607136-3.2500356-1.76502584-6.45407927-2.73711628-9.59391999C19.62269758 48.51892562 13.39573155 32.0089787 4.89585554 17.61108888z"/>
    <path fill="rgb(197,207,214)" fill-rule="evenodd" d="M14.77941176 104.9676259C14.77941176 122.6586176 16.17991461 137 34.97794118 137c18.79802656 0 20.1985294-14.34138239 20.1985294-32.0323741"/>
  </g>
  <g transform="matrix(-1 0 0 1 64 24)">
    <path fill="rgb(242,242,242)" fill-rule="evenodd" d="M40 20.256388C40 9.11740024 30.998 0 20 0v20.256388L33.668 35C37.556 31.39537576 40 26.10744567 40 20.256388z"/>
    <path fill="rgb(175,185,197)" fill-rule="evenodd" d="M20.52921991 20H.332c0 5.221 2.12979684 10.113 5.4966734 13.668C9.53183367 37.556 14.80532779 40 20.5292199 40 25.80170417 40 30.62782987 37.891 34.332 34.557L20.52921991 20z"/>
    <path fill="rgb(197,207,214)" fill-rule="evenodd" d="M20 0C9.00199986 0 0 9.00199986 0 20h20V0zm2 18l8-18c4.22299957 1.77999997 8.22000122 5.33400011 10 10l-18 8z"/>
  </g>
  <g opacity=".5" transform="translate(263 44)">
    <path fill="rgb(221,227,233)" fill-rule="evenodd" d="M55.50901743.36169818c-8.42423468.09463438-16.84429665.40544338-25.25184049.93752983-7.99537298.50657229-16.6704338.12200413-24.53552554 1.6718741-2.23332628.43977154-5.25019447 2.47533855-2.28061697 4.71409114C5.5283159 9.2591857 13.16483596 7.4486073 15.6573338 7.29552227c9.17903126-.56409514 18.36269887-1.23998875 27.5547119-1.56471457 8.7019516-.30756174 17.40343957-.41611295 26.10956388-.50286113 1.32923945-.01298903 3.53567494-.43930765 4.85935078-.05334781 1.90182778.55481726 1.45071163.70558282 1.59304735 3.11968736.2582443 4.37405682.18684461 8.76388604.100145 13.14211792-.0839178 4.23674419-.24062618 8.47302448-.22532625 12.71162425.01066359 3.0241252-.95601386 9.03340848.5614611 11.6595126 2.18418104 3.78027246 4.44996172-.32565362 4.61316098-2.8376398.3124895-4.80455048.17247195-9.66801551.17386285-14.47859662.00092727-4.5155445.03338167-9.03108901-.12564488-13.54431404-.11544494-3.26024726.3505075-8.95129924-1.40573911-11.9151182C77.67722639.01331375 73.37052766.66415708 70.22801458.52034992c-4.90200513-.2254525-9.81281931-.2096801-14.71899715-.15865175"/>
    <path fill="rgb(221,227,233)" fill-rule="evenodd" d="M1.90960914 5.81040304C1.91888183 14.29456098.93736808 22.72212386.66243296 31.19654003c-.12610853 3.89624597-.38203464 8.17474062.60365181 11.99954691.99495915 3.86191782 4.15509033 4.69878265 4.51904323.38735152.73717849-8.73048567.55636112-17.7833777 1.13034035-26.58391138.20260817-3.10716222 1.52118404-8.80146146.29023505-11.71100483-1.08397692-2.56301452-5.3007306-3.0542783-5.29609426.52188079"/>
    <path fill="rgb(221,227,233)" fill-rule="evenodd" d="M80.90592908 43.207554c-14.62997938 1.93675759-29.92434666 1.23071087-44.65864374 1.53502535-7.0690317.14612662-14.13667251.1554045-21.20663149.22916366-2.46746158.02551417-8.73347873-.91294346-10.8680509.4740997-3.39797557 2.20813559.28884414 3.91201837 2.53839762 3.96072724 13.95214607.30570617 28.05960962-.33585928 42.00897389-.79372269 6.26740805-.20550506 12.55521601-.30617006 18.80593324-.8387204 3.84816443-.32797309 8.05332726-.6457405 11.79021947-1.6797603.79606004-.22081356 2.52958857-.17488805 2.70808777-1.26086398.10988132-.67171855-.08948142-1.76790015-1.11828586-1.62594858"/>
    <path fill="rgb(221,227,233)" fill-rule="evenodd" d="M20.07020477 55.54017684c-4.06607254.0236586-16.31899901-1.86485401-18.00291868 2.10004828-2.24491713 5.28792806 6.51267058 4.05350605 8.86793267 3.99319982 5.3494122-.13731263 10.69511533-.15215724 16.04591843-.14983777 5.25019447.00231947 10.4999253-.0315448 15.7491925-.15633229 1.5207204-.03664763 5.06056805.59471215 5.93544592-1.23674149.66485154-1.3916821.13955392-2.48971927-1.08675873-3.22638299-2.95056849-1.77346688-10.61583387-.74501381-14.0703728-.90459336-4.4726798-.20596895-8.9601959-.4193602-13.4384393-.4193602"/>
    <path fill="rgb(221,227,233)" fill-rule="evenodd" d="M69.53668952 56.5191788c-2.32373496.13824042-7.02405918-.81970075-9.10577705.24354437-2.36592568 1.20890784-1.53231126 3.1015955.51046133 3.9333575 1.41454816.57569248 7.21739467.27369747 8.59531572-.39338215 1.43633897-.69584105 3.06044981-3.9718607 0-3.78351972"/>
    <path fill="rgb(221,227,233)" fill-rule="evenodd" d="M95.0127899 6.64286975c-2.48183424.68099644-1.72889219 14.77084987-1.79287372 17.00449963-.17525375 6.11969007-.863287 13.81661984 1.1702129 19.71039351 1.29678505 3.75707776 3.78742835 3.24772212 3.363203-.7079023-.37276196-3.47178292-1.01211362-6.90367097-1.28890328-10.39818471-.62590626-7.90707377-1.47760241-16.34113116-.88646872-24.25469945.2517534.45971899 2.60608823 4.72476072 3.16013118 4.40652941-.16737197.09927332-2.71550592-6.02691126-3.72530135-5.76063609"/>
    <path fill="rgb(221,227,233)" fill-rule="evenodd" d="M122.93001744 1.45347278c-5.02255004.07422305-10.04510008.1632907-15.06625922.3024589-3.9923547.11133458-10.26579-.54461158-13.92710982 1.13468481-4.35955303 1.99938328-2.29128056 6.45462156 1.80353731 6.54879205 3.62237455.08350092 7.48537528-.73341647 11.14066786-.85866786 9.87309177-.33817875 19.76380164-.41008232 29.64152975-.49451104 8.9333051-.0770064 18.24632668.87583194 27.10127759-.4657496 1.31347589 11.66275985-2.23888989 23.37469246-1.03065898 35.17151769.18730824 1.83098974.10339044 4.41812676 2.43500718 4.8351675 2.94268671.52651972 3.06369525-2.38812648 3.17543111-4.47518573.31851675-5.95918273.1460448-11.9230044.58232465-17.89007333.40428908-5.52961686 1.20034912-11.18123785.5276158-16.7196687-.82712354-6.8155311-4.09296334-6.26906394-9.86613726-6.55250319-12.19311765-.5979594-24.31066292-.7153246-36.51722597-.5362615"/>
    <path fill="rgb(221,227,233)" fill-rule="evenodd" d="M106.09768256 42.86645272c-2.55926116.06448127-6.80986015-.72413858-8.44973456 1.72986085-1.7061741 2.55327275.31805311 4.780428 2.79896009 5.30462825 2.93665946.62022632 6.7658149-.23009144 9.81374658-.23936932 3.1740402-.00927788 6.34900769.02597806 9.5230479.0385032 13.60812944.05334782 27.2746768.25931677 40.87306992-.3033867 1.89904597-.07839809 7.28879435.55852842 8.6031975-1.26318344 1.16650383-1.61574291.35050751-3.06494787-1.18551282-3.88789588-2.52031589-1.35039553-7.6967925-.83686484-10.4999253-.94402436-3.4619571-.1317459-6.92808689-.17488805-10.39189852-.22869975-13.67164734-.21107179-27.41469435-.5446116-41.08495079-.20643285"/>
    <path fill="rgb(221,227,233)" fill-rule="evenodd" d="M117.60907239 54.67037553c-5.09255882.08674818-10.52588882-.13684874-15.5679115.63553482-4.43327089.67914086-4.97896842 4.96459393-.20678089 5.46606337 4.38551656.46111067 9.70247436-.40034054 14.1093181-.6833159 1.56522928-.100665 3.38545743.04221435 4.13561767-1.68811039.78307829-1.80779504-.71399677-3.54136703-2.47024338-3.7301719"/>
    <path fill="rgb(221,227,233)" fill-rule="evenodd" d="M156.10838122 55.12021357c-2.71828772.06772853-10.65756095-1.10082054-12.00395487 2.00355832-2.24120806 5.1687073 8.50676157 3.20504387 10.56854317 3.12896524 2.59867008-.09556217 12.7267607 1.42183521 12.72907887-2.71517176.00231817-4.0567533-8.80487841-2.4790497-11.29366717-2.4173518"/>
    <path fill="rgb(221,227,233)" fill-rule="evenodd" d="M1.47007879 80.8038458c.00649088 9.40266813-.57861557 18.89347612.27910783 28.27202176.35468021 3.8790819.29394412 11.3097365 2.5407158 14.59828128 1.59490188 2.33431477 3.80690098 2.17056018 4.67806977-.63228756.58232464-1.873668-.3491166-5.62100398-.45297068-7.6254901-.100145-1.92376854-.21698084-3.8466093-.30599862-5.77084175-.2285717-4.95717162-.21048996-9.90692094-.14233572-14.86687593.05841792-4.25437216 1.08258602-9.88326234.11683584-13.9748077-.90037775-3.81320894-6.71342422-4.70481327-6.71342422 0"/>
    <path fill="rgb(221,227,233)" fill-rule="evenodd" d="M95.96676378 72.53210493c-16.31297177.40915454-32.66257065.04360604-48.96116976.85124555-8.03802733.39802108-16.04452753 1.27246133-24.04221868 2.14411821-3.92930043.42863809-7.8562827.8702652-11.77862862 1.35364279-1.18365829.14566272-11.01919568.52698362-7.31985784 4.2673612 1.6153018 1.63337088 6.75561494-.07283137 8.78957848-.31359237 3.93810948-.46482182 7.88410075-.8702652 11.82777385-1.28730594 7.50438428-.79372269 15.01804125-1.54569491 22.5544163-1.96273565 17.74931074-.98345534 35.5718757-.68841874 53.33880454-1.343901 4.80603283-.17720753 9.597693-.30431449 14.40558038-.11504572 1.26247612.04963666 10.53979785.520953 6.51174332-2.90536833-1.90460958-1.62084574-9.08584078-.7844448-11.46613912-.83315368-4.61965186-.09556217-9.24208553.02876143-13.85988285.14473494"/>
    <path fill="rgb(221,227,233)" fill-rule="evenodd" d="M118.85686064 106.48519897c-.7343979-10.3647766-.53781891-20.76528167-1.01072693-31.14073944-.20816803-4.57121276 6.01844025-5.26380157 7.86508942-1.56378173 1.32940673 2.66394043 1.09562683 7.19642639.89526367 11.0810089-.08075714 1.56560517-.15608216 3.0259781-.12145233 4.216362.07937622 2.72843934.28004455 5.54959107.4833908 8.40828705.51168824 7.1935959 1.04029084 14.625-.3044281 21.41545868-.65364074 3.30015564-3.43746185 5.03461457-5.29023742 3.23588562-.0025177.00379944-.00506592.00759888-.0076294.01137543-.69686127 1.02714539-2.86641693 1.02479553-4.46411896 1.02306366-.44003295-.00047302-.83668518-.0009079-1.14724731.02023315-4.37716675.29735566-8.67320251.7992859-13.01142883 1.44966889-8.6439972 1.2956543-17.212883 2.09216309-25.95053864 2.30833435-17.28104019.4272461-34.63348007.02783203-51.88855552 1.21169281-3.8217373.26255798-7.5855217.71253967-11.34466744 1.43203735-.31997538.06132508-.67531157.14033509-1.05356455.22445679-2.7950983.62156677-6.84152221 1.52140808-7.11798906-2.3848114-.32861805-4.63622284 9.7194643-5.24331665 14.89029026-5.55573273.7894535-.04769897 1.4652195-.0885315 1.97301483-.13578033 15.70063591-1.4605484 31.64758873-1.2343216 47.4148388-1.01065064.76393127.01084137 1.5274353.02166748 2.2904663.03230286 1.2304306.01708221 2.46051025.03733063 3.69032288.05757141 6.75087738.1111145 13.49369049.2220993 20.24247741-.19071197 7.97045899-.48753357 16.2111969-.35953522 24.12326813-1.21669007-1.01904297-3.95108032-.86992645-8.89180755-1.15583801-12.92884064z"/>
    <path fill="rgb(221,227,233)" fill-rule="evenodd" d="M131.40784824 78.69275684c-2.20365368.29967555-4.04196356 2.18586868-3.05813164 4.5781702 1.2392944 3.01206395 4.93028682 1.83516479 7.36853945 1.64450434 7.75011044-.60723729 15.84191935.60538171 23.49837567-.30941732 2.09099056-.25003888 5.12454959-1.38889873 3.24729443-4.19870488-1.41130272-2.11164563-6.55300677-1.7409943-8.73857871-1.9432521-7.47517533-.691666-14.8520602-.50703617-22.3174992.22869976"/>
    <path fill="rgb(221,227,233)" fill-rule="evenodd" d="M144.48831552 91.83399336c-3.00574097.2022578-10.00244573.04314214-11.26909455 3.46296895-2.27180792 6.13499856 6.62718825 3.97325238 9.33666692 3.62440406 3.14761305-.40544338 10.5676159.68006866 12.24365379-2.37235407 2.99693191-5.45817718-7.67546533-4.8968654-10.31122616-4.71501894"/>
    <path fill="rgb(221,227,233)" fill-rule="evenodd" d="M136.75911498 105.2977754c-1.42567538 1.42647415-1.42799355 3.97371627 0 5.40019042 1.74836483 1.74656103 5.55758399 1.3837959 7.8548918 1.51136676 3.20417643.1790631 12.40685304 1.87366799 13.99804586-1.89918217 2.14662667-5.0907731-6.1867357-4.98407748-8.9277415-5.27308346-3.16801296-.3335398-10.2996353-2.36632345-12.92519616.26070845"/>
    <path fill="rgb(221,227,233)" fill-rule="evenodd" d="M24.43717596 18.15866798c0 5.47302178 8.54802502 5.47302178 8.54802502 0 0-5.44333257-8.54802502-5.5263696-8.54802502 0"/>
    <path fill="rgb(221,227,233)" fill-rule="evenodd" d="M40.65120817 18.220737c0 6.2570027 9.73631966 6.24447756 9.73631966 0 0-6.23519968-9.73631966-6.29875316-9.73631966 0"/>
    <path fill="rgb(221,227,233)" fill-rule="evenodd" d="M30.84246884 26.540027c-4.73277862 1.30678949-.37276195 5.31761729 1.82486449 6.233808 3.49255695 1.45662726 8.25918087 2.53007805 11.7526651.34652884 1.38997553-.86887352 2.51846135-2.02350576 1.49985686-3.70976057-1.08536783-1.7952699-2.57131566-.99690827-4.2237082-.8312981-2.09330873.21060789-3.78511017.1781353-5.80655559-.49311936-1.50866591-.50100555-3.40168463-1.99891938-5.04712266-1.5461588"/>
    <path fill="rgb(221,227,233)" fill-rule="evenodd" d="M116.68996381 18.50519682c0 3.70187437 5.74813767 3.70187437 5.74813767 0 0-3.70187438-5.74813767-3.70187438-5.74813767 0"/>
    <path fill="rgb(221,227,233)" fill-rule="evenodd" d="M129.40212003 19.06242633c0 4.11288448 6.3856348 4.11334838 6.3856348 0s-6.3856348-4.11288449-6.3856348 0"/>
    <path fill="rgb(221,227,233)" fill-rule="evenodd" d="M128.92916671 27.98830417c-3.35439394.43234924-13.05594103 1.41580458-13.59885676 5.55049209-.83732349 6.37900683 9.79288304 1.21633015 12.21908117.7153246 3.09012241-.6378543 5.84967358-.47131634 8.93469601-.34745663 1.69365599.06772852 3.9464549.3423538 3.76888298-2.23782481-.29116232-4.2367442-8.39178028-4.05628942-11.3238034-3.68053525"/>
    <path fill="rgb(221,227,233)" fill-rule="evenodd" d="M44.5916822 86.81452077c-2.43129811.64852385-5.6118292 4.85186768-3.93903676 7.42416008 2.74286034 4.21911622 3.95248215-2.25870004 5.1004406-2.88217362 2.08867238-1.1346848 3.7841829 3.01113616 5.96697305.83640094 3.44433899-3.43142415-4.95995942-5.95918273-7.1283769-5.3783874"/>
    <path fill="rgb(221,227,233)" fill-rule="evenodd" d="M72.45035272 83.69580758c-2.88334152.02644196-8.97039584 4.10870944-9.40157571 7.12262896-.25592612 1.79109486.93144125 3.51167782 2.86201434 3.53580031 2.62880631.0320087 3.46427527-3.38596253 5.7430377-4.10082324 2.4581889-.77099188 2.09330873 1.00433058 4.21629005 1.92469634 1.55363843.67403803 3.49672966.39199046 4.03639995-1.51832516 1.01814085-3.60306495-4.49354334-7.02057228-7.45616633-6.9639772"/>
    <path fill="rgb(221,227,233)" fill-rule="evenodd" d="M50.37964605 100.9537789c-4.61177008 2.70264663 2.97653201 8.4952914 5.60719286 9.21989389 3.97149115 1.09293433 11.96454595-.94727162 12.90572352-5.7986754.3746165-1.93072696-.83315078-3.67960746-2.96401388-3.3340064-1.75439208.28483093-2.87963245 2.48554422-4.50467057 3.27370018-2.19345372 1.06370901-4.14349946.99134154-6.00730923-.61002066-1.51840223-1.30447001-2.33161674-4.3285952-5.0369227-2.7508916"/>
    <path fill="rgb(221,227,233)" fill-rule="evenodd" d="M53.72217095 140.88535965c-4.12031775.8786153-8.30878974.28900598-12.44904377 1.11520125-4.22185365.84289546-6.74495135 2.43776314-10.66729727.83083421-.18452644-.0779342-.36858924-.1558684-.55265205-.2338026-3.0358772-1.30725337-6.21779919-1.69460489-9.39554847.389671-1.8805006 1.23303033-7.58922936 5.49853595-6.9011961 8.10144536 1.49104781 5.642807 7.91470061-3.20550775 9.55272049-4.06788676 3.12350407-1.64450434 5.26503076.45647173 8.48079806 1.0493283 3.8518735.71022176 6.9512686-1.32534525 10.5796704-2.13576812 4.24364446-.9481994 9.01768653-1.27849195 13.33504885-1.78599202 1.70571048-.20040223 8.16645402 1.14860162 8.74970593-.97417747 1.00191366-3.64667098-9.11273156-2.63259863-10.73220607-2.28885315"/>
    <path fill="rgb(221,227,233)" fill-rule="evenodd" d="M89.00321198 138.23236084c4.4838028-.60585022 9.00052642-.94541931 13.51818084-1.14118958l.06551361-.00274658c3.7284546-.1565857 10.41485596-.43737793 12.21337128 3.75750733 1.37514496 3.20689392-.35050201 9.90830993-1.95931244 12.7858429-2.09658813 3.74925231-6.67137146 3.64250182-10.71286774 3.54818725-.75602722-.01763916-1.49340057-.03485108-2.19239044-.0262909-.56690216.00697327-1.1350174.01519776-1.70401764.02345276-4.04958343.0586853-8.14400482.11801148-12.16606903-.27163696-3.4823532-.336792-5.9678955-.9157257-6.9554367-4.49003601-.64306641-2.32688904-2.97792817-11.03649902-.31156159-12.32427979.56725311-.27397155 1.24865723-.23060607 1.8618393-.19155883.37311554.02374267.72097778.04588318 1.00248718-.00605774 2.30844116-.42538452 4.84080505-1.32348633 7.34026337-1.66119385zm5.98597717 2.43218994c.60539245-.0613861 1.4393158-.1864624 2.41722107-.33312988 4.71985626-.70791626 12.79360199-1.91885376 14.71313476 1.10040283 1.50913239 2.37420654-.88600158 11.1367035-3.17079162 12.27000427-1.30197144.6452179-3.83776856.32189942-5.9125061.05734253-.83546448-.1065216-1.5961609-.20350647-2.17142487-.22389221-3.72854614-.13127136-7.46497345-.18972778-11.18934632-.4221344-.24586486-.01533508-.59906005-.01876831-1.01528167-.02279663-1.6982727-.0164795-4.44574738-.04312134-5.232193-.93096924-1.1563034-1.30540466-1.1048355-8.26426697-1.37699127-9.98995972 2.19960785.71200562 5.8072586-.07551574 8.95922852-.76356506 1.49523163-.32640076 2.88787842-.63040161 3.9789505-.74130249z"/>
    <path fill="rgb(221,227,233)" fill-rule="evenodd" d="M135.0197754 134.17674255c.82685851-.02603149 1.59274291-.05015564 2.25518798-.08872985 2.53256225-.13252259 5.14976501.20166015 7.76856995.53604126 1.8182373.23216247 3.6372528.4644165 5.42924499.5406494 5.94146729.25282289 8.08995056.94032289 9.37467957 6.73713685.2257843 1.01824951.8224945 1.56425476.83964538 2.76156616.01724243 1.18884278-.35520935 2.88134766-.69129944 4.40859986-.15190124.69026184-.29637146 1.3467865-.39407348 1.90777587-1.02462769 5.89006043-4.21072388 7.81430054-9.80493164 7.9613495-6.21177674.16329955-12.56124878.03479003-18.74102784-.65408326-5.1783371-.5770874-7.76541137-2.14273071-8.27633667-7.64126587-.05819702-.62593079-.16414642-1.38677978-.28173065-2.23117065-.5812378-4.17393494-1.44672394-10.3891449 1.76628876-12.43948365 2.40704346-1.53555297 7.15841675-1.68513488 10.75578308-1.79838562zm-5.72906495 5.12776184c-.21211243.17604065-.28189087.17871094-.26374817.1360321.0181427-.04267882.12419128-.13069152.26374817-.1360321zm26.0349121 1.34991456c.01982118-.30627442-.46247863-1.00686646-1.50634765-1.18292237.96459961 1.40118408 1.4865265 1.48921204 1.50634766 1.18292237zm.28733827-.49664307c-.07081604-.09562683-.2191925-.28686524-.2326355-.28686524.29673767.38247681.30345154.38247681.2326355.28686524zm-10.44369507.91416931c.15159607-.19345093.35235595-.18370056.60224914.02922058-.04226684.01417542-.10324096.03684998-.17340088.06295777-.38249206.1422882-1.03753662.3859558-.42884826-.09217835zm-14.77511597 7.5429535c-.50128174-.07911683-.9898529-.1562195-.97038269.32144164-.0774231.83825684.45993042.75012207 1.61206055-.26396179-.18585205.01445007-.4147644-.02166748-.64167786-.05747986zm3.43229675 3.57240295c.50489807-.16886902 1.00933838-.33772278 1.51423645-.50657654-.01530456.3841095.06721497.74407959.24757386 1.07901-.86421204-.0932312-1.72749329-.19343566-2.58985901-.29966735.27586364-.09092713.55218506-.18185425.8280487-.27276611zm15.47796631-.17396546c-1.99363708.36369324-3.98587036.73434448-5.97717285 1.10917664-.37461853.07051086-.74923706.1405487-1.1238556.21105957.70306397.05015564 1.34735108.14131164 1.94462586.22581482 2.14247132.30308532 3.68005371.52059936 5.1564026-1.54605103zm4.79629517 1.43714905c-.037323.05659485-.14268494.1763916-.18603516.2221527-.04335022.04574586-.02468872.01745606.18603516-.2221527z"/>
  </g>
  <g opacity=".5" transform="translate(19 90)">
    <path fill="rgb(221,227,233)" fill-rule="evenodd" d="M1.90802857 2.6723177c-1.573 1.57047918-.962 7.15198438-.99496428 9.21752605-.05060715 3.21558854.1495 6.4024375.41832142 9.6064375.18014286 2.14527083 1.19553572 22.61758854 4.02117858 21.0452552 1.59296428-.88582812.59428571-6.80803645.5915-8.68120833-.0065-4.16445833-.17967858-8.31871875-.45732143-12.47390625C5.2286 17.52882812 5.06656429 13.71619792 5.2151357 9.8511875c.03621429-.9433073.91882143-11.41239583-3.30710714-7.1788698"/>
    <path fill="rgb(221,227,233)" fill-rule="evenodd" d="M70.40943929.14865781c-13.5135.10754167-27.02142858.77411459-40.52842858 1.1824948-6.49953571.19654166-12.99489285.44639062-19.48746428.8065625-2.21232143.12283854-6.95732143-.58545313-8.80053572.59333333-4.09175 2.61715625 2.50714286 3.22903125 4.26632143 3.1650625 26.73032143-.96926563 53.46992857-2.24585938 80.223-2.3061198 13.1235-.02920312 26.2405.34441146 39.36539286.26051042 5.01707143-.03198437 10.57271429-2.19347916 11.83975 3.64621875 1.43 6.58970834-.21310714 13.92664584-.66021429 20.54833854-.29853571 4.42033334-.19221428 8.74888542.00696429 13.16551042.12767857 2.82945833-.20475 6.01769792.29528571 8.7943125.48146429 2.67370833 2.40360715 4.27709896 4.16557143 1.28215625 1.05253572-1.78973437.52882143-6.20867708.59892857-8.28209896.09425-2.792375.00557143-5.58382291.00557143-8.37666146-.00092857-6.81684375.96153572-13.60680208.83432143-20.4222552-.08171428-4.39483855-.31525-12.36219271-5.85835714-13.41814063C130.57158214-.37514427 123.068725.79437135 116.822225.72298594 101.34433214.54637656 85.89243929.02767344 70.40943929.1486578"/>
    <path fill="rgb(221,227,233)" fill-rule="evenodd" d="M33.17363214 42.78610104c-5.09553571 0-10.19153571.03059375-15.28660714.11495833-4.36985714.0723125-11.24035714-.83854687-15.3075.72497917-2.78432143 1.07031771-3.52392857 4.17882813 0 5.00671354 3.84335714.90344271 9.63578571-.57340104 13.65696429-.64432291 20.16392857-.356 40.52192857-.82000521 60.65753571.45519791 18.86764286 1.19454688 38.09882143 2.3529375 56.99432143 1.09210417 1.58971428-.10615104 9.698-.42877604 5.99810714-3.46821875-2.15846428-1.77397396-10.907-.60723958-13.71221428-.6920677-9.89439286-.29852084-19.79853572-.3648073-29.68967858-.7398125-9.76207142-.3703698-19.48096428-1.46803647-29.24628571-1.73967188-11.34528571-.31567188-22.71564286-.10985938-34.06464286-.10985938"/>
    <path fill="rgb(221,227,233)" fill-rule="evenodd" d="M16.23927498 15.7007122c2.55449867-2.96249485 4.25099945-4.59972381 7.96807098-6.05107307 7.2363577-2.8303852 17.84482098 4.56681251 19.43268109 11.72064972 1.57717514 7.1065607-3.51464463 13.64203358-10.32292939 15.11377811-7.81578731 1.68960953-18.49343013-1.32758331-20.03114414-10.27671814-.07083511-.41221237-.05881405-.86474228-.04688454-1.3137865.01317025-.49573708.026227-.9872284-.07243728-1.41554833-.13603592-.59055137-.92392826-1.26454162-.92810726-1.8778057-.01454068-2.01797486 1.17682457-3.13837815 2.50811767-4.39037514.49651432-.46693993 1.01249123-.95218277 1.49263287-1.50912095zm19.59982204 15.53467083c8.03585816-5.56666946.1782837-17.08475399-7.76378727-17.43148326-.79777336.62671852-1.06233024.49163818-1.34329605.34818077-.18390846-.09390164-.3748455-.1913929-.7269516-.08118058-1.3557148.42460442-2.52664375 1.35725022-3.65114402 2.2046032-.9824276.74027634-2.41382027 1.78000069-3.21100045 2.71913719-.00452423.0053711-.10247993.2211914-.23334312.50951195-.2885952.63584137-.7372303 1.62428474-.6967125 1.4857273.03929139-.1054859.08057976-.21146964.12389374-.31794356.00854874-.02090073.01757431-.04290009.02709198-.06602479-.00911712.02202988-.01814842.04403687-.02709198.06602479-.07585907.18545913-.11411667.28450965-.12389374.31794357-3.68303966 9.88812733 10.18342495 15.40232181 17.62623501 10.24550342z"/>
    <path fill="rgb(221,227,233)" fill-rule="evenodd" d="M20.89633929 22.1426901c0 3.21929688 5.08532142 3.21929688 5.08532142 0 0-3.18267708-5.08532142-3.31942187-5.08532142 0"/>
    <path fill="rgb(221,227,233)" fill-rule="evenodd" d="M27.25849286 21.49104323c0 2.55828646 4.04067857 2.55828646 4.04067857 0 0-2.52908333-4.04067857-2.63708854-4.04067857 0"/>
    <path fill="rgb(221,227,233)" fill-rule="evenodd" d="M28.50969643 26.76675c-1.29396429.4973802-2.93521429-.534-3.9975.14555208-1.88128572 1.20428125.00464286 2.29406771 1.01307143 2.77800521 4.54025 2.17864583 5.34810714-3.82885417 2.98442857-2.92355729"/>
    <path fill="rgb(221,227,233)" fill-rule="evenodd" d="M74.16977692 18.4319458c1.2756424-.69211197 2.54945373-1.38323402 3.90776062-1.689888 3.3854599-.75928688 6.07667541.59150124 8.74497986 1.93078995 2.9337921 1.4725399 5.83987426 2.93117523 9.61055755 1.55597114 2.19838715-.80192756 4.37031555-2.4780941 6.7558136-2.63384437 2.30316162-.15013314 4.22999573 1.08701134 6.11885834 2.29977798.71217346.45725823 1.41895294.9110508 2.13846588 1.28571701 1.02189636.53214646 2.65525055.28415108 2.8144989 1.74801636.17897034 1.64273262-1.2269516 1.48341179-2.3736496 1.35346794-.12947082-.01467132-.25563812-.0289688-.37584686-.0402546-2.87393188-.27070998-4.868042-3.1863861-7.66210938-3.4793434-1.66934204-.17496682-3.58100128.75049972-5.44763946 1.6541729-1.32308197.64052581-2.62354279 1.27010154-3.79907227 1.4891033-3.01971435.56320191-5.50504303-.32540702-8.14403534-1.69007491-.22522735-.11647606-.44519805-.23146057-.66078949-.34415436-2.9847412-1.56017303-5.12875366-2.6808815-8.71407318-1.23003197-.87998962.35604477-1.71232605.7608719-2.5282898 1.15773583-2.46447753 1.1986599-4.77957915 2.32466888-7.80717467 1.81449318-.93857575-.1580925-2.00449372-.73004723-3.08089829-1.30762863-1.40114212-.75183106-2.82004928-1.51319695-3.9989891-1.3836937-1.17647553.12933731-2.15751648 1.28737068-3.1485672 2.45721054-1.22888565 1.45058823-2.47315216 2.9193325-4.12446976 2.46745491-5.11271668-1.39850426 4.61174774-9.5494213 8.18489075-9.04137993 2.79314422.39679146 4.70878982 3.12705231 7.53814315 3.45245934 2.21621705.254879 4.13598633-.78671456 6.05163575-1.8260765z"/>
    <path fill="rgb(221,227,233)" fill-rule="evenodd" d="M84.09249643 63.1111052c-13.88864286.12747397-27.82417857.33375-41.67382143 1.4471771-3.28342857.2637552-36.81042857 3.42928124-36.74682143 3.65734374.11746429.42182292 4.42975 1.06614584 4.40282143 1.1658073-.29064286-.7208073-.95503571-1.01932813-1.99271429-.89463542 31.79753572 0 63.49432143-2.84707292 95.33364286-2.33485938 8.00010714.12840104 16.03039286.07463021 24.02492857.32679688 1.99596429.06304166 6.94107143 1.49353125 8.5085.59240625 4.11357143-2.36545313-3.35957143-2.63847917-4.59735714-2.73767709-15.66871429-1.25341666-31.54635714-1.37903645-47.25917857-1.22235937"/>
    <path fill="rgb(221,227,233)" fill-rule="evenodd" d="M1.55572857 69.85915937c-2.07628571 2.08176563-.16435714 9.5707448-.08264286 12.3853698.11839286 4.06943229.02089286 8.16760416.37792858 12.226375.40764285 4.63634375 1.04 9.57584375 2.25642857 14.07405208.66996428 2.47809375 3.02157143 6.41634375 3.95339285 1.9135.66532143-3.21605208-.34496428-7.48248958-.69642857-10.75880208-.47032143-4.38278646-.58407143-8.70809375-.60171428-13.11220313-.01578572-3.83766146-.08960715-7.69108333-.40439286-11.5166927-.16342857-1.98627605-1.16257143-8.83232292-4.80257143-5.21159897"/>
    <path fill="rgb(221,227,233)" fill-rule="evenodd" d="M53.794 107.9981625c-9.85585714.1691927-19.73307143.40142708-29.57221429 1.01701042-4.03278571.2526302-8.06232142.6285625-12.08025 1.05502083-.81992857.0866823-9.89485714.45519792-5.83978571 3.80428646 1.83021429 1.51207291 9.35907143-.5785 11.84578571-.79636459 4.18228572-.36666145 8.36364286-.60492187 12.558-.78245833 9.71842858-.41255208 19.46657143-.77689583 29.19475-.60816667 17.76635715.30825521 35.4185.44592709 53.18996429.04959896 2.52478571-.05608854 22.30567857.47234896 22.9775-2.15454166.54135714-2.1169948-6.5325-1.145875-7.82228571-1.10740105-4.73153572.14138021-9.46353572.10846875-14.19692858.08436459-20.05110714-.10290625-40.21875-.90019792-60.25453571-.56134896"/>
    <path fill="rgb(221,227,233)" fill-rule="evenodd" d="M132.71871786 66.34662604c.31292857 8.7753073 1.80746428 17.54041667 2.28521428 26.34214584.21821429 4.02354166.47542857 8.043375.67228572 12.06830729.06360714 1.2983802-.45964286 4.42682291 1.07575 5.17358854 2.106 1.02442708 2.38967857-1.03972396 2.78385714-2.43591146 1.13889286-4.0328125.36864286-9.27129687.26510714-13.4135052-.09982143-4.0114896-.10678571-8.0299323-.40253571-12.03400522-.30317857-4.0907552-1.12682143-8.10409895-1.50892857-12.18048437-.16157143-1.72391146.40346428-4.59277083-1.42675-5.662625-1.58182143-.92476563-3.81225.24057812-3.744 2.14248958"/>
    <path fill="rgb(221,227,233)" fill-rule="evenodd" d="M13.12712097 91.51841736c-.0701065-7.65585327 6.4628563-16.75099945 14.56185723-17.15428162 7.78839302-.40467071 16.27089118 6.0663681 18.08067321 13.66103363 2.25875092 9.47896576-6.1466732 15.29919434-14.57578087 15.22688294-7.46849823-.06443024-17.98224926-2.45491791-18.06674957-11.73363495zm14.34178543-13.1743164c3.12325096.89231872 5.68842697.55949401 8.6719284 2.83316802 2.47325135 1.8852234 5.01010896 4.64329529 5.83050156 7.69154358 1.89521409 7.04259491-4.53003692 10.90203858-10.55368042 10.97805786-6.16989135.07741547-15.30239105-1.35353851-14.98621368-9.26202392.24235725-6.07610321 4.67907143-12.00480652 11.03746414-12.24074555zm8.37571717 2.6000061c.03760528.02873992.07474899.05794525.1118927.08715057-.03714371-.02920532-.074749-.05794525-.1118927-.08715057z"/>
    <path fill="rgb(221,227,233)" fill-rule="evenodd" d="M19.54225 86.8223276c0 2.58748959 4.08803571 2.58748959 4.08803571 0 0-2.55782291-4.08803571-2.66768229-4.08803571 0"/>
    <path fill="rgb(221,227,233)" fill-rule="evenodd" d="M28.11705 85.68702135c0 2.60788542 4.12053571 2.60788542 4.12053571 0 0-2.57821875-4.12053571-2.6890052-4.12053571 0"/>
    <path fill="rgb(221,227,233)" fill-rule="evenodd" d="M23.38983214 91.58860208c-2.66082143 2.6565573 6.68664286 7.31376042 8.89107143 3.61794271 1.81071429-3.03527083-2.13153571-2.02892187-3.52903571-2.19301562-1.51867857-.17892709-4.12239286-2.66119271-5.36203572-1.42492709"/>
    <path fill="rgb(221,227,233)" fill-rule="evenodd" d="M51.36666489 88.10035706c.11932373-3.19658661 8.96117782-6.17947388 11.65542984-6.68473816 2.82831573-.52979279 5.06918335.59592437 7.32234954 1.72782135 2.35394288 1.18253326 4.72131348 2.37180328 7.7859726 1.68709564 2.6194992-.58545685 5.0449295-2.09799194 7.72850037-2.3371811 2.37780761-.21198272 3.70087432.61001588 5.20488739 1.54442597.74549865.46316528 1.53546142.9539566 2.52036285 1.36013031 1.202034.49610901 2.14473724.3770218 3.13656616.25172424.57617188-.07278442 1.16892243-.1476593 1.8387146-.1052475 3.01554108.19097901 3.08332825 2.21711732.39697266 3.53125764-3.12800598 1.53051757-5.13199616.34255218-7.23799133-.9058838-1.31279755-.77822875-2.66523743-1.57994842-4.35429383-1.76132964-2.13613891-.22949982-4.24630737.64528656-6.3910141 1.5343933-2.07019806.85821534-4.1725769 1.72977448-6.36152649 1.63437653-2.09651947-.0912857-3.78450775-.85214996-5.39621734-1.57862854-2.33299256-1.05160522-4.50614166-2.03115081-7.5271759-.80351257-.33242417.13513184-.87672425.43237305-1.54639054.79806519-3.11826706 1.70285797-8.95478058 4.89011383-8.77514648.10723114z"/>
    <path fill="rgb(221,227,233)" fill-rule="evenodd" d="M121.52204895 91.31542969c-6.05335236 5.11333465-14.35339355-7.47182465-6.64021301-10.98871613 2.01546478-.92059326 5.55982208.902977 7.04460907 2.24632263 2.47789001 2.2416916 2.1426773 6.59063721-.40439606 8.7423935zm-5.04586029-7.3411026c.59893036.35831451 5.41403961 3.65085602 1.91657257 4.42636108-1.77542877.39354706-3.24443054-3.17897034-1.91657257-4.42636108zm3.02111053 1.86946106c.01486206.00649261.07312775.08019256.09854126.1154251.02542115.03523255.01799012.03198243-.09854126-.1154251z"/>
    <path fill="rgb(221,227,233)" fill-rule="evenodd" d="M42.47680357 129.92085573c-9.62464286.00278125-19.33378571-.19932292-28.94542857.37129687-1.61757143.09595313-7.77957143-.21183854-8.61296429 1.47916146-1.52471428 3.09275 4.81557143 1.5575 5.73671429 1.46479167 19.13785714-1.9158177 39.12907143-.81351563 58.33007143-.26746354 15.70353571.44639062 31.32303571.72358854 47.008 1.53293229 4.12285714.21276562 8.242.44778125 12.36207143.69623958 1.34271428.0811198 4.72225.9711198 5.00546428-1.1736875.26185715-1.98488541-3.95385714-1.53664062-5.00685714-1.59226562-8.37478571-.44082813-16.744-.90251563-25.11646429-1.3739375-20.15232142-1.13614063-40.57625-1.14077604-60.76060714-1.13706771"/>
    <path fill="rgb(221,227,233)" fill-rule="evenodd" d="M4.60938214 133.36005677c-1.79771428 1.78695313-.95503571 8.61075-1.00517857 10.86634375-.08775 3.94473958-.27392857 7.88623438-.3575 11.83004688-.08682143 4.1218125.03389286 8.2626302.27764286 12.37841666.10214286 1.72808334 1.52053571 10.08017709 3.75375 5.30059896.99775-2.136-.02414286-8.08509375-.00882143-10.5052448.02739286-4.4045729.26464286-8.79060416.48378571-13.18915103.1885-3.78110938.19546429-7.56592709.36075-11.34796354.05246429-1.20567188.195-9.04369792-3.50442857-5.33304688"/>
    <path fill="rgb(221,227,233)" fill-rule="evenodd" d="M134.97983571 168.59534219c-9.3665.95999479-18.88342857.5061875-28.28567857 1.21540625-8.10317857.61094791-16.19892857.86079687-24.323 1.03277083-18.39639285.38844792-36.82389285.76716146-55.16689285 2.30009375-4.18042858.34904688-8.35575.7198802-12.54732143.90715104-2.09625.09363542-10.89260715-.86033333-11.54771429 1.3493698-1.11567857 3.76349479 8.29121429 2.27413541 10.32014286 2.21526562 4.46178571-.12886458 8.90267857-.45148958 13.35192857-.79033854 18.70328571-1.42492709 37.47807143-1.85092188 56.22128571-2.44332813 10.19385715-.32169791 20.31667858-1.06753646 30.48778572-1.74616146 5.06953571-.33792187 10.153-.34904687 15.22207143-.67677083 1.32646428-.0857552 6.02132143.0834375 6.97542857-.98409896.65557143-.73285937.82132143-2.5221302-.70803572-2.37935937"/>
    <path fill="rgb(221,227,233)" fill-rule="evenodd" d="M131.80486429 134.00039323c.32128571 8.98251042.82875 17.95714062 1.13192857 26.93965104.09146428 2.7010573-.72475 7.54228646.77953571 9.92442708 2.41846429 3.8302448 4.30625-.22342708 4.74917857-2.61020312 1.39796429-7.53301563-.10492857-15.85451563-.49539285-23.43388542-.14857143-2.89157291.74935714-9.32738541-.64814286-11.91533854-1.33110714-2.46511458-5.63642857-2.21758333-5.51710714 1.09534896"/>
    <path fill="rgb(221,227,233)" fill-rule="evenodd" d="M114.51127625 143.66329956c.21151733.01191711.40262603.02268982.56300354.02770996 9.26667785-1.87503052 9.39807128 18.96395874-1.38728333 15.23614502-2.0437851-.70643616-3.72078705-2.61761475-4.34710693-4.65162659-.56663514-1.84068298-.0066681-3.1037445.56468963-4.39251709.3588791-.80947876.72224427-1.62908935.81377411-2.60835266.02205658-.2375946-.02713775-.57174682-.08123016-.93919372-.10758972-.73080445-.23456574-1.59329224.1411209-2.08959961.57578278-.7604065 2.50071717-.65197754 3.73303224-.5825653zm1.63179016 12.48121643c4.04904174-.57711792 3.5248642-8.37898254-.06360627-9.35102844-3.3275299 1.60848999-5.96327972 10.20996094.06360627 9.35102844z"/>
    <path fill="rgb(221,227,233)" fill-rule="evenodd" d="M14.58001137 139.98530579c2.16728401-2.65655518 4.56160545-4.86857605 8.21553612-4.98028565 11.75478458-.39401245 21.2429285 16.9313202 11.6795702 25.3353424-10.24725056 9.00521851-27.03303528-2.04005431-20.53535748-14.99002074-1.24057102.99012756-1.8297491-.30871582-2.05492783-1.1968689-.23035812-.90943909 1.2322321-2.53100586 2.15883064-3.55830383.21821213-.2419281.40669919-.45091248.53634835-.60986328zm8.17328453-1.58436585c-1.47921372.09965515-2.91896439.71617127-4.12610626 1.55888367 1.13007164-.95581055 2.6362152-1.52503967 4.12610626-1.55888367zm3.29271316 1.09997559c.0422516.36109924.08450127.72219848.12675095 1.08283996-.30657578 1.11433411-1.64328384 1.05773926-2.87927437 1.00541687-.62829399-.02661132-1.23054504-.05210876-1.65818977.07788086-2.72582054.82881165-4.83460617 4.29284668-5.52128601 6.87060547-1.48849964 5.58753967 1.14957237 10.1376648 6.6699295 11.57510376 4.9868927 1.2979126 10.33964253-.56690979 11.8211794-5.82487488 1.94164275-6.89193725-2.7114296-12.0265808-8.5591097-14.78697204z"/>
    <path fill="rgb(221,227,233)" fill-rule="evenodd" d="M19.47557857 147.03453594c0 1.724375 2.67707143 1.724375 2.67707143 0s-2.67707143-1.724375-2.67707143 0"/>
    <path fill="rgb(221,227,233)" fill-rule="evenodd" d="M24.04410357 147.32879219c0 1.75265104 2.72025 1.75265104 2.72025 0s-2.72025-1.75265104-2.72025 0"/>
    <path fill="rgb(221,227,233)" fill-rule="evenodd" d="M26.11727857 153.48360573c-1.27260714.1033698-5.93078571-.32911458-6.74839286.78570312-1.36639285 1.86251042.81435715 1.92740625 1.88546429 2.12858334.96478571.18124479 5.15867857.07880208 5.74971429-.77782292.52232142-.75696354.40021428-2.24585937-.88678572-2.13646354"/>
    <path fill="rgb(221,227,233)" fill-rule="evenodd" d="M56.60223007 149.88424683c2.74160767-.65821839 5.17028427-2.30751038 8.03771591-2.51841736 2.0986023-.15933228 4.02024842.5453186 5.9451828 1.25115967 1.16640473.42770385 2.33402253.85586547 3.5429535 1.09249878 2.90829467.56922912 5.18978881.06536865 7.90214538-.96925354 3.25231934-1.23997498 5.414505-1.66041565 8.82885742-.5817566.96803284.30593872 7.21315003 1.89588929 7.45968628 2.78495789.83584595 3.01605225-3.47937774 1.54882812-5.09152221 1.00068664-.07048798-.02397155-.13581086-.0461731-.19530488-.06617736-.49633789-.16688538-.97249603-.33880616-1.4357376-.50605774-2.43699646-.87989807-4.51621247-1.63059998-7.29237366-.83914185-.87551117.24967957-1.69274903.51927185-2.48226929.77972412-2.64620209.87290955-4.98108673 1.6431427-8.15544128 1.21720886-1.156456-.15505981-2.29042054-.5182495-3.4238968-.88128662-1.51270293-.48449707-3.02454376-.96870422-4.58781432-.95758056-3.27043152.0231781-6.04871369 2.17308044-9.17985917 2.85171509-1.82577133.39607238-3.43116378-.14868165-4.98139572-.6747284-1.38352966-.46946716-2.72312927-.92402649-4.13624572-.68159485-.6432953.11038208-1.5292244.97865296-2.4908867 1.92114258-1.90967178 1.8715973-4.11798476 4.03588867-5.31793594 1.13916016-.78789138-1.9028473 1.97785569-4.36842346 3.23839188-5.43966675 2.22485733-1.89031982 4.19389343-2.23797607 6.96196365-1.35818482.73994446.23526001 1.37207032.5050354 1.9620514.75682068 1.53157043.65364075 2.77914047 1.18608094 4.89173507.67877198z"/>
  </g>
  <g transform="translate(9 44)">
    <g transform="translate(82)">
      <path fill="rgb(25,24,71)" fill-rule="evenodd" d="M61 77.70685879c11.4289379 0 15.5854974-13.68277498 22.0786187-21.19151052C87.72431383 51.14300196 95.65307946 52.74494419 98 45.22377622 103.9015425 26.31112374 88.10610862 13 67.5 13S33 24.67425243 30 42.22377622C27 59.77330002 40.39389138 77.7068588 61 77.7068588z"/>
      <path fill="rgb(178,139,103)" fill-rule="evenodd" d="M92.14334106 40.13393307c5.79481125 10.8011217 5.1062355 38.1990633-2.38304138 40.12952518-2.9867134.76986695-9.34929657-1.1159935-15.82492256-5.01914596L78 104H54l8.26227379-38.50987244c-4.60790944-5.40875053-7.72663903-12.03725052-7.2054975-19.464674 1.50155377-21.40047406 31.29175353-16.69264244 37.08656477-5.8915205z"/>
      <path fill="rgb(25,24,71)" fill-rule="evenodd" d="M56.61679077 31c-18.38320923 18 .07024384 37.131773 5.12644959 37.131773.3263893-2.5974579 1.3222351-5.12409974 2.78132629-7.52886963-.77498245-1.00357056-1.23452377-2.2513504-1.23452377-3.60290528C63.29004288 53.6885109 66.04873658 51 69.44667053 51c1.06136322 0 2.06035614.26231003 2.9323883.72397614 7.37019349-6.28578568 16.6142273-10.6678238 21.20410157-11.52944947C101.56601715 38.695961 75 13.00000095 56.61679077 31z"/>
    </g>
    <g transform="translate(0 187)">
      <path fill="rgb(153,118,89)" fill-rule="evenodd" d="M130 0l74.30641303 124.22690916 55.70843142 105.02338058h11.9991018L178.67368775 0H130z"/>
      <path fill="rgb(197,207,214)" fill-rule="evenodd" d="M255.4182776 223.35225237c-1.0417975-.5344558-2.31785241-.06362848-2.76284187 1.01940863 0 0-1.65543573 4.02908051-1.65543573 6.73400982C251 233.81060014 251.90124261 239 251.90124261 239h56.4018122s2.19852474-7.26823912-2.53823196-7.84777684c-4.7367567-.57953773-7.8698085-1.04655234-7.8698085-1.04655234l-26.2150217-11.68678736c-.51456887-.22939737-1.11697575.0113584-1.33169813.5322217l-1.68508143 4.08758988s-4.38499781 2.04593567-7.12653195 2.04593567c-2.74153414 0-6.11840355-1.73237834-6.11840355-1.73237834z"/>
      <path fill="rgb(87,123,215)" fill-rule="evenodd" d="M244.54305673 212.43288902l23.14005644-7s-15.20743412-45.46202173-37.2777393-100.0585761C208.3350687 50.77775856 183 0 183 0h-65.3559269s28.16714844 64.23153298 59.72190902 116.72518563c31.55476059 52.49365265 67.1770746 95.70770339 67.1770746 95.70770339z"/>
      <path fill="rgb(178,139,103)" fill-rule="evenodd" d="M125.11662798 0c-7.01312976 43.65418883-20.53953693 99.42746848-21.81606503 101.14864846-.85101873 1.14745333-31.4879116 11.41355058-91.9106786 30.79829176l2.59195083 10.58099789c72.05400788-10.396162 110.02032511-18.46193217 113.8989517-24.19731053C133.69872674 109.72756003 162.74848568 41.76313698 174 0h-48.88337202z"/>
      <path fill="rgb(103,146,255)" fill-rule="evenodd" d="M32.62950778 122.80047705l4.5654391 17.04146211c53.89219974 4.7266814 86.91314085 1.31135713 99.06282334-10.2459728C148.40745272 118.03863647 162.25450435 74.839981 177.79892514 0h-62.32077926c-9.84857908 61.2838742-15.35457575 93.21212588-16.51799001 95.78475508-1.16341427 2.57262919-23.2736303 11.57786985-66.33064809 27.01572197z"/>
      <path fill="rgb(175,185,197)" fill-rule="evenodd" d="M15.85848469 130.0550817c.34543053-1.11877735-.33982788-2.29368817-1.4836827-2.54385038 0 0-4.25533267-.93064558-6.91916826-.46094087-2.6638356.46970472-7.61789857 2.25838279-7.61789857 2.25838279l9.79404418 55.54494682s7.5395876.9030115 7.28779405-3.86241902c-.25179355-4.76543052-.3359211-7.9319805-.3359211-7.9319805l6.95706197-27.84614247c.13655863-.54658578-.2051461-1.0980341-.7553824-1.2190477l-4.31810106-.94968086s-2.7762982-3.96310823-3.25235927-6.66299255c-.47606106-2.69988431.64361316-6.32627527.64361316-6.32627527z"/>
    </g>
    <g transform="translate(22 82)">
      <path fill="rgb(178,139,103)" fill-rule="evenodd" d="M24.00457764 166.68966675c7.35775566-5.04510498 17.96072387-13.875 19.3933487-16.78140259 2.9304695-5.94514465 17.57186507-82.45858002 17.57186507-82.45858002l21.89739609.08218384S57.85055542 148.58258057 56.30793 152.40560913c-2.00392152 4.96621704 1.40001296 12.18170166 3.7081642 17.07441712.35708619.75692749.68794251 1.4582672.96849442 2.0870819-3.2026863 1.43310547-4.74114608-.29910278-6.3630867-2.12532043-1.8319397-2.06266785-3.77038192-4.24525452-8.33358383-2.12228394-1.76299667.8202057-3.43127441 1.789917-5.06117248 2.7373352-5.62995148 3.27250672-10.80194474 6.27882386-17.83771134 1.93754579-1.11542892-.68826294-2.33775902-3.27966309.61554337-5.30471802zm175.48853302-74.22933197l28.32791137 27.63502502c8.2423706 3.51581574 14.9958191 7.3979721 20.26037598 11.646492 1.18389893 1.42807007 2.47277832 4.16433716-3.09747314 2.93989564-5.57025147-1.22444153-11.48440552-2.26184082-12.53131104-.45036316-.45843506.79321289-.12463379 1.77134704.23303223 2.81944275.45916748 1.34539795.95761108 2.80603027-.12997437 4.13867187-1.28988647 1.58052063-5.62786865-3.4467926-13.01400757-15.08192444l-29.45727539-17.36727905 9.40872193-16.27996063z"/>
      <path fill="rgb(208,85,85)" fill-rule="evenodd" d="M127.69499548 5.3320284l8.6471231-1.48316787c13.62183596 48.15186274 83.61047614 80.9740953 87.90698806 98.97447858 1.57564448 6.6012163-3.17524042 9.93818196-.72115892 11.94885032l-11.23957435 8.22781172c-1.90332231-2.22066773-5.96500095 1.84145275-14.44708199-1.00000045-8.48208104-2.8414532-70.14629768-59.65210311-70.1462959-116.6679723z"/>
      <path fill="rgb(255,103,104)" fill-rule="evenodd" d="M139.24986267-2.83754945l-26.93423462-1.88342452c-2.20228576-.15399885-4.11528778 1.50894785-4.26927948 3.71123028l-.40960693 5.85764313c-16.27355957 12.5232811-56.60718918 49.94540023-67.11755371 119.60899734-1.10406113 7.31782532.89256286 11.23742676 2.48788833 14.36923218 1.09130478 2.14234924 1.99482727 3.9160614 1.58955384 6.15673828l14.70962906 4.06039429c0-4.06039429 11.16492462-5.73576355 14.04486846-16.27578736 1.6174698-5.9196167 3.9859848-13.31323242 6.81570435-21.53816223C80.43403625 122.12235546 82.49986267 132.14039898 87 140.437747c11.22733307 20.700943 76.10876465-2.00117493 82.8872757-23.1194992 3.61709594-11.26909638-1.51538086-20.73000336-8.30347443-33.24272156-8.61653137-15.88317108-19.9006958-36.6836815-19.34310913-72.34166336l.72039795-10.30212975c.1539917-2.2022829-1.50894165-4.11528396-3.71122742-4.26928258z"/>
    </g>
  </g>
  <g opacity=".7" transform="translate(309 235)">
    <path fill="rgb(105,161,172)" fill-rule="evenodd" d="M15.35149978 63.363176c7.5139085-.39208765 16.80359306 3.96384828 17.60041163 12.08533017.5787939 5.90097095.39497325 11.78542363 1.29263112 17.67739176.71781901 4.70888769 2.2391369 9.22873867 4.31513797 13.51723864 1.99622154 4.12385316 6.14012764 7.63281353 7.21583628 12.03897097.68559233 2.8075092.29854535 6.75766896-.65087375 9.50482022-1.15463096 3.34010993-.5418535 3.07581697 1.75317985 5.87651096 4.49721706 5.48854513 8.5463325 11.11719582 11.40815503 17.6738483 4.12228731 9.44390816 6.8220333 20.48410945 5.2838615 30.82524586-.19571846 1.31324578-.42957107 6.0254917-2.24799194 6.35593159-2.03092423.36943713-1.0797825-2.32607745-.97085123-3.19668748.69421212-5.5550311 1.31102149-10.41071208.48093233-16.05162038-3.20306845-21.76446062-18.89662816-36.09614513-29.10986019-54.56370103-.56149086-.95234002-1.74669083-3.2201432-2.57080602-4.71625595-1.3010862-2.36203103-2.60784359-6.8572486-4.37003042-8.60820865-3.31881708-3.29867903-.26979103 3.33498753.3765281 4.60134504.81717608 1.60186586 1.71619446 3.30431474 2.55372652 4.7078731 3.83212853 6.50599457 8.10960954 13.60780022 12.06740514 20.3143312-17.1366186 3.8924128-29.19155412-16.58515998-33.7816459-30.04989577C2.21538145 90.26219185-2.3019635 64.32300148 15.35149979 63.363176"/>
    <path fill="rgb(137,197,204)" fill-rule="evenodd" d="M116.02466109 42.75289533c-12.5613505.99098858-20.62546165 9.23264116-24.3793327 20.760082-2.02320226 6.21222223-2.25509984 12.59398597-3.37940968 18.97805326-1.69132488 9.60489536-5.33040432 16.8836627-12.44239305 23.7265978-2.2027956 2.11926893-3.82607868 4.29520526-4.98001216 6.62317611-2.2907408 2.32428516-4.28478228 4.95448219-5.74976402 8.17024243-1.8713811 4.10677462-2.40090371 9.03407488-.24022923 13.1284103.58090113 1.10063772 2.0301453 3.31020593 3.5321566 4.31409441-5.62340067 11.90844854-8.71536844 24.95070596-8.36682776 37.9763778.21060559 7.86294843.59663869 15.72912184 1.04701064 23.58239536.1212718 2.10867258.81187298 5.59072358 1.84916336 2.05430873.9493452-3.23464938-.24115497-8.31260202-.3513179-11.69191454-.5360028-16.46211248-.99424352-31.43014036 5.82104591-46.81050425.7146704-1.61202652 1.47238765-3.21115314 2.26158002-4.79737986.04628694-.02672122.0893338-.05897097.13284353-.09029929.0300865.02303553.0573958.0479139.08748232.07048873.05045277-.08937787.11942031-.19580202.19995959-.31466537.22634315-.23219816.4239884-.52567083.61191338-.8532361.60450747-.83296483 1.28862849-1.81151422 1.29233144-2.3473207 0-.00414639-.00231435-.01059634-.00231435-.01474273 4.21905483-6.8480029 9.05141164-13.3186838 13.9874512-19.66266927-.03702955.04607106 5.35401066-7.25250684 4.52038282-3.21622095-.40177066 1.9451203-4.36717304 5.64923382-5.96870125 7.7095318-3.5428026 4.58361012-7.703073 10.3913284-11.16024475 16.00739107-.46518377.26583003-1.12245835 1.57102327-1.59782526 2.54312271-.26244696.49249967-.50730489.98914574-.74799699 1.42175303 12.24983937 4.02430741 21.77893226-4.08189624 28.27669327-13.51033943.00786878-.01105705.01481182-.02257482.02221773-.03363187 1.97737819-2.60531865 4.0028948-5.19220888 6.53340195-7.25158543 4.22183204-3.43644064 8.7431406-4.04273583 13.72083841-5.73400458 13.57457167-4.61171348 19.34609055-22.10443564 21.17905348-35.08403641 2.0681006-14.64322688-8.04791072-37.0973419-25.70915655-35.65347476"/>
    <path fill="rgb(137,197,204)" fill-rule="evenodd" d="M91.27703095 1.7255762c-12.90129173 13.3532255-19.1436367 31.86526263-24.08864941 49.26769917-5.52295162 19.43676114-9.17636595 39.17187536-9.33192177 59.37581048-.10194268 13.27406099-.47556 26.63121953.29304346 39.88918993.27265866 4.70856386.74093374 9.42520205 1.48769494 14.08277532.06150645.3827265 1.73230252 10.78226577 3.34068292 8.35738487.91473598-1.37898526-1.71250297-10.7880147-1.91041003-12.35533618-1.11292312-8.82776826-1.36615118-17.72135283-1.30453992-26.61388473.10131024-14.64124244-.32129337-29.20712421 1.18228667-43.79563295.22414809-2.1781484.40199228-4.46584314.92383607-6.59690107.55402524-2.2656176-.15014107-1.276271 1.6495847-2.17441725 1.74870984-.87318323 3.9087027-.7503644 5.72326018-1.84543636 7.19761032-4.34423246 10.88656387-15.4914646 13.75657118-22.80590953 3.28272603-8.3644675 5.28081253-17.2827677 6.87808967-26.0837175 1.17273442-6.4662839 2.01272719-12.89298234 2.49036357-19.44196904.1504579-2.06401336.1610203-4.22229552.5704581-6.251988.11025151-.54750086.66231943-1.51630836.64271558-2.00107612-.04155548-1.02596324-.66378326-1.62888538-.71408106-2.49097012-.53999236.48339745-1.0701764.97854631-1.58898485 1.48437908"/>
    <path fill="rgb(137,197,204)" fill-rule="evenodd" d="M20.91472868 179.50248756c0 22.06391314 17.98843521 39.95024876 40.17829458 39.95024876 22.18985936 0 40.17829457-17.88633562 40.17829457-39.95024876"/>
    <path fill="rgb(105,161,172)" fill-rule="evenodd" d="M81.17157745 135.03541565c7.58815766-.55621338 16.06230927 5.53033447 19.72257233 11.86427307 2.95069885 5.10682678 2.45361328 11.8127594.631073 17.23828125-1.2204361 3.63230896-3.88404846 8.81112671-8.32600403 8.86160278-5.55739594.0631714-5.82537842-6.76593017-5.93286133-10.75822448-.1428299-5.30763245-.81739807-9.93130494-5.02388763-13.54914856-.98038483-.8427887-2.05197907-1.5842743-3.04226685-2.41542054-1.55065155-1.3008728-3.26428985-2.6328125-3.46404266-4.78495788-.27576447-2.96916199 1.40994263-3.503479 3.98375702-2.95185852.0830307.01776123.30862426.1027832.6154251.21839905 1.31438447.4953308 4.11916352 1.55233764 3.58859254.28875732-.19975281-.47610474-.92947388-.8533783-1.85046387-1.13607788-2.383255-.2576294-5.22541046-.55656433-6.04280853-.37797546-8.81814576 1.92344665-12.25143433 14.06794738-13.16322327 21.7839508-.09840393.83285523-.17798614 1.66844177-.24737549 2.5052948H61c.11240768-2.02090454.26088333-4.03825378.6006813-6.03666687 1.29963303-7.64294433 5.3632927-18.86843872 14.27583695-20.10896301.32879639-.04623413 1.53827667-.05400086 3.0033722.03140259.69436645-.3857422 1.47216796-.61901856 2.291687-.67266846z"/>
  </g>
</svg>
